<?xml version="1.0" encoding="UTF-8" standalone="no"?>
<!-- Created with Inkscape (http://www.inkscape.org/) -->

<svg
   width="88.900002mm"
   height="88.900002mm"
   viewBox="0 0 88.900002 88.900002"
   version="1.1"
   id="svg5"
   xml:space="preserve"
   sodipodi:docname="arttile.svg"
   inkscape:version="1.2.2 (732a01da63, 2022-12-09)"
   xmlns:inkscape="http://www.inkscape.org/namespaces/inkscape"
   xmlns:sodipodi="http://sodipodi.sourceforge.net/DTD/sodipodi-0.dtd"
   xmlns="http://www.w3.org/2000/svg"
   xmlns:svg="http://www.w3.org/2000/svg"><sodipodi:namedview
     id="namedview7"
     pagecolor="#ffffff"
     bordercolor="#000000"
     borderopacity="0.25"
     inkscape:showpageshadow="2"
     inkscape:pageopacity="0.0"
     inkscape:pagecheckerboard="0"
     inkscape:deskcolor="#d1d1d1"
     inkscape:document-units="mm"
     showgrid="false"
     inkscape:zoom="1.4912879"
     inkscape:cx="172.66955"
     inkscape:cy="149.53518"
     inkscape:window-width="1920"
     inkscape:window-height="1017"
     inkscape:window-x="1912"
     inkscape:window-y="-8"
     inkscape:window-maximized="1"
     inkscape:current-layer="layer1" /><defs
     id="defs2" /><g
     inkscape:label="Layer 1"
     inkscape:groupmode="layer"
     id="layer1"
     transform="translate(-44.218422,-36.370926)"><path
       style="fill:#000000;stroke-width:0.0635"
       d="m 78.438438,120.10981 c -0.246949,-0.16551 -0.645371,-0.72814 -0.758614,-1.07127 -0.07244,-0.2195 -0.06369,-0.25383 0.153991,-0.6038 0.12694,-0.20408 0.320455,-0.4911 0.430032,-0.63781 l 0.199233,-0.26673 -0.510235,-0.50614 c -0.554242,-0.54979 -1.119882,-0.86855 -2.247557,-1.26657 -1.234364,-0.43568 -2.38259,-1.13577 -3.097972,-1.88888 -0.374351,-0.39409 -0.528532,-0.6231 -0.80403,-1.19426 -0.187475,-0.38867 -0.371214,-0.85278 -0.408309,-1.03135 -0.06111,-0.29415 -0.100366,-0.34735 -0.417582,-0.56582 -0.957003,-0.65912 -1.520287,-1.85728 -1.473615,-3.13455 0.02604,-0.71276 -0.128998,-2.61472 -0.270736,-3.32117 -0.222314,-1.10806 -0.614851,-2.06708 -1.160354,-2.8349 -0.262466,-0.36943 -0.291258,-0.39171 -0.354227,-0.27405 -0.0377,0.0704 -0.06858,0.29425 -0.06864,0.49737 -6.3e-5,0.24547 -0.04117,0.44381 -0.122592,0.59155 -0.268224,0.48666 -0.271582,0.50755 -0.204293,1.2711 0.05889,0.66828 0.08391,0.76365 0.290096,1.10606 0.124104,0.2061 0.243995,0.47254 0.266423,0.59209 0.116401,0.62047 -0.209293,1.4815 -0.642285,1.698 -0.1397,0.0699 -0.260164,0.1284 -0.267699,0.13012 -0.0075,0.002 0.05676,0.14228 0.142875,0.31238 0.170761,0.3373 0.190991,0.50645 0.09177,0.76741 -0.05054,0.13292 -0.03483,0.25918 0.07137,0.57356 0.24062,0.71235 0.09914,1.7969 -0.274911,2.10733 -0.169984,0.14107 -1.57019,0.34826 -2.112907,0.31264 -0.84956,-0.0558 -1.139302,-0.14718 -1.550294,-0.48921 -1.042679,-0.86772 -1.219241,-1.59898 -0.795992,-3.29669 l 0.225463,-0.90437 -0.262872,-0.28518 c -0.436392,-0.47343 -0.52583,-0.75301 -0.492841,-1.54059 0.03014,-0.71952 0.07804,-0.86527 0.398259,-1.21165 0.336687,-0.36421 0.433914,-0.7026 0.383139,-1.3335 -0.02672,-0.33196 -0.09438,-0.64976 -0.175763,-0.8255 -0.106321,-0.22961 -0.137628,-0.44796 -0.159321,-1.11125 l -0.027,-0.825503 -0.364462,-0.381 c -0.475729,-0.497315 -0.639355,-0.917075 -0.638314,-1.637507 4.45e-4,-0.286821 0.04005,-0.669081 0.08808,-0.849468 0.133491,-0.501368 0.631088,-1.389133 1.120534,-1.999146 l 0.440589,-0.549121 -0.09473,-0.226714 c -0.108,-0.25848 -0.124562,-0.857856 -0.03257,-1.178619 0.06113,-0.213138 0.05322,-0.226009 -0.47581,-0.774796 -0.295883,-0.306932 -0.67041,-0.762789 -0.83228,-1.013016 -0.5983,-0.924877 -1.315068,-2.654744 -1.612628,-3.891958 -0.06612,-0.274915 -0.129809,-0.509438 -0.141533,-0.521162 -0.01172,-0.01172 -0.305905,0.0089 -0.653737,0.04589 -0.85589,0.09095 -2.030185,0.03019 -2.662524,-0.137772 -1.812955,-0.48155 -3.504971,-1.907784 -3.994958,-3.367428 -0.234385,-0.698222 -0.31796,-1.479493 -0.245659,-2.296454 0.0653,-0.73781 0.110714,-0.836219 0.460469,-0.997743 0.122238,-0.05645 0.33655,-0.175954 0.47625,-0.265559 0.1397,-0.08961 0.541368,-0.310164 0.892594,-0.490128 0.70351,-0.36047 1.334421,-0.859089 1.871167,-1.478811 0.715104,-0.825654 1.51287,-1.82181 2.002499,-2.500486 0.547841,-0.759364 1.592867,-2.02831 1.958237,-2.377832 0.125814,-0.120357 0.228104,-0.263232 0.227312,-0.3175 -7.94e-4,-0.05427 -1.684632,-4.841823 -3.741865,-10.639012 -2.057232,-5.79719 -3.733473,-10.547294 -3.724978,-10.555789 0.0085,-0.0085 7.105183,3.991711 15.770421,8.889345 l 15.754976,8.904788 -4.186306,0.01633 -4.186306,0.01633 v 0.575325 c 0,0.518679 -0.01094,0.571945 -0.111125,0.540985 -0.348363,-0.107654 -1.278968,-0.297783 -1.857375,-0.379474 -2.071802,-0.292608 -5.191952,-0.119334 -7.915312,0.439567 -2.405884,0.493748 -4.433799,1.552092 -5.959439,3.11016 -0.314325,0.321006 -0.885635,1.023552 -1.269579,1.561214 -0.734055,1.027944 -1.639201,2.178987 -2.341664,2.977816 -0.672159,0.764366 -1.260405,1.230526 -2.087882,1.654557 -0.410369,0.210288 -0.746125,0.391028 -0.746125,0.401643 0,0.01062 0.274165,-0.07622 0.609257,-0.192971 0.33509,-0.11675 0.885159,-0.268496 1.222375,-0.337215 1.432731,-0.291965 4.132881,-0.322644 6.264618,-0.07118 2.034878,0.240041 2.60752,0.401598 3.838137,1.082841 0.917283,0.50779 1.356066,0.63503 2.194364,0.636333 0.502709,7.81e-4 0.619394,-0.02177 0.969405,-0.187352 0.218848,-0.103532 0.602818,-0.360726 0.853267,-0.571543 0.540152,-0.454672 0.854143,-0.617126 1.382808,-0.715441 1.130398,-0.21022 2.377018,0.472294 3.49377,1.912811 0.251045,0.323828 0.39,0.450646 0.494173,0.451009 0.17227,5.72e-4 1.138471,-0.362923 1.191149,-0.448157 0.02017,-0.03264 0.389347,-0.05934 0.820392,-0.05934 h 0.78372 l 0.31273,0.365125 c 0.172002,0.200819 0.502229,0.650875 0.733837,1.000125 0.29857,0.450224 0.50042,0.684393 0.693677,0.804742 0.683799,0.425831 1.720445,0.64751 1.804517,0.385883 0.166887,-0.519344 0.383964,-0.713718 0.797546,-0.714137 0.457846,-4.45e-4 0.837057,0.251764 1.075484,0.715349 0.104765,0.203703 0.14101,0.22975 0.243424,0.174938 0.06618,-0.03542 0.201055,-0.228846 0.299717,-0.429837 0.175154,-0.356821 0.179103,-0.388272 0.167467,-1.333813 l -0.01192,-0.968375 h 2.536042 c 1.394823,0 2.536042,0.02211 2.536042,0.04913 0,0.02702 -0.3429,1.762274 -0.762,3.856124 -0.4191,2.09385 -0.762,3.829106 -0.762,3.856125 0,0.02702 0.181214,0.04912 0.402699,0.04912 h 0.402698 l 0.07971,-0.269875 c 0.133279,-0.451232 0.634419,-1.643049 0.865129,-2.057465 0.119596,-0.214824 0.406264,-0.643449 0.63704,-0.9525 0.230776,-0.30905 0.484267,-0.690497 0.563311,-0.84766 0.07905,-0.157162 0.337864,-1.050131 0.575151,-1.984375 l 0.431431,-1.698625 h 0.974599 0.9746 l -0.327236,0.523875 c -0.17998,0.288131 -0.424453,0.676622 -0.543275,0.863313 l -0.216039,0.339437 0.10202,0.307155 c 0.09968,0.300092 0.08149,0.721617 -0.03421,0.793126 -0.02803,0.01733 -0.114012,-0.15793 -0.191061,-0.389461 -0.150504,-0.452263 -0.323051,-0.679449 -0.491415,-0.647025 -0.135418,0.02608 -0.224275,0.218336 -0.390464,0.84483 -0.186824,0.704281 -0.550566,1.417064 -1.085565,2.12725 -0.249943,0.331788 -0.563649,0.819008 -0.697125,1.082712 -0.255922,0.505617 -0.5715,1.249038 -0.5715,1.346309 0,0.175983 1.367099,-1.262281 1.791441,-1.884697 0.07315,-0.107291 0.269656,-0.337949 0.436686,-0.512574 0.178569,-0.186689 0.359768,-0.461392 0.4398,-0.66675 0.151067,-0.387634 0.272262,-0.548878 0.456498,-0.607352 0.16008,-0.05081 0.368075,0.136488 0.368075,0.331444 0,0.0819 0.02251,0.148908 0.05001,0.148908 0.08211,0 0.611452,-0.575745 0.904923,-0.98425 0.150541,-0.20955 0.598775,-0.709612 0.996075,-1.11125 0.536051,-0.541903 0.715494,-0.763006 0.695727,-0.85725 -0.01465,-0.06985 -0.0857,-0.334169 -0.157891,-0.587375 L 94.709,81.455926 h 3.320635 3.320635 l 0.38302,0.466672 c 0.60978,0.742955 1.50454,1.238862 2.67069,1.48019 0.92513,0.191451 2.56077,0.0014 2.94798,-0.342603 0.37857,-0.336296 0.69491,-2.191403 0.55638,-3.262661 -0.17464,-1.350298 -0.61834,-2.379572 -1.1738,-2.722863 -0.19363,-0.11967 -0.29713,-0.127567 -1.46959,-0.112111 l -1.26129,0.01663 -0.30162,-0.209426 c -0.1659,-0.115184 -0.30142,-0.229484 -0.30117,-0.254 7.7e-4,-0.07394 3.18617,-0.0929 3.37763,-0.02011 0.44263,0.168288 0.95409,0.811956 1.29245,1.626536 0.4417,1.06334 1.44133,1.613325 2.94083,1.617992 0.41618,0.0013 1.92129,-0.232406 2.8287,-0.439218 0.28252,-0.06439 0.65397,-0.136936 0.82542,-0.161208 0.17146,-0.02427 0.65724,-0.181265 1.0795,-0.348874 1.23717,-0.491064 1.97265,-0.631576 3.32364,-0.634981 0.42783,-0.0011 0.77787,-0.0172 0.77787,-0.03582 0,-0.01862 -0.0682,-0.168642 -0.15151,-0.333375 -0.30028,-0.593574 -0.43172,-1.146946 -0.46708,-1.966389 -0.0207,-0.480179 -0.0591,-0.777875 -0.1003,-0.777875 -0.0367,0 -0.25036,0.04605 -0.47479,0.102335 -0.39096,0.09805 -0.41507,0.09719 -0.57556,-0.02045 -0.22936,-0.168116 -0.54533,-0.647907 -0.70141,-1.065098 -0.16456,-0.439819 -0.37591,-1.471799 -0.42826,-2.091064 -0.0401,-0.474959 -0.0421,-0.479197 -0.39679,-0.844666 -0.19605,-0.202021 -0.49312,-0.517327 -0.66016,-0.700681 l -0.30372,-0.33337 -0.23939,0.122129 c -0.67881,0.346305 -1.8601,0.448051 -2.67653,0.230535 -0.5616,-0.149623 -1.25288,-0.477075 -1.81307,-0.858829 -0.30437,-0.207421 -0.48162,-0.293148 -0.51027,-0.246788 -0.0832,0.134585 -1.37612,0.694441 -2.02368,0.876271 -1.35614,0.380798 -3.2728,0.587241 -4.19373,0.451705 -0.79337,-0.116764 -0.73025,-0.05346 -0.73025,-0.732363 v -0.593273 l 0.592,-0.593074 c 0.32559,-0.32619 0.66687,-0.721661 0.75839,-0.878823 0.0915,-0.157163 0.24036,-0.600075 0.33076,-0.98425 0.23894,-1.015471 1.1334,-3.857516 1.53884,-4.8895 0.59476,-1.513868 0.89628,-2.037944 1.56364,-2.717786 0.76698,-0.78133 1.32117,-1.190309 2.16962,-1.601144 1.15058,-0.557129 1.94622,-0.665049 3.01471,-0.408913 0.95743,0.229513 2.08368,0.876543 2.75946,1.58531 l 0.37667,0.395055 0.54408,-0.182011 c 0.50033,-0.167373 0.61047,-0.180954 1.36958,-0.168861 1.02899,0.01639 1.83148,0.203827 2.69875,0.63033 0.48736,0.239669 0.69475,0.389348 1.0795,0.779092 1.50738,1.526926 2.02402,4.060435 1.17297,5.751955 -0.12065,0.239797 -0.21247,0.440186 -0.20404,0.445308 0.008,0.0051 0.14391,0.0829 0.30107,0.172842 0.7609,0.435444 1.4743,1.46674 2.32372,3.359159 0.45529,1.014365 0.60534,1.567637 0.60514,2.231357 0,0.825762 -0.28022,1.456442 -0.91982,2.072052 l -0.22364,0.215246 0.24628,0.292754 c 0.70987,0.843832 0.90435,2.103955 0.46208,2.993971 -0.41516,0.83547 -1.41565,1.697068 -2.28099,1.964346 -0.46539,0.143744 -1.08484,0.166758 -1.52247,0.05656 -0.34804,-0.08764 -0.90295,-0.570091 -1.0626,-0.923844 l -0.10933,-0.24228 -1.69606,0.0026 c -1.40856,0.0021 -1.76064,0.02109 -2.07706,0.111807 -0.7521,0.21562 -1.89874,0.70894 -2.77069,1.192041 -0.4882,0.27049 -1.09431,0.58262 -1.34689,0.693622 l -0.45925,0.201824 0.12031,0.550064 c 0.0844,0.385935 0.12151,0.815325 0.1243,1.439064 0.003,0.780756 -0.0155,0.950854 -0.15627,1.397 -0.0881,0.2794 -0.17928,0.551543 -0.20254,0.604763 -0.0324,0.07414 0.20304,0.235176 1.00675,0.688623 0.57697,0.325522 1.04881,0.610591 1.04854,0.633487 -6.4e-4,0.03509 -16.944798,20.023309 -17.164584,20.247979 -0.05873,0.06 -0.175844,0.0474 -0.535447,-0.0576 -0.442731,-0.12928 -0.465052,-0.13008 -0.585754,-0.0208 -0.06902,0.0624 -0.143785,0.17408 -0.166153,0.24806 -0.02237,0.074 -0.08996,0.19165 -0.150204,0.2615 -0.12755,0.14789 -0.637869,1.03517 -0.637869,1.10905 0,0.0276 -0.04192,0.0849 -0.09316,0.12747 -0.05124,0.0425 -0.195305,0.25319 -0.32014,0.46815 -0.45923,0.79075 -0.891576,1.49236 -0.99014,1.60678 -0.05569,0.0647 -0.121003,0.16041 -0.145143,0.2128 -0.06411,0.13912 -0.179336,0.32629 -0.333102,0.54106 -0.179114,0.25019 -0.40431,0.65481 -0.40431,0.72644 0,0.0314 0.264319,0.34188 0.587375,0.68989 0.323056,0.348 0.632531,0.69804 0.68772,0.77786 0.09942,0.14379 0.184943,0.0645 9.286871,-8.60762 5.05259,-4.814008 9.18653,-8.770441 9.18653,-8.792071 0,-0.02163 -0.74371,-0.38496 -1.6527,-0.8074 l -1.6527,-0.768074 0.20808,-0.248297 c 0.11444,-0.136563 1.57522,-1.770195 3.24617,-3.630292 l 3.0381,-3.381996 0.2004,0.117037 c 0.11022,0.06437 2.52212,1.429534 5.35978,3.033697 2.83766,1.604164 5.15937,2.934518 5.15937,2.956343 0,0.04371 -7.5868,5.582421 -7.64668,5.582421 -0.0205,0 -0.50148,-0.216246 -1.0689,-0.480547 -0.92225,-0.429579 -1.04583,-0.471672 -1.16522,-0.396875 -0.0734,0.04602 -5.04046,3.998444 -11.03781,8.783174 l -10.904256,8.6995 0.05231,0.508 c 0.02877,0.2794 0.05011,0.78039 0.04742,1.11331 -0.0061,0.75795 -0.186149,1.21603 -0.594,1.51148 -0.284243,0.2059 -0.805626,0.35954 -1.05706,0.31147 -0.08731,-0.0167 -0.264787,0.008 -0.394395,0.0538 -0.482024,0.17209 -1.130357,0.0833 -1.468353,-0.20112 -0.357957,-0.3012 -0.575294,-1.24042 -0.576528,-2.49147 -5.08e-4,-0.49621 -0.06609,-0.7737 -0.182892,-0.7737 -0.028,0 -0.188817,0.20002 -0.357379,0.4445 -0.168562,0.24447 -0.337532,0.4447 -0.375488,0.44495 -0.03796,0 -0.602947,-0.11938 -1.255534,-0.26586 l -1.186521,-0.26632 0.09805,-0.22626 c 0.160813,-0.37109 0.171832,-0.44851 0.06384,-0.44851 -0.183546,0 -0.958849,0.1949 -2.011596,0.50569 -1.408724,0.41589 -1.697432,0.47103 -2.4765,0.47293 -0.521192,10e-4 -0.770232,-0.0304 -1.140762,-0.14521 -0.524459,-0.16248 -1.09815,-0.43517 -1.510363,-0.71791 -0.148431,-0.10181 -0.269875,-0.16873 -0.269875,-0.14872 0,0.0562 0.413201,0.86354 0.630827,1.23264 0.107069,0.18159 0.194673,0.38297 0.194673,0.44751 0,0.0645 -0.126565,0.25811 -0.281256,0.43016 -0.258552,0.28757 -0.278454,0.33371 -0.246542,0.57163 0.08185,0.61026 -0.655438,2.22945 -1.169532,2.56844 -0.252394,0.16643 -0.705644,0.15353 -0.976155,-0.0278 z m 0.963362,-0.6078 c 0.229206,-0.37979 0.560024,-1.16326 0.6537,-1.54814 l 0.04218,-0.17331 -0.23184,0.15733 c -0.377624,0.25627 -0.68436,0.3116 -1.055073,0.19035 -0.173993,-0.0569 -0.32287,-0.0947 -0.330839,-0.084 -0.246573,0.33112 -0.48785,0.83482 -0.457606,0.95532 0.04805,0.19146 0.456624,0.66687 0.704461,0.81971 0.293594,0.18106 0.406247,0.12812 0.675016,-0.31724 z m 14.071992,-1.32046 c 0.769293,-0.21623 0.938832,-0.4997 0.925036,-1.54662 -0.0087,-0.66225 -0.203513,-2.14659 -0.34262,-2.61089 -0.07318,-0.24424 -0.180785,-0.2777 -0.180785,-0.0562 0,0.0657 -0.135086,0.38546 -0.300192,0.71062 -0.245705,0.48391 -0.409945,0.70251 -0.904875,1.20437 -0.505095,0.51216 -0.656973,0.62846 -0.922183,0.70618 l -0.3175,0.093 0.0054,0.37332 c 0.0029,0.20532 0.05619,0.52618 0.118331,0.71301 0.09764,0.2936 0.148637,0.35619 0.375648,0.46112 0.215694,0.0997 0.34784,0.11451 0.738919,0.0829 0.261937,-0.0212 0.624129,-0.0801 0.804869,-0.13086 z M 80.145,116.58911 c 0.517545,-0.25801 0.516543,-0.25291 0.187931,-0.9557 -0.158865,-0.33975 -0.332164,-0.72319 -0.385107,-0.85207 -0.08089,-0.19692 -0.13506,-0.24109 -0.339206,-0.27655 -0.13362,-0.0232 -0.357245,-0.0705 -0.496945,-0.10518 -0.1397,-0.0346 -0.496888,-0.0871 -0.79375,-0.11651 -0.649422,-0.0644 -1.039535,-0.19057 -1.06994,-0.34598 -0.01861,-0.0951 0.007,-0.10636 0.15875,-0.0697 0.09952,0.0241 0.416684,0.0601 0.704815,0.0801 0.708839,0.0492 1.129844,-0.0927 2.408179,-0.81146 0.928891,-0.5223 1.36488,-0.70261 1.462601,-0.60489 0.07696,0.077 -0.174362,0.2678 -0.802818,0.60961 -0.382162,0.20786 -0.63864,0.38656 -0.637975,0.4445 0.0015,0.13454 0.547494,0.70783 0.864465,0.90776 0.381184,0.24043 0.936054,0.38631 1.303723,0.34276 0.168623,-0.02 0.742495,-0.22144 1.275269,-0.44773 0.899157,-0.38189 2.300934,-0.81531 3.224775,-0.99706 0.634392,-0.12481 1.654225,-0.038 2.37952,0.20247 1.051468,0.34866 1.655917,0.86058 1.941748,1.6445 0.129239,0.35445 0.149175,0.37672 0.304712,0.34043 0.474235,-0.11067 1.009238,-0.57018 1.3583,-1.16664 0.20496,-0.35022 0.490876,-1.09611 0.490876,-1.28057 0,-0.0842 -0.13832,-0.26052 -0.365654,-0.46624 -0.20111,-0.182 -0.494004,-0.50992 -0.650876,-0.7287 -0.156871,-0.21879 -0.515312,-0.71557 -0.796535,-1.10394 -0.281223,-0.38837 -0.788094,-1.1075 -1.126381,-1.59806 -1.019869,-1.47893 -1.50247,-1.96345 -2.453937,-2.46363 -0.48809,-0.25658 -2.051816,-0.93069 -2.158931,-0.93069 -0.02348,0 -0.104834,0.19296 -0.18079,0.42879 -0.44129,1.37016 -2.414049,3.7024 -4.21775,4.9863 -0.843945,0.60074 -2.756996,1.53286 -3.82944,1.86587 -0.566995,0.17606 -0.58307,0.17728 -2.317206,0.17621 -1.880753,-0.001 -1.915213,-0.006 -2.909557,-0.40347 l -0.337807,-0.13505 0.115557,0.20344 c 0.173251,0.30503 0.827693,0.94988 1.258557,1.24013 0.20955,0.14116 0.616594,0.37505 0.904541,0.51976 0.678447,0.34095 0.918198,0.37276 2.206959,0.29287 0.614463,-0.0381 0.84012,-0.0271 1.165477,0.0566 0.760736,0.19576 0.998224,0.49209 0.927049,1.15671 -0.05958,0.5564 9.08e-4,0.62413 0.508429,0.56936 0.21145,-0.0228 0.533781,-0.11628 0.718372,-0.20831 z m -2.450003,-5.62995 c 0.738761,-0.18797 1.493276,-0.53165 2.216163,-1.00946 0.810819,-0.53594 2.044986,-1.63508 2.868385,-2.55456 0.75331,-0.84122 1.364702,-1.39465 2.049787,-1.85544 0.211013,-0.14193 0.464971,-0.37539 0.564352,-0.5188 0.161195,-0.2326 0.176453,-0.29681 0.141399,-0.59507 -0.04893,-0.41633 -0.211117,-0.90239 -0.335571,-1.00568 -0.05515,-0.0458 -0.398562,-0.0948 -0.828964,-0.11828 -0.733997,-0.0401 -0.735022,-0.0404 -0.925653,-0.25374 -0.184814,-0.20684 -0.189573,-0.2278 -0.150654,-0.66352 0.04664,-0.52212 0.343151,-1.50505 0.582864,-1.93216 0.159616,-0.28439 0.165733,-0.33243 0.158919,-1.248273 -0.0047,-0.630498 -0.04935,-1.196782 -0.132094,-1.6751 -0.06875,-0.39743 -0.125007,-0.87783 -0.125007,-1.067557 0,-0.434424 0.215168,-0.90804 0.614126,-1.351776 L 84.683923,94.786221 84.520751,94.2012 c -0.282518,-1.012924 -0.326199,-1.341224 -0.240404,-1.806852 0.102148,-0.554374 0.380482,-1.149174 0.699919,-1.495721 0.257033,-0.278848 0.259165,-0.28493 0.112792,-0.321667 -0.246675,-0.06191 -0.831572,0.06543 -1.234283,0.268712 -0.375224,0.189413 -0.379126,0.194224 -0.417027,0.514244 -0.04978,0.420303 -0.351885,0.979268 -0.792313,1.465956 -0.479644,0.530024 -0.69858,0.653699 -1.811571,1.023343 -0.99107,0.329153 -1.517907,0.56412 -2.011941,0.897319 -0.239812,0.16174 -1.431034,1.131208 -1.960141,1.595247 -0.142805,0.125243 -0.140725,0.112677 0.04123,-0.249104 0.268399,-0.533667 0.546045,-0.862219 1.156825,-1.368923 0.661867,-0.549086 1.385675,-0.925014 2.44484,-1.269789 0.454025,-0.147793 0.954087,-0.333706 1.11125,-0.413141 0.558957,-0.282515 1.270602,-1.196564 1.358226,-1.744529 0.130365,-0.815263 -0.346389,-1.100802 -1.358226,-0.813475 -0.607139,0.172407 -0.860176,0.319291 -1.141721,0.66275 -0.44255,0.539871 -1.634293,1.721902 -2.153145,2.135598 -0.827495,0.659786 -1.711169,1.155622 -2.801134,1.571738 -0.500255,0.190982 -0.555097,0.230035 -0.749483,0.533707 -0.115352,0.180207 -0.545234,0.769979 -0.955292,1.310606 -0.678231,0.89419 -0.765023,0.984835 -0.961071,1.003746 -0.274117,0.02644 -0.640462,-0.07495 -1.398154,-0.386946 -1.032122,-0.425002 -1.641525,-0.809405 -2.3495,-1.482032 -0.390172,-0.370691 -0.444012,-0.399894 -0.98425,-0.533848 -1.538405,-0.381456 -2.97544,-1.063118 -4.279402,-2.029947 -0.290019,-0.215036 -0.541115,-0.377165 -0.557993,-0.360287 -0.01688,0.01688 -0.03207,0.184166 -0.03375,0.371751 -0.0054,0.605618 0.360061,1.081473 1.125709,1.465583 0.447897,0.224701 0.698927,0.280842 1.737499,0.388579 1.064065,0.110382 1.49366,0.271594 1.726145,0.647762 0.175051,0.283239 0.125851,0.330686 -0.159825,0.154129 -0.15306,-0.0946 -0.39505,-0.157221 -0.749465,-0.193954 -0.287879,-0.02984 -0.732962,-0.08833 -0.989073,-0.129994 -0.409003,-0.06653 -0.511861,-0.06175 -0.845443,0.03925 -0.329273,0.0997 -0.410919,0.103897 -0.613844,0.03158 -0.371897,-0.132523 -0.575543,-0.308331 -0.78304,-0.675995 -0.106364,-0.188466 -0.21684,-0.35716 -0.245504,-0.374875 -0.07907,-0.04887 -0.561827,0.533705 -0.937258,1.131046 -0.407649,0.6486 -0.591576,1.144778 -0.634261,1.711034 l -0.03231,0.428625 0.183157,0.0048 c 0.598306,0.01578 1.830136,0.842686 2.257958,1.515726 0.368849,0.580268 0.182689,0.698738 -0.517668,0.329431 -0.83592,-0.44079 -0.953883,-0.364109 -0.953883,0.620067 0,0.58561 0.02946,0.68525 0.168465,0.56988 0.0636,-0.0528 0.127609,-0.0425 0.255141,0.0411 0.28686,0.18796 0.468247,0.42186 0.729775,0.94105 0.236683,0.46987 0.245215,0.50628 0.151941,0.64864 -0.103546,0.15803 -0.122077,0.42272 -0.04357,0.62232 0.03597,0.0914 0.130805,0.12382 0.424162,0.1448 0.741921,0.0531 1.943984,0.48091 2.225654,0.79215 0.05974,0.066 0.13276,0.12002 0.162272,0.12002 0.112566,0 0.04685,-0.23827 -0.105091,-0.381 -0.202456,-0.1902 -0.201113,-0.36158 0.0045,-0.57621 0.148783,-0.15531 0.157372,-0.19223 0.0968,-0.41623 -0.09779,-0.36165 -0.532406,-0.77177 -1.200382,-1.13271 -0.570183,-0.3081 -0.728052,-0.47913 -0.440813,-0.47758 0.194082,10e-4 1.082396,0.39454 1.347939,0.59708 0.417832,0.31869 0.505759,0.15152 0.219128,-0.41661 -0.111961,-0.22192 -0.331619,-0.52627 -0.488128,-0.67633 -0.156509,-0.15005 -0.267135,-0.29026 -0.245835,-0.31156 0.07498,-0.075 0.560836,0.19834 0.749786,0.42181 l 0.191176,0.22609 -0.03638,-1.174757 c -0.02001,-0.646112 -0.05451,-1.267618 -0.07668,-1.381125 -0.03453,-0.176827 -0.02233,-0.206375 0.08523,-0.206375 0.103373,0 0.139226,0.07005 0.203126,0.396875 0.126259,0.645765 0.373938,1.492962 0.52043,1.780142 0.255675,0.50123 0.961521,1.06666 1.563735,1.25267 0.474661,0.14661 1.255987,0.1627 1.951343,0.0402 0.507296,-0.0894 0.508821,-0.0933 0.253668,-0.65825 -0.09268,-0.2052 -0.359628,-0.55304 -0.700263,-0.91248 -0.302769,-0.319477 -0.595484,-0.684607 -0.65048,-0.811394 -0.137561,-0.31714 -0.121979,-1.029226 0.03206,-1.465083 0.142117,-0.402124 0.311579,-0.529128 0.24872,-0.186405 -0.247799,1.351067 -0.215749,1.474916 0.599245,2.315592 0.359442,0.37077 0.560426,0.64402 0.722617,0.98246 0.123576,0.25786 0.224684,0.50763 0.224684,0.55504 0,0.0603 0.05242,0.0755 0.174625,0.0507 0.968589,-0.19716 2.705988,-0.21688 3.730625,-0.0423 0.384175,0.0654 0.708576,0.1093 0.720892,0.0975 0.01232,-0.0118 -0.0504,-0.18051 -0.139362,-0.37484 -0.152684,-0.3335 -0.174591,-0.35331 -0.390671,-0.35331 -0.300734,0 -0.6184,-0.16459 -0.589233,-0.3053 0.01677,-0.0809 0.08049,-0.104 0.257948,-0.0935 0.251017,0.0149 0.29677,-0.043 0.138111,-0.17465 -0.180932,-0.15016 -0.525174,-0.852614 -0.600678,-1.225734 -0.05676,-0.280508 -0.0574,-0.473155 -0.0026,-0.79375 0.102851,-0.601926 0.265503,-1.090093 0.363207,-1.090093 0.108482,0 0.106476,0.01972 -0.05167,0.508 -0.17844,0.550947 -0.193535,1.323408 -0.0335,1.7145 0.168814,0.412554 0.661279,1.079507 0.797091,1.079507 0.21792,0 0.806296,-0.24292 1.721233,-0.710629 0.989069,-0.505605 1.366305,-0.622878 2.003631,-0.622878 0.353525,0 0.418846,0.01893 0.501719,0.145413 0.07509,0.114594 0.08148,0.1954 0.03016,0.38127 -0.09193,0.332924 -0.387877,0.466694 -1.295904,0.585724 -0.465059,0.061 -0.901586,0.16261 -1.192905,0.27776 -0.523704,0.20702 -1.021504,0.32434 -1.376233,0.32434 H 76.4906 l 0.147853,0.36378 c 0.181161,0.44573 0.276002,0.48279 1.092248,0.42671 0.669595,-0.046 1.159396,0.004 1.328435,0.13616 0.109989,0.0859 0.10554,0.0996 -0.08537,0.26459 -0.235832,0.20376 -0.958603,0.49017 -1.544847,0.61218 -0.227013,0.0472 -0.407241,0.1131 -0.400508,0.14634 0.0067,0.0332 0.03235,0.21199 0.05692,0.39723 0.0361,0.2721 0.02782,0.33117 -0.04309,0.30753 -0.09124,-0.0304 -0.207157,-0.53131 -0.155082,-0.67015 0.04298,-0.11459 -0.124387,-0.0996 -0.800204,0.0719 -1.202582,0.30506 -2.167167,0.88523 -3.255332,1.95798 -0.748342,0.73773 -0.761232,0.74471 -1.67847,0.90735 -0.594886,0.10549 -0.887997,0.24828 -0.940703,0.45828 -0.07478,0.29795 0.235037,1.26673 0.615113,1.92344 0.341566,0.59016 0.799705,1.02054 1.743604,1.63796 0.930129,0.60841 1.694669,0.97229 2.3495,1.11826 0.653909,0.14576 1.964479,0.0918 2.774324,-0.11429 z m 0.0096,-12.393318 c -0.0234,-0.06097 0.03306,-0.257483 0.131838,-0.458881 0.674806,-1.375904 1.886496,-2.564302 2.714553,-2.662373 0.456771,-0.0541 0.392561,0.05595 -0.301068,0.515973 -0.728715,0.483298 -1.436417,1.205602 -1.961554,2.002027 -0.457097,0.693235 -0.523076,0.761416 -0.583769,0.603254 z m -10.76166,11.211088 c -0.01009,-0.63673 -0.05603,-0.77654 -0.262346,-0.79842 -0.360521,-0.0382 -0.699327,-0.29262 -0.881989,-0.66223 -0.364957,-0.73847 -0.278346,-0.83459 0.260433,-0.28903 0.187839,0.1902 0.426727,0.38111 0.530862,0.42424 0.169903,0.0704 0.200945,0.0641 0.302418,-0.0612 0.130114,-0.16068 0.08958,-0.39148 -0.128118,-0.72947 -0.251843,-0.391 -0.391719,-0.74694 -0.372208,-0.94714 0.01764,-0.18096 -0.0098,-0.21836 -0.263466,-0.35943 -0.407733,-0.22674 -1.165255,-0.26122 -1.759734,-0.0801 -1.113865,0.33938 -1.50934,0.98421 -1.360245,2.21789 0.05291,0.43779 0.09552,0.57806 0.202239,0.66577 0.157672,0.12959 0.185796,0.13171 0.630173,0.0474 0.480866,-0.0912 1.522616,-0.0875 1.836319,0.006 0.212335,0.0636 0.360832,0.18831 0.721158,0.60558 0.301878,0.34958 0.470045,0.49985 0.502404,0.44894 0.02675,-0.0421 0.0457,-0.26227 0.0421,-0.48928 z m 23.853219,-2.06375 c 0.04385,-0.10478 0.140264,-0.327 0.214249,-0.49383 0.214482,-0.48363 0.196716,-0.52266 -0.307666,-0.67586 -0.811575,-0.24651 -0.773677,-0.25201 -0.965981,0.14009 l -0.169348,0.3453 0.336978,0.33279 c 0.185338,0.18304 0.418836,0.44262 0.518882,0.57687 0.174889,0.23466 0.184048,0.23869 0.23753,0.1046 0.0306,-0.0767 0.09151,-0.22519 0.135356,-0.32996 z m -27.958212,-2.13441 c 0.351499,-0.17932 1.206334,-0.32583 1.605228,-0.27513 0.174625,0.0222 0.580942,0.12669 0.902927,0.2322 0.360584,0.11816 0.645228,0.17683 0.741132,0.15275 0.367476,-0.0922 1.00531,-0.7512 0.896895,-0.92662 -0.08381,-0.13561 -1.225085,-0.7578 -1.651954,-0.9006 -0.863638,-0.2889 -1.950082,-0.17009 -2.611834,0.28563 -0.287633,0.19808 -0.312494,0.23681 -0.356954,0.55604 -0.06557,0.47084 -0.0024,1.00989 0.118387,1.00989 0.05127,0 0.211544,-0.0604 0.356173,-0.13416 z m 23.476982,-4.27909 c 0.284261,-1.1176 0.53245,-2.083546 0.551531,-2.146543 0.03009,-0.09936 -0.0081,-0.09215 -0.288324,0.05436 -0.177659,0.0929 -0.363255,0.153459 -0.412436,0.134587 -0.05612,-0.02154 -0.154885,0.06461 -0.265224,0.231347 -0.09669,0.146112 -0.313235,0.410971 -0.481205,0.588579 -0.287881,0.30439 -0.312845,0.35902 -0.435213,0.95254 l -0.129814,0.62963 0.180151,0.34925 c 0.258149,0.50046 0.720892,1.2835 0.744034,1.25904 0.01081,-0.0114 0.252239,-0.93519 0.5365,-2.05279 z m 13.910224,-6.19496 c 1.33486,-2.097539 2.41679,-3.822672 2.40427,-3.833628 -0.0125,-0.01096 -0.20636,-0.05161 -0.43078,-0.09033 -0.40323,-0.06959 -0.41669,-0.06712 -1.143,0.209286 -0.40423,0.153835 -1.070854,0.435831 -1.481384,0.626658 -0.410529,0.190826 -0.926445,0.380925 -1.146478,0.422442 -0.358934,0.06773 -0.440297,0.06193 -0.791455,-0.05636 -0.215266,-0.07252 -0.428796,-0.131851 -0.474511,-0.131851 -0.04571,0 -0.218293,0.121444 -0.383509,0.269875 -0.27129,0.243729 -0.4116,0.499545 -1.448251,2.640469 -0.631322,1.303826 -1.13127,2.387182 -1.110995,2.407457 0.04806,0.04806 3.412329,1.33805 3.506837,1.344653 0.03972,0.0028 1.164385,-1.711122 2.499256,-3.808661 z m -26.672692,1.171909 c 0.425169,-0.54494 0.764074,-0.998626 0.753124,-1.008192 -0.01095,-0.0096 -0.273125,0.03446 -0.582611,0.09784 -0.309486,0.06338 -0.809549,0.145509 -1.11125,0.182513 -0.624818,0.07663 -2.455251,0.0813 -3.025048,0.0077 -0.20955,-0.02706 -0.389645,-0.0422 -0.400211,-0.03364 -0.06657,0.05394 1.129195,0.85122 1.680542,1.120515 0.639766,0.312482 1.49489,0.610783 1.776544,0.61973 0.102143,0.0032 0.327792,-0.241663 0.90891,-0.986482 z m 17.664104,-1.463856 c 0.792078,-0.411542 0.90434,-0.505596 0.672829,-0.563701 -0.114557,-0.02875 -0.252436,0.02277 -0.521418,0.194834 -0.201125,0.128658 -0.52647,0.304875 -0.72299,0.391595 -0.418682,0.184754 -0.413975,0.18124 -0.359921,0.268702 0.07509,0.121501 0.230063,0.07302 0.9315,-0.29143 z M 70.45307,94.787905 c 1.44397,-0.146071 2.473739,-0.439025 4.277103,-1.216773 2.441439,-1.052935 3.904322,-2.007204 5.434401,-3.544973 1.649111,-1.6574 2.088578,-2.262595 2.476627,-3.410596 0.532458,-1.575221 0.274012,-2.873636 -0.571991,-2.873636 -0.301997,0 -0.323421,0.05736 -0.482729,1.29244 -0.0534,0.41398 -0.137306,0.830465 -0.186462,0.925522 -0.219341,0.42416 -0.899926,0.857977 -1.468219,0.93587 -0.349599,0.04792 -0.374732,0.0053 -0.755256,-1.280582 -0.469071,-1.585113 -0.774485,-2.145199 -1.702512,-3.122171 L 77.035836,82.0317 76.645004,82.227135 c -0.214957,0.107489 -0.54932,0.2908 -0.74303,0.407358 -0.193709,0.116558 -0.579471,0.303237 -0.85725,0.414841 -0.474999,0.190843 -0.525833,0.198737 -0.854301,0.132652 -0.204571,-0.04116 -0.829006,-0.311937 -1.507366,-0.653651 -1.091277,-0.549715 -1.185741,-0.585157 -1.636789,-0.614104 -0.584728,-0.03753 -0.460323,-0.10774 -2.816014,1.589382 -2.018895,1.454484 -2.568846,1.80712 -3.226765,2.069046 -0.602316,0.23979 -1.673531,0.532409 -2.602887,0.711018 -0.378361,0.07272 -0.752223,0.145477 -0.830805,0.16169 -0.116015,0.02394 -0.142875,0.07214 -0.142875,0.25642 0,0.740073 0.686148,3.03687 1.175337,3.934298 0.972094,1.783332 2.487662,3.034789 4.561861,3.766891 1.180578,0.416692 2.012479,0.514055 3.28895,0.384929 z m -0.3851,-1.192159 c -0.119461,-0.02369 -0.228943,-0.07862 -0.243292,-0.12207 -0.01997,-0.06046 0.08315,-0.06998 0.439453,-0.04055 0.323865,0.02675 0.577116,0.009 0.83217,-0.05824 0.455188,-0.120048 1.174762,-0.562963 1.725573,-1.06213 0.419154,-0.379854 0.543255,-0.448433 0.542811,-0.299959 -7.43e-4,0.248077 -0.543233,0.775543 -1.206262,1.172852 -0.529075,0.31704 -1.549846,0.517288 -2.090453,0.410092 z m -0.513047,-1.845351 c -0.192088,-0.06199 -0.445387,-0.162887 -0.562887,-0.224221 -0.507299,-0.26481 -1.194219,-1.099541 -1.035474,-1.258286 0.05051,-0.05051 0.18357,0.04543 0.484532,0.349368 0.657843,0.664348 1.516562,1.003151 2.589956,1.021851 0.270532,0.0047 0.491988,0.02506 0.492125,0.04522 4.44e-4,0.06577 -0.798337,0.185684 -1.213574,0.182186 -0.222985,-0.0019 -0.562591,-0.05413 -0.754678,-0.116118 z m -3.963951,-0.206539 c 0.327586,-0.358412 0.573462,-0.705032 0.753885,-1.062773 0.12611,-0.250049 0.190853,-0.322269 0.242554,-0.270568 0.0517,0.0517 0.02071,0.174822 -0.116106,0.461264 -0.299762,0.627588 -0.570036,0.933555 -0.916883,1.037967 -0.156336,0.04706 -0.15578,0.04454 0.03655,-0.16589 z m -1.356123,-0.308091 c -0.869213,-0.394512 -1.563873,-1.803573 -1.643933,-3.334588 -0.02623,-0.501673 -0.01344,-0.661062 0.06093,-0.759127 0.09278,-0.122344 0.100399,-0.121688 0.529981,0.04559 0.507772,0.197723 1.084665,0.364892 1.928094,0.558713 0.331788,0.07625 0.64764,0.161703 0.701893,0.189905 0.120274,0.06252 0.339973,1.137463 0.336755,1.647671 -0.0068,1.083035 -0.535609,1.775211 -1.356148,1.775211 -0.157162,0 -0.40807,-0.05552 -0.557573,-0.123373 z m 1.061216,-0.433796 c 0.294735,-0.217609 0.415133,-0.558684 0.439259,-1.244378 0.01218,-0.346273 0.0028,-0.810617 -0.02093,-1.031875 l -0.04308,-0.402289 -0.23307,-5.71e-4 c -0.355358,-8.77e-4 -1.510509,-0.283053 -2.027375,-0.495239 -0.253443,-0.104045 -0.470813,-0.170781 -0.483047,-0.148303 -0.06031,0.110813 0.110123,1.231805 0.25169,1.655443 0.477138,1.427822 1.427195,2.176185 2.116553,1.667216 z m 4.671608,0.09013 C 69.046924,90.600908 68.306106,89.871234 67.770239,88.727724 67.634215,88.437456 67.522923,88.17289 67.522923,88.1398 c 0,-0.03309 0.322223,-0.386067 0.716051,-0.784393 0.604383,-0.611286 1.703958,-1.933836 2.500596,-3.007677 0.341543,-0.460389 0.477881,-0.441639 0.905323,0.124503 0.959871,1.27134 1.379621,3.383529 0.933809,4.698944 -0.464362,1.370152 -1.520053,2.065955 -2.611029,1.720925 z m 1.186145,-0.444171 c 0.808223,-0.3882 1.319134,-1.518477 1.2373,-2.737254 -0.04485,-0.667974 -0.226255,-1.404287 -0.488421,-1.982483 -0.192003,-0.423453 -0.727042,-1.224267 -0.817957,-1.224267 -0.0282,0 -0.154484,0.167227 -0.28064,0.371615 -0.471581,0.764021 -1.427741,1.969562 -2.12073,2.673848 -0.801179,0.81424 -0.774133,0.724821 -0.423312,1.399537 0.363029,0.698195 1.036932,1.308365 1.72947,1.565908 0.2964,0.110227 0.863334,0.07765 1.16429,-0.0669 z m 22.640667,3.294086 c 0.874422,-0.421452 1.607242,-0.867223 2.349916,-1.429441 0.344115,-0.260502 0.393951,-0.320604 0.294929,-0.355685 -0.06554,-0.02322 -0.207501,-0.07751 -0.315478,-0.120648 -0.184078,-0.07354 -0.230272,-0.05878 -0.740762,0.236744 -0.538456,0.311713 -3.220298,1.51144 -3.378637,1.51144 -0.149624,0 -0.230715,0.157767 -0.142852,0.277928 0.08431,0.115302 0.590248,0.278395 0.893092,0.287894 0.102309,0.0032 0.554427,-0.174297 1.039792,-0.408232 z m -8.860893,-1.306516 c 0.728273,-0.587269 1.928129,-1.073574 2.648822,-1.073574 h 0.387509 V 90.80588 c 0,-0.305824 0.02809,-0.653976 0.06241,-0.773669 0.03433,-0.119694 0.04883,-0.231211 0.03222,-0.247816 -0.0166,-0.0166 -0.266147,0.01574 -0.554539,0.07187 -0.733368,0.142742 -1.732046,0.650819 -2.186084,1.112169 -0.37685,0.382919 -0.772227,1.111973 -0.827821,1.526455 -0.01948,0.145221 -0.01926,0.264037 5.08e-4,0.264037 0.01975,0 0.216392,-0.145542 0.436986,-0.323426 z m 14.244081,-0.857023 c 0.384175,-0.159656 0.952627,-0.377632 1.263227,-0.484393 l 0.56473,-0.19411 -0.69173,-0.345935 -0.691727,-0.345936 -0.47625,0.233124 c -0.261937,0.128219 -0.718906,0.366398 -1.015486,0.529286 -0.29658,0.16289 -0.722085,0.371695 -0.945566,0.464011 l -0.406329,0.167847 0.532815,0.127006 c 0.842357,0.200789 1.062982,0.182951 1.866316,-0.1509 z m 9.831447,-2.99408 c 1.14482,-0.879029 2.15215,-2.095201 2.77493,-3.350221 0.50616,-1.020006 0.65994,-1.663758 0.61434,-2.57175 -0.0269,-0.536558 -0.18832,-1.57358 -0.25256,-1.622986 -0.008,-0.006 -0.27133,0.02955 -0.58566,0.07899 -0.31432,0.04943 -0.76438,0.07582 -1.00012,0.05863 l -0.42863,-0.03124 -0.001,0.23443 c -0.006,1.305503 -0.96477,2.806137 -2.75108,4.306513 l -0.30743,0.258226 0.41164,0.293743 c 0.99643,0.711038 1.41266,1.548038 1.16618,2.345074 -0.0513,0.165894 -0.0796,0.301625 -0.0629,0.301625 0.0167,0 0.20678,-0.135463 0.42241,-0.301029 z m 15.03221,-9.395446 c 0.21001,-0.104128 0.54551,-0.372232 0.85422,-0.682625 0.75458,-0.758701 0.99969,-1.355161 0.8623,-2.098387 -0.0702,-0.379934 -0.41668,-1.206425 -0.61784,-1.473964 l -0.11784,-0.156717 -0.41343,0.277816 c -0.2274,0.152799 -0.54923,0.422992 -0.7152,0.600427 -0.33562,0.358804 -0.84347,0.655215 -1.3957,0.814609 -0.4541,0.131071 -0.5189,0.238868 -0.51596,0.858316 0.003,0.598073 0.23585,1.209276 0.60673,1.591439 0.46019,0.474196 0.8816,0.552255 1.45272,0.269086 z m -0.73204,-3.892019 c 0.79911,-0.38657 1.41739,-0.825705 1.94802,-1.383594 0.43415,-0.456457 0.5047,-0.565487 0.62756,-0.969982 0.25363,-0.835058 0.0901,-1.56709 -0.731,-3.271468 -0.51345,-1.065823 -0.91247,-1.719203 -1.3211,-2.163231 -0.27108,-0.29455 -0.68233,-0.594231 -0.81547,-0.594231 -0.0389,0 -0.24579,0.158493 -0.45985,0.352206 -0.43264,0.39151 -1.00287,0.699049 -1.44778,0.780823 -0.39539,0.07267 -1.00585,0.537219 -2.1835,1.661595 -0.31432,0.300107 -0.65612,0.610198 -0.75955,0.689091 -0.27437,0.209274 -0.12338,0.278525 0.51256,0.235085 0.70704,-0.0483 0.9981,-0.16629 1.43268,-0.580812 0.31521,-0.300655 0.39937,-0.349191 0.57598,-0.332171 l 0.20683,0.01993 -0.007,0.6985 c -0.007,0.656076 -0.0254,0.752494 -0.3077,1.5875 -0.28223,0.834794 -0.2986,0.919225 -0.2685,1.384706 0.041,0.633633 0.24948,1.061254 0.75036,1.539015 0.38001,0.362474 0.64878,0.509268 1.09705,0.599187 0.3664,0.0735 0.56927,0.02904 1.15054,-0.252152 z m -1.41188,-8.048361 c 0.42289,-0.246954 1.09034,-1.371196 1.29166,-2.175645 0.14418,-0.576123 0.0871,-1.555119 -0.13495,-2.314899 -0.3061,-1.047376 -0.94668,-2.104767 -1.53866,-2.539866 -0.42177,-0.309996 -1.18336,-0.69968 -1.63679,-0.837502 -0.55682,-0.169247 -2.39226,-0.169458 -2.87766,-3.18e-4 -0.26869,0.09362 -0.32854,0.139019 -0.293,0.22225 0.20573,0.481807 0.41035,1.197047 0.4476,1.56454 0.0418,0.411999 0.0786,0.495721 0.5122,1.16355 0.81576,1.256439 1.008,1.760961 0.95829,2.514967 -0.0234,0.355479 -0.0789,0.547062 -0.26532,0.915616 -0.12963,0.256342 -0.2269,0.527805 -0.21615,0.60325 0.0258,0.180974 0.91018,0.621376 1.60833,0.800892 1.075,0.276421 1.76754,0.303283 2.14445,0.08318 z m -10.83965,-0.11291 c 0.12194,-0.03694 1.22689,-1.591208 1.16408,-1.637452 -0.0147,-0.0108 -0.18383,-0.05702 -0.37592,-0.102716 -0.49979,-0.118894 -1.43167,-0.622391 -1.7828,-0.963244 -0.7283,-0.706979 -0.99342,-1.872942 -0.69507,-3.056852 0.19623,-0.778647 0.41895,-1.01494 0.56987,-0.604596 0.52955,1.439773 1.62611,2.426912 3.1145,2.803692 0.57988,0.146794 1.69376,0.188854 2.3468,0.08862 0.52129,-0.08002 0.54212,-0.08988 0.71002,-0.336433 0.4128,-0.606168 0.58886,-1.669167 0.41315,-2.494359 -0.26614,-1.249795 -1.11348,-2.174767 -2.66065,-2.904413 -0.64977,-0.306434 -1.11901,-0.411479 -1.83809,-0.411479 h -0.62108 l -0.61778,0.321245 c -0.33978,0.176684 -0.84563,0.483866 -1.12412,0.682625 -0.52883,0.377435 -1.68825,1.490071 -1.68825,1.620126 0,0.04134 0.0975,0.212342 0.21674,0.380007 0.29379,0.413218 0.38025,0.814703 0.33637,1.561954 -0.0448,0.762404 -0.27287,1.638745 -0.6917,2.657383 -0.31119,0.756863 -0.32213,0.803865 -0.28635,1.230686 0.0443,0.528753 0.20105,0.881317 0.44272,0.995975 0.42006,0.199293 0.95617,0.264354 1.95072,0.236732 0.54134,-0.01503 1.04391,-0.04541 1.11684,-0.0675 z"
       id="path302"
       sodipodi:nodetypes="cssscssssscssscscsssccsscscsscsssssscscsscsssssscssssssssssssscccsssssssssssssssssscsscsssscsssscssssscssssscccsscsssssssssssssssssscccssccsscscsssssscsccsssscsscssscssscscsssssscssssscsscscsssssccssscsccssccscssscscsssssssscsscssssscscscsscscsscscsssccsssssssccsscsscssssccsssscccssccccsssccscsscscscsscscssssssssssscccsssscsccccsssssccssssssscssssssssssssssssssssssssssscssssssssssssccsssscssccsssssscssscscsssssscssssssssccssssccscsssssssscsscssccccscscssssssccscssssccsscsssscssccssccsssscsssscsscssssscssssssscscssccsssssssscssccssssscccsssssssssssssssscssssssssssssssssscssssssssscscssssssssssssscsssssccsssssssssssssssssssssssssssssssssscscsssssssccsscccssscsscsccssccscsssccsscscssscsscsscsssssssssccscssccssssssscsccssssscssscssscsscsssccscssss" /><path
       d="m 76.645752,80.715083 c -0.02328,-0.02328 -0.04233,-2.480733 -0.04233,-5.461 v -5.418666 h 4.22275 4.222751 v 5.462238 5.462238 l -1.381126,-0.01711 -1.381125,-0.01711 -0.01682,-1.889125 -0.01682,-1.889125 h -1.396054 -1.396056 v 1.905 1.905 h -1.386416 c -0.762529,0 -1.405467,-0.01905 -1.42875,-0.04233 z m 5.609167,-7.355416 v -1.17475 h -1.397001 -1.397 v 1.17475 1.17475 h 1.397 1.397001 z m 15.049499,3.2385 v -4.15925 h -1.11125 -1.11125 v -1.3335 -1.3335 h 3.841751 3.841741 v 1.3335 1.3335 h -1.143 -1.143 v 4.15925 4.15925 h -1.587491 -1.587501 z m -11.4935,-1.3335 v -5.42925 h 4.28625 4.28625 v 3.07975 3.07975 h -0.41275 c -0.227012,0 -0.41275,0.01176 -0.41275,0.02614 0,0.01438 0.428625,1.061785 0.9525,2.327573 0.523875,1.265789 0.9525,2.311733 0.9525,2.32432 0,0.01259 -0.835536,0.01531 -1.856748,0.0061 l -1.856747,-0.01683 -0.773437,-2.032 -0.773435,-2.032 -0.513067,-0.01844 -0.513066,-0.01844 v 2.066318 2.066318 h -1.68275 -1.68275 z m 5.524501,-2.0955 v -1.04775 h -1.0795 -1.0795 v 1.04775 1.04775 h 1.0795 1.0795 z"
       style="fill:#ff0000;stroke-width:0.0635"
       id="path615" /></g></svg>
