<?xml version="1.0" encoding="UTF-8" standalone="no"?>
<!-- Created with Inkscape (http://www.inkscape.org/) -->

<svg
   version="1.1"
   id="svg3651"
   width="98.879997"
   height="41.529362"
   viewBox="0 0 98.879997 41.529362"
   sodipodi:docname="arttitle.svg"
   inkscape:version="1.1 (c68e22c387, 2021-05-23)"
   xmlns:inkscape="http://www.inkscape.org/namespaces/inkscape"
   xmlns:sodipodi="http://sodipodi.sourceforge.net/DTD/sodipodi-0.dtd"
   xmlns="http://www.w3.org/2000/svg"
   xmlns:svg="http://www.w3.org/2000/svg">
  <defs
     id="defs3655" />
  <sodipodi:namedview
     id="namedview3653"
     pagecolor="#ffffff"
     bordercolor="#666666"
     borderopacity="1.0"
     inkscape:pageshadow="2"
     inkscape:pageopacity="0.0"
     inkscape:pagecheckerboard="0"
     showgrid="false"
     fit-margin-top="0"
     fit-margin-left="0"
     fit-margin-right="0"
     fit-margin-bottom="0"
     inkscape:zoom="6.8353656"
     inkscape:cx="37.379127"
     inkscape:cy="11.484389"
     inkscape:window-width="1920"
     inkscape:window-height="1001"
     inkscape:window-x="-9"
     inkscape:window-y="-9"
     inkscape:window-maximized="1"
     inkscape:current-layer="g3657" />
  <g
     inkscape:groupmode="layer"
     inkscape:label="Image"
     id="g3657"
     transform="translate(-110.81379,-88.584827)">
    <path
       style="fill:#000000;stroke-width:0.24"
       d="m 110.97379,129.94483 c -0.088,-0.088 -0.16,-9.376 -0.16,-20.64 V 88.824827 h 15.96 15.96 v 20.644683 20.64468 l -5.22,-0.0647 -5.22,-0.0647 -0.0636,-7.14 -0.0636,-7.14 h -5.27637 -5.27643 v 7.2 7.2 h -5.24 c -2.882,0 -5.312,-0.072 -5.4,-0.16 z m 21.2,-27.8 v -4.440003 h -5.28 -5.28 v 4.440003 4.44 h 5.28 5.28 z"
       id="path3736"
       sodipodi:nodetypes="cscccccccccccccsccccccccccc" />
    <path
       style="fill:#000000;stroke-width:0.24"
       d="M 189.05379,114.38483 V 98.664827 h -4.2 -4.2 v -5.04 -5.04 h 14.52 14.52 v 5.04 5.04 h -4.32 -4.32 v 15.720003 15.72 h -6 -6 z"
       id="path7925"
       sodipodi:nodetypes="ccccccccccccccccc" />
    <path
       style="fill:#000000;stroke-width:0.24"
       d="M 145.61379,109.34483 V 88.824827 h 16.2 16.2 v 11.640003 11.64 h -1.56 c -0.858,0 -1.56,0.0445 -1.56,0.0988 0,0.0543 1.62,4.01305 3.6,8.79713 1.98,4.78408 3.6,8.73726 3.6,8.78483 0,0.0476 -3.15793,0.0579 -7.01763,0.0229 l -7.01763,-0.0636 -2.92322,-7.68 -2.92322,-7.68 -1.93915,-0.0697 -1.93915,-0.0697 v 7.8097 7.80971 h -6.36 -6.36 z m 20.88,-7.92 v -3.960003 h -4.08 -4.08 v 3.960003 3.96 h 4.08 4.08 z"
       id="path8064"
       sodipodi:nodetypes="ccccccsssssccccccccccccccccccc" />
  </g>
</svg>
