<?xml version="1.0" encoding="UTF-8" standalone="no"?>
<!-- Created with Inkscape (http://www.inkscape.org/) -->

<svg
   width="88.900002mm"
   height="88.900002mm"
   viewBox="0 0 88.900002 88.900002"
   version="1.1"
   id="svg5"
   xml:space="preserve"
   sodipodi:docname="blogtile.svg"
   inkscape:version="1.2.2 (732a01da63, 2022-12-09)"
   xmlns:inkscape="http://www.inkscape.org/namespaces/inkscape"
   xmlns:sodipodi="http://sodipodi.sourceforge.net/DTD/sodipodi-0.dtd"
   xmlns="http://www.w3.org/2000/svg"
   xmlns:svg="http://www.w3.org/2000/svg"><sodipodi:namedview
     id="namedview7"
     pagecolor="#ffffff"
     bordercolor="#000000"
     borderopacity="0.25"
     inkscape:showpageshadow="2"
     inkscape:pageopacity="0.0"
     inkscape:pagecheckerboard="0"
     inkscape:deskcolor="#d1d1d1"
     inkscape:document-units="mm"
     showgrid="false"
     inkscape:zoom="2.1089995"
     inkscape:cx="222.6174"
     inkscape:cy="165.00715"
     inkscape:window-width="1920"
     inkscape:window-height="1017"
     inkscape:window-x="1912"
     inkscape:window-y="-8"
     inkscape:window-maximized="1"
     inkscape:current-layer="layer1" /><defs
     id="defs2" /><g
     inkscape:label="Layer 1"
     inkscape:groupmode="layer"
     id="layer1"
     transform="translate(-44.218422,-36.370926)"><path
       style="fill:#000000;stroke-width:0.0635"
       d="m 66.379922,121.39374 c -0.401637,-0.0299 -1.64465,-0.0826 -2.76225,-0.11711 -2.031288,-0.0627 -2.427109,-0.10724 -3.177557,-0.35783 -0.447646,-0.14948 -1.474806,-0.69398 -1.8621,-0.98711 -0.180768,-0.13682 -0.384169,-0.24876 -0.452002,-0.24876 -0.06783,0 -0.272124,-0.12145 -0.45398,-0.26988 -0.242784,-0.19816 -0.355502,-0.34581 -0.424183,-0.55562 -0.05144,-0.15716 -0.141805,-0.35719 -0.2008,-0.4445 -0.156577,-0.23173 -0.485343,-1.09763 -0.638911,-1.68275 -0.07409,-0.2823 -0.194892,-0.57411 -0.271897,-0.65678 -0.07621,-0.0818 -0.544964,-0.3894 -1.041667,-0.68348 -0.496704,-0.29409 -0.932473,-0.58959 -0.968375,-0.65667 -0.0359,-0.0671 -0.06616,-0.28816 -0.06724,-0.49128 -0.0059,-1.10905 -0.249324,-1.8114 -0.920346,-2.65529 -0.414983,-0.5219 -0.807188,-1.28125 -0.983831,-1.9048 -0.233976,-0.82594 -0.151388,-2.28676 0.196203,-3.4704 0.155582,-0.52979 0.672012,-1.79058 1.016372,-2.48131 0.455105,-0.91287 1.1821,-1.93822 1.768301,-2.49399 0.907532,-0.86043 1.111619,-1.07831 1.236432,-1.319971 l 0.120419,-0.233163 -0.249609,-0.271184 c -0.566359,-0.615315 -0.877313,-1.193645 -1.191244,-2.215551 -0.122097,-0.397449 -0.315678,-0.979809 -0.430179,-1.294134 -0.200874,-0.551427 -0.208149,-0.604953 -0.207135,-1.524 7.88e-4,-0.714953 0.0366,-1.142537 0.14361,-1.7145 0.390538,-2.087494 0.94514,-3.282668 1.955118,-4.2133 l 0.47667,-0.439222 -0.03945,-0.531239 -0.03945,-0.531239 2.206336,-1.36525 c 1.213485,-0.750887 2.279609,-1.42429 2.369166,-1.49645 0.129437,-0.104294 2.037923,-1.30774 2.409934,-1.519649 0.07471,-0.04255 0.08436,0.35765 0.0635,2.631551 l -0.02461,2.681737 0.60325,0.278358 c 0.391498,0.180648 0.608014,0.251126 0.61682,0.20078 0.0075,-0.04267 0.04316,-1.56347 0.07933,-3.379562 0.03617,-1.816091 0.09035,-3.310181 0.120406,-3.320199 0.03005,-0.01002 0.765882,-0.463397 1.635171,-1.007508 0.869288,-0.544111 1.616243,-1.003322 1.6599,-1.020469 0.139235,-0.05469 0.09232,1.664764 -0.171802,6.297075 l -0.249621,4.377915 0.432486,0.455296 c 0.345831,0.36407 0.447537,0.51803 0.507598,0.76839 0.147177,0.613505 -0.10831,1.229527 -0.751226,1.811333 l -0.377337,0.34147 -0.448395,7.967345 c -0.246617,4.38203 -0.455861,8.15082 -0.464987,8.37508 l -0.01659,0.40775 0.5715,0.14632 c 0.733672,0.18782 0.836592,0.18597 2.041064,-0.0368 0.553815,-0.10242 1.114092,-0.20373 1.245061,-0.22513 0.263883,-0.0431 0.263203,-0.0418 0.176896,-0.34273 -0.05049,-0.17606 -0.04111,-0.23165 0.05355,-0.31708 0.09901,-0.0894 0.352028,-2.06139 1.842348,-14.359343 0.950166,-7.840662 1.726171,-14.277181 1.724454,-14.303375 -0.0017,-0.02619 2.940106,-0.04762 6.537381,-0.04762 3.771032,0 6.5405,0.02389 6.5405,0.05642 0,0.03103 -1.71468,6.565003 -3.8104,14.519933 -2.095721,7.954925 -3.800179,14.473735 -3.787686,14.486225 0.04335,0.0434 1.131537,0.15813 1.166615,0.12305 0.0194,-0.0194 1.891025,-6.58685 4.159176,-14.594334 2.26815,-8.007493 4.131447,-14.566615 4.140659,-14.575827 0.0092,-0.0092 1.328864,-0.0093 2.932559,-2.54e-4 l 2.915807,0.01653 -4.744921,13.681402 c -2.609707,7.524773 -4.738878,13.686863 -4.731491,13.693533 0.0074,0.007 0.991288,-0.10634 2.186445,-0.25115 1.586684,-0.19224 2.196721,-0.28898 2.260877,-0.35853 0.108346,-0.11746 1.63036,-3.81548 1.63036,-3.96127 0,-0.0763 -0.03915,-0.0962 -0.142875,-0.0727 -0.391891,0.0891 -2.426116,0.40662 -2.450249,0.38249 -0.025,-0.025 3.642811,-9.87868 3.936644,-10.575887 l 0.121836,-0.289092 4.648947,-1.324432 c 2.556923,-0.728438 4.698953,-1.349446 4.760073,-1.380018 0.0711,-0.03556 0.11112,-0.0312 0.11112,0.01208 0,0.03722 -2.38601,5.051156 -5.302246,11.142089 -2.916237,6.09094 -5.30225,11.08801 -5.30225,11.10462 0,0.0166 0.05289,0.0164 0.117534,-6.3e-4 0.181468,-0.0474 0.309258,0.13071 0.4765,0.66434 0.324188,1.03441 0.371066,2.04521 0.255127,5.50108 l -0.068,2.02704 -0.173032,0.14883 c -0.132627,0.11408 -0.242367,0.14693 -0.469953,0.14068 -0.163307,-0.005 -0.377363,0.0236 -0.475681,0.0625 -0.245686,0.0971 -1.258185,0.0849 -1.752922,-0.0212 -0.325635,-0.0698 -0.434259,-0.0716 -0.53975,-0.009 -0.103496,0.0614 -0.709069,0.0651 -2.799069,0.0172 -2.058628,-0.0472 -2.96044,-0.0422 -3.953391,0.0218 -1.076038,0.0694 -1.667904,0.0682 -3.6195,-0.007 -1.28321,-0.0494 -2.747447,-0.0863 -3.253859,-0.082 -1.075814,0.009 -7.145712,0.13643 -8.35025,0.17516 -0.454025,0.0146 -1.154113,0.002 -1.555751,-0.0279 z m 18.415001,-1.1373 c 0.296862,-0.0288 0.885453,-0.0893 1.307978,-0.13433 0.679,-0.0724 0.897517,-0.0684 1.88138,0.0343 0.963038,0.10056 1.645496,0.11028 1.731108,0.0247 0.04568,-0.0457 -0.143981,-1.80204 -0.223114,-2.06616 -0.04307,-0.14377 -0.183872,-0.39986 -0.312885,-0.5691 -0.273685,-0.35901 -0.23817,-0.35616 -1.330938,-0.10667 -1.075234,0.24548 -1.31275,0.21379 -4.736279,-0.63207 -0.803485,-0.19851 -0.857358,-0.20344 -2.020067,-0.18498 -1.591715,0.0253 -3.426866,-0.19351 -5.820789,-0.69396 -0.332554,-0.0695 -1.05173,-0.15263 -1.598168,-0.18471 -1.481283,-0.087 -2.085752,-0.16902 -3.100288,-0.42097 -0.813642,-0.20206 -0.977487,-0.22367 -1.431422,-0.18877 -0.281936,0.0217 -0.648688,0.0858 -0.815005,0.14243 -0.366522,0.12489 -0.453244,0.0682 -0.212596,-0.1389 l 0.178167,-0.15334 h -0.91038 -0.91038 l -0.696536,0.35893 c -1.179152,0.60763 -1.330399,0.73323 -2.262356,1.87882 -0.509608,0.62643 -1.079806,1.13494 -1.691111,1.50818 l -0.335931,0.20511 0.484246,0.28346 c 0.266336,0.15591 0.59084,0.32108 0.721121,0.36704 0.369045,0.13021 1.731961,0.23629 3.204136,0.24941 1.190889,0.0106 1.403263,0.0288 1.882109,0.16118 0.659911,0.18245 1.734884,0.19343 3.01625,0.0308 0.82066,-0.10416 1.237765,-0.10245 3.164141,0.0129 l 0.687642,0.0412 0.311656,-0.30697 0.311656,-0.30696 0.175452,0.16376 c 0.163489,0.15259 0.370514,0.23953 0.792581,0.33283 0.148051,0.0327 0.187622,0.009 0.277951,-0.16892 0.145168,-0.28543 0.1478,-0.28666 0.269091,-0.12586 0.154332,0.2046 0.664053,0.27209 1.545335,0.2046 0.742496,-0.0569 1.645992,0.0188 3.767495,0.31557 0.898482,0.12567 1.853574,0.14951 2.69875,0.0674 z m 8.41335,-3.33576 c 0.03678,-1.45367 0.02716,-1.89383 -0.05277,-2.413 -0.104817,-0.68081 -0.343492,-1.43512 -0.466881,-1.47554 -0.04708,-0.0154 -0.03159,0.0665 0.04109,0.21739 0.343214,0.71246 0.435105,2.59738 0.233144,4.7824 -0.136675,1.47869 -0.135456,1.76243 0.0077,1.79039 0.09692,0.0189 0.116341,-0.0515 0.151929,-0.55097 0.02244,-0.31497 0.06105,-1.37277 0.0858,-2.35067 z m -1.180921,2.66155 c 0.258323,-0.048 0.480475,-0.098 0.49367,-0.11123 0.01319,-0.0132 0.03871,-0.22095 0.0567,-0.46166 0.01799,-0.24072 0.09267,-1.08214 0.165955,-1.86983 0.127718,-1.37271 0.128993,-1.46964 0.0307,-2.33415 -0.06595,-0.58002 -0.154083,-1.03212 -0.246917,-1.26658 l -0.144363,-0.3646 -0.329611,-0.0191 c -0.237122,-0.0137 -0.401928,0.0178 -0.587333,0.11241 -0.301619,0.15387 -0.321705,0.26663 -0.116733,0.6553 0.122569,0.23242 0.140652,0.36276 0.138406,0.9976 -0.0023,0.63984 -0.02456,0.78921 -0.180105,1.2065 -0.206019,0.5527 -0.261372,0.635 -0.427095,0.635 -0.187172,0 -0.560106,0.21555 -0.907065,0.52426 l -0.31412,0.2795 0.134244,0.31249 c 0.07384,0.17188 0.152028,0.52681 0.173761,0.78875 0.02173,0.26194 0.05423,0.59637 0.0722,0.74318 l 0.03268,0.26694 0.393425,0.0236 c 0.489921,0.0294 0.955444,-0.006 1.561604,-0.11846 z m -31.500626,-0.82402 c 1.049909,-0.35048 1.887955,-0.9519 2.654619,-1.90509 0.265867,-0.33055 0.650341,-0.7405 0.854387,-0.911 l 0.370993,-0.30999 -0.997776,-0.0225 c -1.180476,-0.0266 -1.371831,-0.0956 -1.541805,-0.5557 -0.175603,-0.47538 -0.393524,-0.68551 -0.860551,-0.82976 -0.230201,-0.0711 -0.483303,-0.12927 -0.562447,-0.12927 -0.11236,0 -2.536999,1.02672 -2.625993,1.11198 -0.01156,0.0111 0.0154,0.0869 0.05991,0.16846 0.05626,0.10309 0.07609,0.39472 0.06505,0.95653 -0.01738,0.88476 0.06336,1.19957 0.382918,1.49297 0.234323,0.21514 1.533259,1.08484 1.629193,1.09082 0.04623,0.003 0.303405,-0.068 0.5715,-0.15748 z m 24.204697,-1.9585 c 0,-0.0141 -0.121444,-0.0971 -0.269875,-0.18428 -0.360639,-0.2119 -1.182749,-0.86082 -1.730375,-1.36586 -0.244475,-0.22546 -0.830263,-0.66816 -1.30175,-0.98377 -0.471488,-0.31561 -1.029285,-0.73857 -1.23955,-0.93992 l -0.3823,-0.36609 -0.495726,0.34069 c -0.615117,0.42274 -2.25462,1.25688 -3.184674,1.62027 -0.384175,0.15011 -0.721837,0.29336 -0.750361,0.31833 -0.02852,0.025 0.01434,0.12067 0.09525,0.21263 0.117354,0.13339 0.265513,0.19116 0.732457,0.28558 0.572178,0.11571 0.587774,0.11569 0.693278,-8.9e-4 0.110815,-0.12244 0.7457,-0.56197 0.811762,-0.56197 0.07804,0 0.03224,0.19626 -0.05348,0.22916 -0.100019,0.0384 -0.320832,0.46033 -0.268359,0.5128 0.01823,0.0182 0.256418,0.0582 0.529302,0.0887 0.272884,0.0306 0.79619,0.10289 1.162903,0.16071 0.515956,0.0814 0.91066,0.097 1.745228,0.0693 0.912042,-0.0303 1.195341,-0.0158 1.835729,0.0943 0.565748,0.0973 1.793917,0.39012 2.054668,0.48994 0.0087,0.003 0.01588,-0.005 0.01588,-0.0196 z m -11.883886,-1.66179 c 0.04097,-0.0899 0.05816,-0.18995 0.0382,-0.22225 -0.01997,-0.0323 -0.01718,-0.0897 0.0062,-0.12752 0.02528,-0.0409 0.08974,0.009 0.1591,0.12295 0.184782,0.30385 0.331491,0.35228 0.698197,0.23048 0.172806,-0.0574 0.314192,-0.11567 0.314192,-0.1295 0,-0.0138 -0.214705,-0.18673 -0.477122,-0.38424 l -0.477123,-0.35911 -1.253252,0.0725 c -0.689289,0.0399 -1.617584,0.0722 -2.062878,0.0718 -0.445294,-6.4e-4 -0.809009,0.0208 -0.808256,0.047 0.0016,0.0559 2.227425,0.76563 2.506881,0.79936 0.104775,0.0126 0.435945,0.0273 0.735932,0.0325 0.52845,0.009 0.547752,0.004 0.619932,-0.154 z m 2.926911,-0.38955 c 0.900429,-0.33414 2.295613,-1.01859 3.051475,-1.49699 0.784982,-0.49683 1.890069,-1.36933 2.764743,-2.18284 l 0.625369,-0.58164 -0.282181,-0.0371 c -0.1552,-0.0204 -0.982269,-0.1242 -1.837931,-0.23068 -0.855663,-0.10649 -1.721087,-0.23631 -1.923166,-0.28849 -0.349783,-0.0903 -0.562353,-0.0718 -0.447742,0.039 0.06568,0.0635 0.825108,0.21891 1.545408,0.31623 1.556121,0.21026 1.658739,0.24229 1.688191,0.52682 0.02177,0.21037 -0.01919,0.25562 -0.735838,0.81279 -1.231664,0.95758 -3.148587,2.19579 -3.975751,2.56807 -0.55427,0.24946 -1.229479,0.47286 -1.429206,0.47286 -0.09672,0 -0.395324,-0.10001 -0.663556,-0.22225 -0.268233,-0.12224 -0.547636,-0.22225 -0.620897,-0.22225 -0.126129,0 -0.124865,0.006 0.0238,0.11024 0.08635,0.0606 0.385605,0.2474 0.665005,0.41502 0.590338,0.35417 0.601012,0.35419 1.552275,0.001 z m -19.459276,-0.75614 c 0.36005,-0.0793 0.840887,-0.1161 1.651,-0.1264 0.62865,-0.008 1.248116,-0.0169 1.37659,-0.0197 0.322132,-0.007 0.43316,-0.13908 0.43316,-0.51473 0,-0.31419 -0.08237,-0.58175 -0.236227,-0.76733 -0.07756,-0.0935 -0.120527,-0.0918 -0.511596,0.0209 -0.439403,0.12667 -1.289153,0.18162 -1.496451,0.0968 -0.108925,-0.0446 -0.113893,-0.10868 -0.07178,-0.92601 0.06222,-1.20757 -0.05377,-1.5996 -0.804688,-2.71979 -0.398647,-0.59469 -0.551497,-0.96521 -0.429326,-1.04072 0.12751,-0.0788 0.340607,-0.0137 0.914821,0.27945 0.626247,0.31973 1.170968,0.8398 1.301565,1.24267 0.05061,0.15613 0.218387,0.41657 0.378884,0.58814 0.242123,0.25883 0.374589,0.33748 0.830791,0.49324 0.836169,0.28551 0.772117,0.2985 1.690673,-0.34273 1.440563,-1.00563 2.179837,-1.9009 2.179837,-2.6398 0,-0.27504 -0.01902,-0.31153 -0.238125,-0.45668 -0.5839,-0.38685 -1.125002,-0.92877 -1.668319,-1.67085 -0.3133,-0.42791 -0.612593,-0.79451 -0.665096,-0.81466 -0.09957,-0.0382 -0.134945,-0.23111 -0.04238,-0.23111 0.05374,0 0.452687,0.41524 1.375145,1.43131 0.279112,0.30744 0.714213,0.71188 0.966891,0.89874 0.252678,0.18687 0.492324,0.40125 0.532548,0.47641 0.04537,0.0848 0.05936,0.28413 0.03685,0.52517 l -0.03628,0.38853 1.002672,0.96115 c 0.928307,0.88987 1.029296,0.96811 1.361657,1.0549 0.249438,0.0651 0.34587,0.0714 0.316005,0.0204 -0.193208,-0.32974 -0.833455,-1.22835 -0.908866,-1.27562 -0.052,-0.0326 -0.225392,-0.18166 -0.385317,-0.33126 -0.230479,-0.21558 -0.339746,-0.39571 -0.526943,-0.86868 -0.129894,-0.32818 -0.331076,-0.70776 -0.447072,-0.8435 -0.224811,-0.26307 -0.811892,-1.15568 -1.369139,-2.08167 -0.186965,-0.31068 -0.521816,-0.75768 -0.744114,-0.99332 -0.443461,-0.4701 -0.447724,-0.47179 -1.417621,-0.56216 -0.336707,-0.0314 -0.76668,-0.12985 -1.143,-0.26178 -0.568523,-0.19933 -0.654425,-0.21179 -1.49225,-0.21643 -0.48895,-0.003 -1.303337,0.0204 -1.80975,0.0515 -0.862271,0.0528 -1.290702,0.0217 -1.661299,-0.12045 -0.228842,-0.0878 -1.521661,2.37312 -1.742425,3.31678 -0.08559,0.36585 -0.09005,0.54332 -0.02981,1.18537 0.135728,1.44649 0.474287,2.56098 0.983372,3.2371 0.364097,0.48358 0.607119,0.67872 1.236082,0.99257 0.283567,0.14151 0.515577,0.28168 0.515577,0.31151 0,0.0298 -0.113401,0.27912 -0.252001,0.55398 -0.290408,0.5759 -0.424732,1.04823 -0.483949,1.7017 l -0.04186,0.46199 0.531781,-0.17652 c 0.292481,-0.0971 0.760382,-0.22686 1.039782,-0.28838 z m 15.113001,-0.30622 c 1.461254,-0.19537 1.69253,-0.19822 2.737539,-0.0338 1.375695,0.21644 1.399507,0.21788 1.585367,0.0961 0.163969,-0.10744 0.166672,-0.12021 0.123336,-0.58266 -0.0291,-0.31058 -0.0206,-0.50137 0.02477,-0.55605 0.03799,-0.0458 0.08728,-0.21607 0.109538,-0.37844 0.03725,-0.27178 0.0297,-0.29522 -0.09517,-0.29522 -0.0746,0 -0.135631,-0.0286 -0.135631,-0.0635 0,-0.0349 0.03572,-0.0636 0.07937,-0.0637 0.04366,0 0.171138,-0.0562 0.283293,-0.12457 0.189747,-0.1157 0.199244,-0.13775 0.136663,-0.31727 -0.07933,-0.22756 -0.09263,-0.23013 -0.340581,-0.0659 -0.104775,0.0694 -0.261938,0.12624 -0.34925,0.12634 -0.186384,0 -0.559887,-0.2127 -0.612177,-0.34895 -0.02003,-0.0522 -0.07735,-0.0949 -0.127397,-0.0949 -0.164739,0 -0.6069,0.26114 -0.904571,0.53423 -0.538902,0.49441 -0.675422,0.56403 -1.010328,0.51518 -0.717403,-0.10464 -2.509082,-0.49924 -3.886027,-0.85587 -0.820738,-0.21257 -1.963738,-0.50274 -2.54,-0.64482 l -1.047751,-0.25835 -0.878394,-0.91518 c -0.483117,-0.50336 -0.897454,-0.91486 -0.92075,-0.91444 -0.02329,6.4e-4 -0.138818,0.17901 -0.256716,0.39688 -0.117898,0.21786 -0.378001,0.62472 -0.578007,0.90412 -0.474312,0.66259 -0.699883,1.02583 -0.699883,1.12701 0,0.23979 1.421106,1.58512 2.12725,2.01382 0.1397,0.0848 0.27709,0.19191 0.30531,0.23801 0.07996,0.1306 0.742672,0.44304 1.180204,0.55641 0.73962,0.19166 1.116284,0.2175 2.800737,0.19218 1.334236,-0.02 1.932628,-0.0587 2.88925,-0.1866 z m 6.189648,-0.91108 c 0.400756,-0.26069 1.136934,-0.80232 1.63595,-1.20364 0.866101,-0.69652 1.027627,-0.84186 0.935635,-0.84186 -0.173753,0 -1.695415,-0.2084 -1.871483,-0.25631 -0.3976,-0.1082 -0.546126,-0.0679 -1.192745,0.32383 l -0.63559,0.38503 0.03182,0.2372 c 0.02562,0.19102 -3.81e-4,0.27547 -0.133582,0.43377 -0.09097,0.1081 -0.165398,0.26056 -0.165398,0.33877 0,0.0782 -0.03222,0.24976 -0.0716,0.38119 -0.04439,0.14818 -0.05463,0.39744 -0.02693,0.65606 l 0.04467,0.4171 0.360304,-0.19858 c 0.198167,-0.10922 0.688196,-0.41188 1.088952,-0.67256 z m 3.211972,-0.5708 c -0.01348,-0.0135 -0.183399,0.10491 -0.377598,0.26308 l -0.353086,0.28759 0.236531,0.19571 0.236533,0.19569 0.141065,-0.45878 c 0.07759,-0.25233 0.130035,-0.46981 0.116555,-0.48329 z m -8.763934,-1.02487 c -0.389868,-0.77417 -0.497981,-1.09306 -0.402744,-1.1879 0.120208,-0.1197 3.086759,-1.12646 3.811501,-1.2935 0.339594,-0.0783 0.6599,-0.12602 0.711793,-0.1061 0.05189,0.0199 0.167967,0.18147 0.257943,0.35903 0.08998,0.17756 0.192702,0.30485 0.228282,0.28286 0.04074,-0.0252 0.02348,-0.10245 -0.04665,-0.20873 -0.06123,-0.0928 -0.17953,-0.29019 -0.262879,-0.43862 -0.08355,-0.14878 -0.198969,-0.26985 -0.257239,-0.26983 -0.22382,0 -1.31758,0.33738 -2.979524,0.91879 -0.951425,0.33284 -1.759032,0.60517 -1.794684,0.60517 -0.03565,0 -0.01116,0.10715 0.05443,0.23812 0.06559,0.13097 0.227193,0.51908 0.359125,0.86247 0.171087,0.44531 0.278386,0.63894 0.374167,0.67523 0.07386,0.028 0.143268,0.0429 0.154241,0.033 0.01097,-0.01 -0.08252,-0.22132 -0.207764,-0.47002 z m -0.351936,0.35148 c 0,-0.0681 -0.3343,-0.90434 -0.380471,-0.95175 -0.05482,-0.0563 -2.085835,0.26094 -2.177367,0.34009 -0.02727,0.0236 0.487077,0.16484 1.143,0.31391 0.655923,0.14907 1.221163,0.28023 1.256088,0.29147 0.0957,0.0308 0.15875,0.0333 0.15875,0.006 z m 1.475772,-0.25923 c 0.235413,-0.0499 0.681868,-0.19226 0.992123,-0.31639 0.310256,-0.12413 0.617708,-0.22586 0.683227,-0.22607 0.09146,0 1.114669,-0.81864 1.511696,-1.20903 0.08951,-0.088 -0.215094,-0.69559 -0.348721,-0.69559 -0.315851,0 -1.739597,0.43959 -3.917222,1.20946 -0.114906,0.0406 -0.206375,0.11741 -0.206375,0.17324 0,0.0551 0.115116,0.3381 0.255814,0.62879 0.291178,0.60157 0.276192,0.59523 1.029458,0.43559 z m 2.736829,-0.30283 c 0.06427,-0.0144 0.221158,-0.1098 0.348644,-0.21207 0.127486,-0.10226 0.43209,-0.33939 0.676898,-0.52695 0.244809,-0.18756 0.537285,-0.42824 0.649948,-0.53484 0.20253,-0.19165 0.203365,-0.19487 0.07394,-0.28553 -0.072,-0.0504 -0.179809,-0.1721 -0.239577,-0.27038 l -0.10867,-0.17869 -0.663764,0.60661 c -0.365071,0.33364 -0.823047,0.74059 -1.017726,0.90432 -0.316142,0.2659 -0.347069,0.31315 -0.289455,0.44227 0.06479,0.14519 0.136512,0.15215 0.569767,0.0553 z m 2.107093,-1.83131 c 0.02667,-0.084 0.0017,-0.17578 -0.06906,-0.254 -0.132036,-0.14589 -0.157862,-0.14876 -0.313593,-0.0349 -0.114135,0.0835 -0.114634,0.0953 -0.01067,0.254 0.130665,0.19942 0.335347,0.21758 0.393328,0.0349 z m -0.731694,-0.3842 c 0.08731,-0.0381 0.201612,-0.0906 0.254,-0.11672 0.09384,-0.0467 0.274729,-0.85879 4.162357,-18.686191 0.614856,-2.81953 1.108577,-5.164752 1.097156,-5.211604 -0.01449,-0.05945 -0.814014,0.264339 -2.64618,1.071635 -1.443979,0.636251 -2.654185,1.185589 -2.689348,1.220752 -0.03516,0.03516 -0.831382,4.831614 -1.769379,10.658784 -0.937997,5.827174 -1.722963,10.699374 -1.744371,10.827134 l -0.03892,0.23228 0.274469,-0.0964 c 0.696375,-0.24459 1.926413,-0.59144 1.998862,-0.56364 0.04424,0.017 0.21465,0.2327 0.378685,0.47938 0.286179,0.43037 0.303618,0.44459 0.431083,0.35122 0.07306,-0.0535 0.204277,-0.12849 0.29159,-0.16662 z m -12.417867,-5.49675 0.04492,-2.61526 -0.606282,0.29751 c -0.539219,0.2646 -0.613988,0.32209 -0.675949,0.51976 -0.03832,0.12223 -0.09331,0.2794 -0.122201,0.34925 -0.02889,0.0698 -0.157207,0.4699 -0.285141,0.889 -0.127936,0.4191 -0.259468,0.82764 -0.292294,0.90786 -0.08003,0.19559 -0.07524,0.45588 0.01321,0.71779 0.10296,0.30487 0.71259,1.32641 1.164167,1.95076 0.210202,0.29063 0.439336,0.62637 0.509186,0.74608 l 0.127,0.21766 0.03923,-0.68258 c 0.02158,-0.37541 0.05945,-1.85944 0.08415,-3.29783 z m -0.611584,-3.16807 c 0.862538,-0.194575 1.402394,-0.604939 1.991985,-1.514194 0.580789,-0.895681 0.836053,-2.454303 0.583201,-3.560979 -0.05586,-0.244475 -0.115309,-0.534555 -0.132114,-0.644622 -0.02528,-0.165582 -0.0763,-0.217593 -0.295606,-0.301346 -0.422155,-0.161222 -0.856797,0.0082 -1.185001,0.461969 l -0.201083,0.278 -0.407196,-0.04172 c -0.583945,-0.05983 -0.857848,0.115835 -1.277381,0.819218 -0.293134,0.491467 -0.51623,0.73058 -0.68011,0.728938 -0.245965,-0.0025 -1.643435,-0.310978 -1.709958,-0.377501 -0.07625,-0.07625 -0.03123,-0.257479 0.268757,-1.081687 0.310661,-0.853544 0.236568,-1.379619 -0.239059,-1.697359 -0.376347,-0.251416 -1.019749,-0.157813 -1.313522,0.191092 -0.215724,0.256208 -0.659912,1.205995 -0.838204,1.792292 -0.134687,0.442905 -0.347814,0.800949 -0.565658,0.950278 -0.06317,0.0433 -0.286301,0.172948 -0.495851,0.288105 -0.20955,0.115157 -0.546319,0.32109 -0.748376,0.457629 l -0.367376,0.248253 0.196257,0.247794 c 0.271634,0.342966 0.673963,0.689117 1.490995,1.282802 1.16693,0.847935 2.468365,1.404088 3.683,1.573868 0.49716,0.0695 1.733719,0.0139 2.2423,-0.10083 z m -0.5913,-0.130967 c -0.06985,-0.05501 -0.219868,-0.140207 -0.333375,-0.189336 -0.238355,-0.103166 -0.271399,-0.214728 -0.0635,-0.214382 0.184534,3.17e-4 0.527823,0.210162 0.617307,0.377365 0.08684,0.16227 -0.03008,0.17624 -0.220432,0.02635 z m 0.587375,-1.017311 c -0.06112,-0.01703 -0.111125,-0.07399 -0.111125,-0.126596 0,-0.07296 0.04461,-0.08584 0.188075,-0.05433 0.103441,0.02272 0.239173,0.01157 0.301625,-0.02477 0.100532,-0.0585 0.101457,-0.0663 0.0081,-0.06801 -0.05801,-0.0011 -0.179457,-0.08985 -0.269875,-0.197303 -0.310957,-0.369552 -0.167966,-1.105969 0.40536,-2.087639 0.401952,-0.688237 0.563493,-0.753031 1.188402,-0.476667 0.54565,0.241313 0.591344,0.300187 0.591344,0.761917 0,0.33514 -0.03914,0.473743 -0.256219,0.907464 -0.165311,0.330282 -0.354434,0.598362 -0.533033,0.755572 -0.475904,0.418907 -1.180012,0.703027 -1.512624,0.61037 z m 1.072649,-0.569932 c 0.573472,-0.272131 1.206192,-1.560149 0.976881,-1.988621 -0.08221,-0.153618 -0.562415,-0.384092 -0.800271,-0.384092 -0.183946,0 -0.402355,0.28118 -0.749208,0.964536 -0.310583,0.611896 -0.381445,1.170195 -0.174762,1.376878 0.162964,0.162964 0.445005,0.174776 0.74736,0.0313 z m -7.326501,-2.600986 c 0.172017,-0.138007 0.31767,-0.422568 0.549458,-1.073477 0.26398,-0.741308 0.72458,-1.575247 1.053019,-1.906542 0.577682,-0.582705 1.325787,-0.6411 1.943681,-0.151718 0.343367,0.271951 0.550291,0.614743 0.67421,1.116898 0.09584,0.388353 0.09499,0.451405 -0.01319,0.984314 -0.112976,0.556518 -0.112861,0.572026 0.0051,0.686472 0.06638,0.0644 0.22568,0.160003 0.353997,0.212453 l 0.233301,0.09536 0.323137,-0.434554 c 0.177725,-0.239004 0.443358,-0.529533 0.590294,-0.645619 0.251318,-0.198552 0.294374,-0.210408 0.726189,-0.199945 l 0.459031,0.01112 0.295964,-0.504835 c 0.162781,-0.277659 0.443908,-0.661282 0.624727,-0.852496 0.367686,-0.388822 0.440632,-0.40665 1.032798,-0.252411 0.460356,0.119908 1.040494,0.122238 1.320357,0.0053 0.27361,-0.114322 0.39926,-0.307948 0.494504,-0.762027 0.07079,-0.337501 0.06573,-0.380815 -0.07561,-0.64724 -0.260011,-0.490126 -0.985012,-1.0308 -2.694213,-2.009225 -1.98259,-1.134925 -3.657787,-1.708561 -5.278286,-1.807437 -1.043691,-0.06368 -2.21342,0.191586 -2.989897,0.652477 l -0.386398,0.229354 -0.239042,0.645396 c -0.471627,1.273363 -0.688475,2.467311 -0.682335,3.756897 0.0049,1.03089 0.233054,2.023782 0.648516,2.822353 l 0.266984,0.513175 0.298945,-0.175514 c 0.16442,-0.09653 0.373558,-0.235374 0.46475,-0.308537 z M 99.399923,85.749642 c 0,-0.03673 0.435337,-1.132144 0.967417,-2.43425 l 0.96741,-2.367465 h 1.44559 1.44558 v 0.41275 0.41275 h 1.55575 c 0.85567,0 1.5555,0.02143 1.5552,0.04762 -3.2e-4,0.02619 -0.16462,0.373334 -0.36513,0.771423 l -0.36457,0.723799 -3.60362,1.250077 c -1.982,0.687542 -3.603627,1.220023 -3.603627,1.183291 z m 9.082777,-11.64384 -0.002,-5.349875 h -7.65175 c -4.208459,0 -7.651747,-0.01445 -7.651747,-0.03212 0,-0.105206 1.803644,-6.383941 1.878734,-6.540134 0.07359,-0.153082 3.061913,-2.080102 15.213983,-9.810751 8.31732,-5.291137 15.30773,-9.741694 15.53426,-9.890125 0.22652,-0.148431 0.41923,-0.269875 0.42824,-0.269875 0.0657,0 -0.18612,0.565958 -1.11623,2.50825 -0.58535,1.222375 -4.47192,9.337675 -8.6368,18.034001 -4.16488,8.696325 -7.66738,16.011525 -7.78332,16.256 l -0.21081,0.4445 -0.002,-5.349875 z M 88.412147,66.27829 c 2.142068,-1.3627 3.909328,-2.462978 3.927244,-2.445062 0.02699,0.02699 -1.137416,4.573138 -1.239354,4.838782 -0.02612,0.06805 -0.651278,0.08392 -3.30738,0.08392 h -3.275179 z"
       id="path684"
       sodipodi:nodetypes="ccssssssssssssssssscsssscscccsssscscssssscssscsscsscscscssscsssccscssscsscssssscsscscccsscccsccccccsssscccsccscccssscscsssccccsccscsccssccscssscssssscccscssscssscscccssccssscssscccscssscsscsssssccccccsscsscssscccscccccsscsscsssssssscscccscscccsssssscsscssssssscsccsssssccccccssssssscccccsssssssccsscsssssccscsssssscccssssscssssscssssscccsscsccscsscsssssccccssssccsscsscssscssscscsssccscccssscsssssscscssssccsscssssscsscsssssscsscsssssssscsssssssssssssscssssssssssssssscssssssscssscssssssssscssscsccsscccccscscsssccssssssssscccsssscs" /><path
       d="m 104.86092,80.820927 v -0.381 h -3.3655 -3.365497 v -5.55625 -5.55625 h 4.889497 4.8895 v 1.8415 1.8415 h -1.5875 -1.5875 v -0.66675 -0.66675 h -1.55575 -1.55575 v 2.794 2.794 h 1.61925 1.61925 v -0.508 -0.508 h -0.889 -0.889 v -1.11125 -1.11125 h 2.413 2.413 v 3.58775 3.58775 h -1.524 -1.524 z m -17.335497,-5.969 v -5.5245 h 4.73075 4.73075 v 5.5245 5.5245 h -4.73075 -4.73075 z m 6.6675,0.0635 v -3.2385 h -1.905 -1.905 v 3.2385 3.2385 h 1.905 1.905 z m -24.7015,-0.0635 v -5.3975 h 4.1275 4.1275 l -0.0011,2.143125 -0.0011,2.143125 -0.665628,0.437136 c -0.366096,0.240425 -0.664604,0.454738 -0.663353,0.47625 0.0013,0.02151 0.301289,0.278131 0.66675,0.570263 l 0.664479,0.53115 v 2.246975 2.246976 h -4.1275 -4.1275 z m 5.039118,2.822841 0.294882,-0.225158 v -0.563643 -0.563644 l -0.26543,-0.227198 -0.26543,-0.227198 h -1.16332 -1.16332 v 0.973666 c 0,0.535517 0.01905,0.992717 0.04233,1.016 0.02328,0.02328 0.533524,0.04233 1.133868,0.04233 h 1.091536 z m 0,-4.2545 0.294882,-0.225158 v -0.500841 -0.50084 l -0.276415,-0.226501 -0.276415,-0.226501 h -1.152335 -1.152335 v 0.910166 c 0,0.500592 0.01905,0.929217 0.04233,0.9525 0.02328,0.02328 0.533524,0.04233 1.133868,0.04233 h 1.091536 z m 4.549382,1.430587 v -5.398572 l 1.635125,0.01695 1.635125,0.01695 0.01634,4.079875 0.01634,4.079875 h 2.126784 2.126783 v 1.30175 1.30175 h -3.77825 -3.77825 z"
       style="fill:#ff0000;stroke-width:0.0635"
       id="path694" /></g></svg>
