<?xml version="1.0" encoding="UTF-8" standalone="no"?>
<!-- Created with Inkscape (http://www.inkscape.org/) -->

<svg
   width="88.900002mm"
   height="88.900002mm"
   viewBox="0 0 88.900002 88.900002"
   version="1.1"
   id="svg5"
   xml:space="preserve"
   sodipodi:docname="linkstile.svg"
   inkscape:version="1.2.2 (732a01da63, 2022-12-09)"
   xmlns:inkscape="http://www.inkscape.org/namespaces/inkscape"
   xmlns:sodipodi="http://sodipodi.sourceforge.net/DTD/sodipodi-0.dtd"
   xmlns="http://www.w3.org/2000/svg"
   xmlns:svg="http://www.w3.org/2000/svg"><sodipodi:namedview
     id="namedview7"
     pagecolor="#ffffff"
     bordercolor="#000000"
     borderopacity="0.25"
     inkscape:showpageshadow="2"
     inkscape:pageopacity="0.0"
     inkscape:pagecheckerboard="0"
     inkscape:deskcolor="#d1d1d1"
     inkscape:document-units="mm"
     showgrid="false"
     inkscape:zoom="2.1089995"
     inkscape:cx="204.59938"
     inkscape:cy="170.69705"
     inkscape:window-width="1920"
     inkscape:window-height="1017"
     inkscape:window-x="1912"
     inkscape:window-y="-8"
     inkscape:window-maximized="1"
     inkscape:current-layer="layer1" /><defs
     id="defs2" /><g
     inkscape:label="Layer 1"
     inkscape:groupmode="layer"
     id="layer1"
     transform="translate(-44.218422,-36.370926)"><path
       style="fill:#000000;stroke-width:0.0635"
       d="m 120.86292,123.86809 c -1.0438,-0.0758 -1.74654,-0.28837 -2.42095,-0.73239 -0.40917,-0.2694 -0.88002,-0.7983 -1.00626,-1.13031 -0.0421,-0.11067 -0.12094,-0.16595 -0.26879,-0.1884 -0.11509,-0.0175 -3.20962,-0.0656 -6.87675,-0.10693 l -6.6675,-0.0751 -0.22245,0.13228 c -0.27268,0.16215 -1.37263,0.26523 -2.83017,0.26523 -1.159565,0 -1.740288,-0.07 -2.630627,-0.31703 l -0.66675,-0.18501 -12.73175,-0.16209 c -7.002463,-0.0892 -13.679906,-0.18047 -14.838762,-0.20294 l -2.107012,-0.0409 0.504011,-1.00653 c 0.277206,-0.5536 0.531238,-1.00654 0.564517,-1.00654 0.191837,0 26.920915,1.33408 27.345818,1.36486 l 0.514822,0.0373 0.035,-0.38595 c 0.01925,-0.21227 0.06273,-0.4206 0.09664,-0.46295 0.0339,-0.0423 0.108714,-0.24118 0.166248,-0.44184 0.130171,-0.454 0.415402,-0.7876 0.829775,-0.97048 0.251579,-0.11103 0.290319,-0.14672 0.1905,-0.17549 -0.06891,-0.0199 -6.126051,-0.88597 -13.460301,-1.92469 -7.33425,-1.03872 -13.345371,-1.89642 -13.358045,-1.906 -0.01268,-0.01 0.430238,-0.93034 0.98425,-2.04612 l 1.007295,-2.0287 13.1445,2.9769 c 7.229475,1.63729 13.18197,2.9773 13.227766,2.97779 0.06249,6.3e-4 0.0728,-0.0689 0.04134,-0.27874 -0.02693,-0.17958 -0.0073,-0.40107 0.0548,-0.61912 0.0532,-0.18673 0.106037,-0.40706 0.117414,-0.48961 0.02029,-0.14722 -0.221073,-0.22015 -12.543108,-3.79021 -6.910088,-2.00207 -12.575124,-3.65145 -12.588969,-3.66529 -0.03274,-0.0327 2.947848,-6.04655 3.264495,-6.58665 0.26625,-0.45414 0.626774,-1.102298 0.928343,-1.668981 0.129856,-0.244016 0.227384,-0.358589 0.290676,-0.34148 0.05239,0.01416 4.695825,2.033281 10.31875,4.486931 5.622925,2.45364 10.252075,4.47214 10.287,4.48554 0.07309,0.0281 0.08241,-1.83623 0.01021,-2.04076 -0.02839,-0.0804 -1.808741,-1.20543 -4.85352,-3.06696 -5.877194,-3.593232 -6.926834,-4.245146 -10.723542,-6.660218 l -2.993855,-1.90438 1.692105,-3.437204 c 0.930657,-1.890462 1.706392,-3.437657 1.723855,-3.43821 0.01746,-5.72e-4 3.486259,2.970967 7.708435,6.603379 4.222178,3.632412 7.687658,6.593413 7.701069,6.580003 0.01341,-0.0134 -0.0097,-0.27841 -0.05125,-0.588898 -0.04349,-0.324593 -0.07806,-1.407148 -0.08134,-2.54716 l -0.0057,-1.982646 -0.356891,-0.366854 c -0.19629,-0.20177 -3.045332,-3.218477 -6.331206,-6.703793 -5.696957,-6.042746 -5.971016,-6.344178 -5.903265,-6.492875 l 0.07105,-0.155937 h 4.954589 l 8.85724,-1e-6 h 3.76111 l 0.37141,0.156324 c 0.42838,0.180303 1.16904,0.374504 1.83139,0.480191 0.25321,0.0404 0.46037,0.09419 0.46037,0.119533 0,0.02534 -0.3929,0.04621 -0.87312,0.04638 -1.02786,3.81e-4 -2.28818,0.199023 -2.56918,0.404972 -0.0946,0.06936 -0.21164,0.1261 -0.26003,0.1261 -0.13925,0 -0.28352,-0.201231 -0.33216,-0.463321 -0.0437,-0.235689 -0.0476,-0.238528 -0.17063,-0.12715 -0.0692,0.06266 -0.16539,0.190333 -0.21369,0.283726 -0.0991,0.191643 -0.23068,1.205817 -0.16449,1.267845 0.14052,0.131686 1.88596,0.404769 3.02087,0.472632 l 0.75532,0.04516 -0.042,-0.167413 c -0.0243,-0.0967 -0.004,-0.258578 0.0482,-0.383246 0.16808,-0.402268 0.66802,-0.447574 1.78763,-0.162001 0.50979,0.130031 0.59905,0.135495 1.07062,0.06554 0.28297,-0.04197 0.65735,-0.144935 0.83197,-0.228802 l 0.3175,-0.152486 0.003,-0.431619 c 0.002,-0.31485 0.04,-0.502471 0.14008,-0.693507 0.15533,-0.296555 0.45906,-0.57671 0.68738,-0.634015 0.14076,-0.03533 0.15386,-0.07007 0.15386,-0.408121 V 80.70315 l 0.3393,-0.160515 c 0.30858,-0.145981 0.35522,-0.19671 0.51515,-0.560236 0.0967,-0.219847 0.27505,-0.622965 0.3963,-0.895816 0.12125,-0.272852 0.24593,-0.676012 0.27707,-0.895912 0.0311,-0.2199 0.10062,-0.568157 0.1544,-0.773906 0.0538,-0.205748 0.1159,-0.527138 0.13806,-0.714198 0.0418,-0.352547 0.28335,-0.782961 0.66889,-1.191656 l 0.18702,-0.198267 -0.26202,-0.690733 c -0.82945,-2.18658 -1.42753,-4.472469 -1.50587,-5.755468 -0.0318,-0.520057 -0.0601,-0.642615 -0.17621,-0.762 -0.32292,-0.331996 -0.57007,-0.775519 -0.56403,-1.012172 l 0.006,-0.234907 -0.35691,0.24052 c -0.58894,0.396895 -2.22873,1.37131 -2.73815,1.627092 -0.88669,0.44522 -1.0342,0.475517 -2.31181,0.474855 l -1.14894,-5.71e-4 -0.32244,-0.184945 c -0.60287,-0.345834 -0.96392,-0.908681 -1.02665,-1.600562 -0.0186,-0.204779 -0.0468,-0.372326 -0.0628,-0.372326 -0.099,0 -0.80884,0.225093 -1.13857,0.361051 -0.34039,0.140355 -0.43195,0.217421 -0.70156,0.590482 -0.17053,0.235982 -0.37963,0.6042 -0.46466,0.818263 l -0.15459,0.389204 h -1.09647 c -0.83501,0 -1.096399,-0.01893 -1.096163,-0.07937 1.91e-4,-0.04366 0.09877,-0.271227 0.219104,-0.505713 l 0.218794,-0.426338 -0.203229,-0.03295 c -0.111776,-0.01812 -0.488979,-0.06351 -0.838229,-0.100864 -0.710981,-0.07604 -2.670941,-0.403711 -3.20675,-0.536111 -0.192087,-0.04747 -0.706437,-0.133286 -1.143,-0.190712 -0.871155,-0.114594 -3.230113,-0.485016 -4.03225,-0.633176 -0.631014,-0.116552 -4.642693,-0.125625 -5.715,-0.01292 l -0.6985,0.07341 0.01815,0.221347 c 0.01,0.121741 0.03856,0.239436 0.0635,0.261544 0.02494,0.02211 0.245378,0.01684 0.489853,-0.01171 0.583005,-0.06808 2.18732,-0.06462 2.3495,0.0051 0.101315,0.04354 0.07791,0.05548 -0.115712,0.05904 -0.438301,0.0081 -1.880346,0.375605 -3.011663,0.767606 -0.33649,0.116593 -0.396875,0.160411 -0.396875,0.287989 0,0.177398 0.206566,0.246998 0.936403,0.315515 0.548145,0.05146 0.55073,0.157353 0.0038,0.157353 -0.516807,0 -0.876744,0.110217 -0.876744,0.268468 0,0.08862 -0.0374,0.115889 -0.138601,0.101074 -0.168679,-0.0247 -0.237184,-0.243616 -0.249766,-0.798167 -0.0087,-0.381612 -0.01541,-0.397154 -0.175444,-0.404115 -0.566924,-0.02466 -0.745655,-0.110229 -0.874535,-0.418681 -0.10752,-0.257331 -0.06578,-0.664381 0.08343,-0.813587 0.05169,-0.0517 0.159476,-0.09399 0.239514,-0.09399 0.121166,0 0.164361,0.0599 0.258086,0.357872 0.185063,0.588361 0.413837,0.713213 0.890428,0.485943 0.198094,-0.09446 0.222246,-0.129777 0.184586,-0.269875 -0.02383,-0.08865 -0.06192,-0.350632 -0.08464,-0.582173 -0.04694,-0.478271 -0.123424,-0.599187 -0.482299,-0.762436 -0.507559,-0.230883 -2.147575,-0.08331 -2.805756,0.252469 -0.32912,0.167906 -0.591495,0.478908 -0.591495,0.701118 0,0.283937 0.52628,0.687002 1.127125,0.863236 0.161062,0.04724 0.191406,0.209211 0.0494,0.263703 -0.05141,0.01973 -0.31858,-0.0097 -0.593711,-0.06549 -0.275132,-0.05575 -0.530811,-0.101361 -0.568175,-0.101361 -0.105111,0 -0.284198,0.610118 -0.239211,0.814945 0.04821,0.219498 0.332023,0.369417 0.923069,0.487593 l 0.41275,0.08253 -0.811197,0.006 -0.811196,0.006 -0.06911,-0.174625 c -0.148305,-0.374724 -0.138205,-0.685757 0.03961,-1.219678 0.133525,-0.400942 0.163278,-0.582649 0.13083,-0.799026 -0.102314,-0.682277 0.40748,-1.172666 1.523946,-1.465937 0.747473,-0.196345 1.918133,-0.244114 2.339047,-0.09545 0.32944,0.11636 0.713768,0.473161 0.803927,0.746346 0.06418,0.194465 0.09392,0.217587 0.241667,0.187873 0.628749,-0.12645 2.428452,-0.162213 5.184981,-0.103033 1.641475,0.03524 3.548773,0.06451 4.23844,0.06505 l 1.25394,9.71e-4 1.073316,-2.143125 c 0.870794,-1.738745 1.080414,-2.113171 1.110936,-1.984375 0.02069,0.08731 0.08122,0.38735 0.134509,0.66675 0.130649,0.685015 0.269608,1.266577 0.493115,2.06375 0.102817,0.366712 0.217191,0.788193 0.254165,0.936625 0.05258,0.21106 0.09644,0.269875 0.201299,0.269875 0.390267,0 3.193081,-0.406382 3.259261,-0.472562 0.0166,-0.0166 -0.61179,-1.552487 -1.396436,-3.413077 l -1.42662,-3.382892 0.571226,-1.16161 0.571226,-1.16161 0.01082,-0.681 c 0.0091,-0.574212 0.03876,-0.755512 0.188979,-1.156173 0.572145,-1.526024 1.905105,-2.907561 3.642795,-3.775547 1.75361,-0.87594 3.39874,-1.343907 4.96427,-1.412113 1.93895,-0.08447 3.45961,0.251998 4.05421,0.897065 0.31203,0.338508 0.57286,0.78413 0.7231,1.235388 0.48417,1.454199 0.69275,2.704612 0.67964,4.074378 -0.007,0.693976 0.0167,0.947106 0.1199,1.30175 0.29332,1.007692 0.36051,1.439659 0.35496,2.281753 -0.005,0.746779 -0.0244,0.883027 -0.20483,1.42875 -0.25361,0.767278 -0.56537,1.293947 -1.11571,1.884805 -0.24033,0.258034 -0.42607,0.479738 -0.41275,0.492675 0.0133,0.01294 0.19921,0.15209 0.41308,0.30923 0.46076,0.33855 0.5954,0.638192 0.5954,1.325102 v 0.433188 l 0.30163,0.002 c 0.75562,0.0049 1.21266,0.118483 2.31611,0.57553 0.60336,0.249912 1.12559,0.476775 1.16051,0.504139 0.0349,0.02736 0.25894,0.127868 0.49781,0.223339 0.23886,0.09547 0.64671,0.312246 0.90632,0.481724 0.56957,0.371812 0.96286,0.572902 1.40086,0.716257 0.18067,0.05913 0.35546,0.141663 0.38842,0.183405 0.033,0.04174 0.17989,0.351642 0.32651,0.688666 0.14662,0.337024 0.44742,0.873939 0.66843,1.193143 0.30937,0.446822 0.4479,0.724778 0.60203,1.207919 0.16935,0.530863 0.30288,0.782389 0.86674,1.632606 0.3666,0.552784 0.88357,1.433686 1.14881,1.957561 0.26526,0.523875 0.57462,1.095375 0.68749,1.27 0.5504,0.851527 0.56346,0.887791 0.48747,1.353835 -0.0483,0.296309 -0.1849,0.65575 -0.45314,1.192451 -0.2112,0.422558 -0.384,0.794551 -0.384,0.826653 0,0.0321 -0.0939,0.28591 -0.20858,0.564018 -0.22827,0.553387 -0.21389,0.541193 -1.02064,0.865048 -0.52842,0.212122 -0.4925,0.176845 -1.05901,1.039995 -0.13754,0.20955 -0.44985,0.599703 -0.69402,0.867006 l -0.44396,0.486005 -0.62052,0.110798 c -1.06321,0.189846 -1.22329,0.285058 -2.12743,1.265379 l -0.42742,0.463427 0.41531,1.324693 c 0.22841,0.72858 0.5735,1.939055 0.76684,2.689942 0.40184,1.560543 0.45635,2.135982 0.35496,3.746501 -0.0465,0.738757 -0.0402,0.983505 0.032,1.23825 0.0615,0.216852 0.10537,0.891192 0.13849,2.12725 l 0.0485,1.80975 0.25826,0.60325 c 0.14205,0.331787 0.30309,0.846137 0.35787,1.143 0.0548,0.296862 0.15801,0.860776 0.22943,1.253136 0.0774,0.42521 0.24216,1.00236 0.40788,1.42875 0.15632,0.40221 0.40406,1.25742 0.56592,1.95362 0.16054,0.69047 0.43687,1.64558 0.62465,2.159 l 0.33675,0.92075 -0.004,0.762 c -0.002,0.4191 -0.0132,1.00489 -0.0248,1.30175 -0.024,0.6171 0.0344,0.85322 0.45613,1.84432 0.35816,0.84175 0.40309,1.0291 0.52488,2.18904 0.11385,1.08429 0.15342,1.25757 0.45189,1.97858 0.25741,0.62184 0.26148,0.76712 0.0504,1.79856 -0.0893,0.43656 -0.16487,0.82454 -0.16785,0.86218 -0.003,0.0376 0.0816,0.1948 0.188,0.34925 0.14516,0.21073 0.33401,0.35851 0.75671,0.59213 0.7964,0.44016 1.00327,0.62023 1.22705,1.06805 0.10731,0.21474 0.24475,0.44566 0.30541,0.51314 0.0917,0.10204 0.10789,0.23106 0.096,0.7661 -0.0201,0.90052 -0.0998,1.18665 -0.42025,1.50946 -0.30694,0.30917 -0.98863,0.64475 -1.65684,0.81565 -0.82154,0.21011 -2.28176,0.32124 -3.27431,0.2492 z m 2.16386,-0.40356 c 0.90467,-0.12045 1.40587,-0.25719 1.90856,-0.52071 0.64781,-0.33959 0.93107,-0.77312 0.94132,-1.44066 l 0.003,-0.18003 -0.28451,0.25044 c -0.15649,0.13774 -0.44938,0.31013 -0.65088,0.3831 -1.1515,0.41694 -3.59246,0.6375 -4.95233,0.44748 -0.66118,-0.0924 -0.71628,-0.0568 -0.71628,0.46313 0,0.35012 0.0115,0.37925 0.17462,0.44248 0.63077,0.24451 2.34545,0.3187 3.57673,0.15477 z m 0.15389,-1.88349 c 0.72811,-0.0892 1.35547,-0.24999 1.96377,-0.50323 l 0.48098,-0.20023 v -0.26739 c 0,-0.18586 -0.056,-0.35578 -0.18382,-0.55725 -0.21603,-0.34065 -0.44398,-0.52082 -1.06863,-0.84467 -0.5125,-0.26571 -0.69669,-0.42747 -0.95321,-0.83716 -0.13911,-0.22218 -0.20197,-0.27225 -0.30259,-0.24103 -0.0699,0.0217 -0.45561,0.066 -0.85725,0.0985 -1.4071,0.1138 -1.69694,0.16937 -2.32876,0.44647 l -0.60013,0.26319 -0.4723,0.63967 c -0.25977,0.35182 -0.47231,0.70293 -0.47231,0.78024 0,0.22891 0.28078,0.49558 0.74905,0.71142 1.0551,0.48633 2.62783,0.68519 4.0452,0.5115 z m -19.93586,-0.1331 c 0.31085,-0.14163 1.72259,-2.18771 1.59647,-2.31382 -0.0173,-0.0173 -0.20339,0.19437 -0.41351,0.4704 -0.50817,0.66757 -0.94788,1.05565 -1.31138,1.15743 -0.30539,0.0855 -0.39629,0.15548 -0.2885,0.22209 0.0355,0.0219 0.0645,0.1525 0.0645,0.29013 0,0.27457 0.063,0.30564 0.35239,0.17377 z m 5.98615,-0.78076 c 0.91712,-0.19209 1.76199,-0.34925 1.87749,-0.34925 0.1155,0 1.54105,0.15716 3.1679,0.34925 1.62686,0.19209 3.01713,0.34925 3.0895,0.34925 0.0724,0 0.1315,-0.0357 0.1314,-0.0794 0,-0.0569 -1.70212,-0.32075 -6.01662,-0.93267 -3.30905,-0.46931 -6.07361,-0.86416 -6.14346,-0.87744 -0.10342,-0.0197 -0.16019,0.0521 -0.30582,0.38665 -0.0983,0.22593 -0.31922,0.62078 -0.49081,0.87744 -0.25631,0.38337 -0.29238,0.46982 -0.20217,0.48445 0.20705,0.0336 1.9512,0.12227 2.58821,0.13161 0.54964,0.008 0.86534,-0.0385 2.30438,-0.33991 z m -6.06424,-0.50024 c 0.18966,-0.0839 0.46401,-0.26017 0.60967,-0.39177 0.24978,-0.22566 1.06129,-1.28642 1.01211,-1.32297 -0.0126,-0.009 -0.60861,-0.31419 -1.32458,-0.67747 l -1.30175,-0.6605 -0.5715,-0.001 c -0.38497,-7.6e-4 -0.78543,0.049 -1.22694,0.15243 -0.593187,0.13898 -0.683666,0.18001 -0.952502,0.43193 -0.178034,0.16683 -0.619422,0.44142 -1.101622,0.68533 -1.057857,0.53511 -1.200042,0.7376 -0.798808,1.13758 0.14797,0.14751 0.377097,0.26167 0.809625,0.40339 1.111012,0.36403 1.378233,0.41215 2.508247,0.45167 1.3016,0.0455 1.88039,-0.006 2.33805,-0.20848 z m 14.61055,-0.28825 c -0.073,-0.0669 -12.16877,-3.56801 -12.20424,-3.53253 -0.0144,0.0144 0.005,0.1225 0.0443,0.24013 0.0499,0.15107 0.0516,0.31381 0.006,0.55428 -0.0355,0.18723 -0.0481,0.35683 -0.0281,0.37691 0.0201,0.0201 2.75626,0.65235 6.08042,1.40508 l 6.04395,1.3686 0.0576,-0.17985 c 0.0345,-0.1076 0.0345,-0.20105 0,-0.23262 z m 0.10115,-1.01698 c 0,-0.12492 -0.0384,-0.19841 -0.1166,-0.22324 -0.0641,-0.0203 -0.22804,-0.19076 -0.36422,-0.37868 -0.24239,-0.33446 -0.2738,-0.35348 -1.48677,-0.90024 -1.47333,-0.66411 -2.94573,-1.31625 -3.42991,-1.51915 -0.19208,-0.0805 -0.79216,-0.33762 -1.3335,-0.5714 -1.24532,-0.5378 -2.15701,-0.922 -4.5085,-1.89996 -0.29686,-0.12346 -0.57195,-0.22495 -0.6113,-0.22555 -0.078,-0.001 -0.3219,0.52158 -0.38085,0.81631 -0.0357,0.17859 -0.0223,0.1898 0.46181,0.38694 3.49835,1.42454 11.62996,4.69027 11.69047,4.69499 0.0469,0.004 0.0794,-0.0701 0.0794,-0.18002 z m -12.58479,-2.00574 c -0.0192,-0.0192 -0.26714,-0.0719 -0.55095,-0.11704 -0.28382,-0.0452 -0.53334,-0.0994 -0.5545,-0.12058 -0.0808,-0.0808 0.0448,-0.15529 0.39368,-0.23337 0.76021,-0.17012 0.85515,-0.56788 0.34774,-1.45701 -0.42756,-0.74923 -0.45024,-0.91269 -0.19648,-1.41612 0.22552,-0.44737 0.47351,-0.73535 0.87128,-1.01172 0.34523,-0.23986 0.39773,-0.43734 0.35665,-1.34176 -0.0307,-0.67527 -0.0193,-0.76549 0.20657,-1.63544 l 0.23903,-0.92075 0.005,-1.4605 0.005,-1.4605 0.20638,-0.31406 c 0.1135,-0.17273 0.20637,-0.37826 0.20637,-0.45674 0,-0.15449 -0.21646,-0.55692 -0.3963,-0.73675 -0.0614,-0.0614 -0.11539,-0.16171 -0.11989,-0.22283 -0.005,-0.0611 -0.0164,-0.23685 -0.0265,-0.39052 -0.024,-0.36659 -0.17555,-0.55674 -0.65237,-0.81839 -0.21586,-0.11845 -0.39248,-0.24138 -0.39248,-0.27316 0,-0.1074 0.29418,-0.0587 0.60837,0.10068 0.17181,0.0872 0.32899,0.1586 0.34929,0.15875 0.0973,7e-4 1.20946,-3.081653 1.45487,-4.031983 0.33714,-1.305541 0.5223,-2.624742 0.51678,-3.681925 -0.007,-1.272395 -0.0392,-1.456865 -0.31006,-1.756674 -0.12156,-0.134558 -0.25773,-0.244651 -0.3026,-0.244651 -0.1216,0 -0.70089,0.695301 -0.88546,1.062786 -0.0886,0.1765 -0.16119,0.403572 -0.16119,0.504606 0,0.215975 -0.24117,0.715456 -0.38824,0.804066 -0.15376,0.09264 -0.31026,0.0033 -0.31026,-0.177161 0,-0.08755 0.12859,-0.405016 0.28575,-0.705471 0.15717,-0.300454 0.28575,-0.605461 0.28575,-0.677793 0,-0.08171 0.25251,-0.387756 0.66675,-0.808125 0.64733,-0.656901 0.73778,-0.808316 0.60667,-1.015552 -0.0494,-0.07816 -0.13237,-0.06632 -0.55465,0.07919 -0.27308,0.09409 -0.76798,0.227234 -1.09977,0.295867 -0.33178,0.06863 -0.83071,0.196058 -1.10873,0.283166 -0.27801,0.08711 -0.51562,0.148243 -0.528,0.135854 -0.0124,-0.01239 0.14152,-0.139995 0.34202,-0.283573 0.3273,-0.234369 1.367,-0.640856 1.63917,-0.640856 0.0849,0 1.34716,-1.244893 1.45169,-1.431687 0.0289,-0.05166 0.008,-0.171311 -0.05,-0.283073 -0.0927,-0.179292 -0.0908,-0.224753 0.0264,-0.615471 0.0696,-0.232034 0.11489,-0.440788 0.1006,-0.463898 -0.0143,-0.02311 -0.27321,-0.08048 -0.57539,-0.127489 -0.45821,-0.07128 -0.61419,-0.07145 -0.93948,-0.001 -1.29807,0.281007 -2.2817,0.241164 -3.03533,-0.122952 -0.24397,-0.117875 -0.28283,-0.119522 -0.71139,-0.03016 -0.64995,0.135529 -0.66569,0.143139 -0.68753,0.332417 -0.0143,0.12418 -0.0532,0.168702 -0.14076,0.161132 -0.0665,-0.0058 -0.22415,0.05468 -0.35026,0.134287 -0.17265,0.10899 -0.25414,0.222451 -0.32989,0.459312 l -0.10059,0.314566 0.2921,0.10412 c 0.16066,0.05727 0.59455,0.30121 0.96421,0.542097 l 0.67211,0.437977 0.43914,-0.243192 c 0.64253,-0.355828 0.69378,-0.358074 1.22197,-0.05355 0.24987,0.144066 0.47172,0.290087 0.49298,0.324492 0.0778,0.125885 -0.0474,0.138689 -0.36456,0.03727 -0.30708,-0.0982 -0.35325,-0.09704 -0.85201,0.02142 -0.70691,0.16789 -2.34666,0.439154 -2.66274,0.440494 l -0.254,0.0011 -0.21283,0.506543 c -0.34364,0.817828 -0.44775,1.22806 -0.51202,2.017556 -0.0805,0.988755 0.0525,2.275319 0.35262,3.411494 0.11993,0.454025 0.30566,1.154112 0.41273,1.55575 0.24232,0.908934 0.25936,1.455744 0.063,2.020514 -0.25888,0.7445 -0.53061,1.24139 -0.84524,1.54562 l -0.305987,0.29589 v 0.54174 c 0,0.334 0.0275,0.55874 0.07171,0.58606 0.03944,0.0244 0.166807,0.25015 0.283037,0.50173 0.11624,0.25157 0.24827,0.48778 0.29342,0.52492 0.0452,0.0371 0.24754,0.11545 0.44977,0.17403 0.4094,0.11858 0.70887,0.33709 0.62967,0.45946 -0.0279,0.0431 -0.26117,0.0951 -0.52382,0.11682 -0.68657,0.0567 -0.84579,0.11912 -0.97037,0.38036 -0.151082,0.31684 -0.13316,0.66745 0.0833,1.62971 0.10436,0.46387 0.22497,1.06485 0.26802,1.33552 l 0.0783,0.49213 h 0.27242 c 0.49774,0 1.0711,0.3749 1.45075,0.9486 0.16917,0.25562 0.40779,0.85663 0.40779,1.02705 0,0.13219 -0.49075,0.34542 -0.92943,0.40385 -0.41949,0.0559 -0.73089,-0.0327 -1.02562,-0.29176 l -0.2357,-0.20717 -0.0422,0.42333 c -0.0353,0.35407 -0.17077,0.74206 -0.41775,1.19652 -0.0119,0.0218 0.38198,0.19215 0.87521,0.3785 1.00225,0.37868 1.61676,0.69279 1.61676,0.82641 0,0.10019 -0.09,0.10033 -1.23825,0.002 -0.4297,-0.0368 -0.7542,-0.0392 -0.78846,-0.006 -0.13617,0.13293 -0.0589,0.61353 0.16413,1.02053 0.23345,0.42605 0.24657,0.43626 1.00533,0.78191 0.26194,0.11932 0.57627,0.26256 0.6985,0.31831 0.12224,0.0558 0.42228,0.21662 0.66675,0.35747 0.24448,0.14085 0.76527,0.41344 1.15731,0.60574 0.39205,0.19231 0.73329,0.38279 0.75833,0.4233 0.025,0.0405 0.11667,-0.21781 0.20363,-0.57404 0.087,-0.35623 0.1424,-0.66341 0.12319,-0.68262 z m -3.46999,-20.952863 c -0.32526,-0.101502 -0.46701,-0.21953 -0.7256,-0.60418 -0.10566,-0.157162 -0.30831,-0.407193 -0.45033,-0.555625 -0.21872,-0.228581 -0.23852,-0.269875 -0.12944,-0.269875 0.17066,0 0.60888,0.381194 0.91573,0.796565 0.21616,0.292607 0.29912,0.351786 0.66271,0.472783 0.62945,0.209465 0.37088,0.361281 -0.27307,0.160332 z m 2.78659,-5.740222 c -0.12524,-0.08478 0.0461,-0.11679 0.88569,-0.1655 0.72272,-0.04193 1.16795,-0.191956 1.2396,-0.417703 0.0541,-0.170317 0.1574,-0.15395 0.1574,0.02493 0,0.154835 -0.17639,0.350069 -0.4445,0.491971 -0.19471,0.10306 -1.70348,0.157482 -1.83819,0.0663 z m 18.25294,27.009965 c 0.24448,-0.0616 0.48319,-0.14756 0.53047,-0.19096 0.0533,-0.0489 0.0979,-0.28079 0.11749,-0.60982 0.0294,-0.49517 0.018,-0.56081 -0.17006,-0.97539 -0.27896,-0.61511 -0.37435,-1.0202 -0.44858,-1.905 -0.0881,-1.05025 -0.15204,-1.32415 -0.51196,-2.19381 -0.50992,-1.23209 -0.53247,-1.36797 -0.43721,-2.63471 0.061,-0.81163 0.0633,-1.1157 0.009,-1.21677 -0.18863,-0.35246 -0.79019,-2.28627 -1.02086,-3.28175 -0.14176,-0.61177 -0.36821,-1.39235 -0.50323,-1.73463 -0.2951,-0.74811 -0.33681,-0.91336 -0.54981,-2.17808 -0.20159,-1.197018 -0.26456,-1.457495 -0.45904,-1.898827 -0.21362,-0.484769 -0.29752,-1.268224 -0.21608,-2.017747 0.0976,-0.898549 -0.004,-1.850605 -0.34826,-3.275971 -0.30333,-1.25432 -0.38379,-1.983208 -0.2189,-1.983208 0.10015,0 0.14629,0.150267 0.25836,0.841375 0.0411,0.253207 0.0978,0.460375 0.12602,0.460375 0.0937,0 0.14521,-1.52694 0.0664,-1.9685 -0.12123,-0.679623 -0.62213,-2.59471 -0.96713,-3.697627 -0.17774,-0.568218 -0.36696,-1.184146 -0.42048,-1.368729 l -0.0973,-0.335605 -0.259,0.03884 c -0.21204,0.0318 -0.32526,0.004 -0.62455,-0.153459 l -0.36557,-0.192299 -0.18931,0.375017 c -0.27211,0.539059 -0.87808,1.161804 -1.3626,1.400335 -0.6662,0.327966 -1.6062,0.329548 -1.90154,0.0032 -0.0965,-0.106611 -0.14252,-0.109376 -0.59506,-0.03574 -0.98447,0.160193 -1.32599,0.268568 -1.6723,0.53068 -0.18247,0.138108 -0.6701,0.424645 -1.08363,0.636748 -0.73238,0.375652 -0.76541,0.385823 -1.2752,0.392664 l -0.52335,0.007 0.33447,0.08164 c 0.42301,0.103253 0.50979,0.161999 1.11016,0.751501 0.46501,0.456591 0.57453,0.613314 0.42862,0.613314 -0.0349,0 -0.0635,0.141499 -0.0635,0.314443 0,0.276895 0.027,0.340646 0.22594,0.533872 0.22802,0.22145 0.34363,0.274282 1.55206,0.709265 0.7009,0.252294 1.0795,0.477874 1.0795,0.643195 0,0.06987 -0.0326,0.0849 -0.11112,0.05131 -0.19607,-0.08381 -1.307,-0.477836 -1.63513,-0.579946 -0.47531,-0.147912 -0.86034,-0.361081 -1.13471,-0.62824 -0.16609,-0.161723 -0.23374,-0.199863 -0.20874,-0.1177 0.28621,0.941077 0.37528,1.162061 0.52399,1.300127 0.21081,0.195729 0.59288,0.754074 0.81068,1.184689 0.24834,0.491024 0.2255,0.756018 -0.11974,1.389367 l -0.28727,0.527013 0.25474,0.336578 c 0.42719,0.564417 0.8443,1.779805 0.92191,2.686278 0.0758,0.884991 0.0466,0.830814 0.59506,1.106556 0.48221,0.242454 0.76821,0.496992 1.08311,0.963969 0.2204,0.326867 0.48956,0.487387 1.17091,0.698367 0.70964,0.21972 0.91876,0.40886 1.09359,0.98912 0.23534,0.78107 0.14739,1.197 -0.41142,1.94555 -0.48115,0.64453 -0.53457,0.81226 -0.49842,1.56513 0.0258,0.53719 0.0661,0.74944 0.20505,1.07852 0.19361,0.45871 0.18254,0.56268 -0.13649,1.28237 -0.12631,0.28492 -0.14475,0.38516 -0.0897,0.48795 0.0381,0.0711 0.0692,0.26932 0.0692,0.44039 v 0.31101 l 0.56257,0.47288 c 0.62383,0.52437 1.29645,1.27953 1.52434,1.7114 l 0.14869,0.28179 -0.25071,0.41275 c -0.1379,0.22701 -0.26954,0.52705 -0.29254,0.66675 -0.023,0.1397 -0.059,0.34501 -0.0799,0.45625 -0.0372,0.19749 -0.0275,0.20761 0.4137,0.42978 0.2485,0.12515 0.60151,0.28262 0.78448,0.34995 0.40748,0.14994 1.83209,0.55231 2.15828,0.60959 0.34085,0.0598 0.29635,0.19201 -0.0953,0.28286 -0.18336,0.0425 -0.64731,0.17758 -1.031,0.30011 -0.63529,0.20286 -0.72476,0.25122 -1.00133,0.5412 -0.25913,0.27169 -0.29925,0.34739 -0.27341,0.51584 0.0166,0.10858 0.0482,0.36439 0.07,0.56846 0.0391,0.36565 0.0438,0.37286 0.32061,0.4953 0.72247,0.31958 2.39959,0.53785 3.5509,0.46215 0.3191,-0.021 0.68286,-0.009 0.82484,0.0274 0.29372,0.0751 0.41009,0.065 1.016,-0.0877 z m -6.7695,-3.16993 c -0.30248,-0.77897 -0.38334,-1.16241 -0.30583,-1.45025 l 0.0673,-0.2499 -0.49932,-0.5168 c -0.27462,-0.28424 -2.15539,-2.27282 -4.17948,-4.41906 l -3.68016,-3.90228 -0.0393,0.47328 c -0.0607,0.73181 -0.17798,1.19846 -0.41246,1.64171 -0.27448,0.51887 -0.27621,0.70968 -0.009,0.95252 0.24253,0.2201 9.21909,7.94366 9.23245,7.94374 0.005,2e-5 -0.0736,-0.2128 -0.17458,-0.47296 z m -5.05016,-1.43431 c -0.0362,-0.0362 -1.04697,-0.66563 -2.24617,-1.39873 -1.38765,-0.84831 -2.20244,-1.31083 -2.2411,-1.27217 -0.0334,0.0334 -0.0642,0.22296 -0.0684,0.42121 l -0.008,0.36046 1.80975,0.79213 c 2.61977,1.14667 2.92461,1.26812 2.75359,1.0971 z M 99.926418,110.7265 c -0.05764,-0.0531 -1.133308,-0.46995 -2.119457,-0.82139 -0.369717,-0.13176 -0.732227,-0.27169 -0.805578,-0.31094 -0.07335,-0.0393 -0.613819,-0.24091 -1.201038,-0.44813 -0.587219,-0.20722 -1.510584,-0.53826 -2.051922,-0.73566 -1.043059,-0.38034 -1.136837,-0.41288 -2.82575,-0.9804 -0.593725,-0.1995 -1.265237,-0.42676 -1.49225,-0.505 -0.227012,-0.0783 -0.741362,-0.24215 -1.143,-0.36423 -0.401638,-0.12207 -0.944563,-0.29399 -1.2065,-0.38205 -0.261938,-0.0881 -0.661988,-0.21152 -0.889,-0.27436 -0.227013,-0.0629 -0.541338,-0.15856 -0.6985,-0.21269 -0.157163,-0.0541 -0.528638,-0.16057 -0.8255,-0.23654 -0.296863,-0.076 -0.722693,-0.19233 -0.946289,-0.25857 -0.38966,-0.11545 -0.541241,-0.11489 -0.414728,0.002 0.0326,0.03 0.487892,0.21393 1.011767,0.40873 0.523875,0.1948 4.252912,1.68226 8.28675,3.30548 l 7.33425,2.95131 0.0185,-0.54542 c 0.01017,-0.29998 -0.0041,-0.56624 -0.03175,-0.59169 z m 13.138602,-8.3436 c -0.0531,-1.01147 0.11411,-1.4226 0.63561,-1.56303 l 0.25794,-0.0694 -0.33238,-0.154 c -0.44665,-0.20694 -0.64671,-0.19758 -0.92081,0.0431 -0.21463,0.18845 -0.22446,0.21555 -0.22456,0.61912 0,0.37201 0.0351,0.49545 0.29672,1.04117 0.16325,0.34052 0.30105,0.61913 0.30622,0.61913 0.005,0 -0.003,-0.24121 -0.0187,-0.53603 z m -9.22369,-14.960005 c 0.55565,-0.268704 0.92049,-0.499237 0.87,-0.549726 -0.0165,-0.01645 -0.28226,-0.08505 -0.5907,-0.152454 -0.30844,-0.0674 -0.82362,-0.207991 -1.14485,-0.312419 -0.32123,-0.104428 -0.62142,-0.189587 -0.66708,-0.189242 -0.0799,5.71e-4 -0.77078,1.015538 -0.7235,1.062819 0.0547,0.05466 1.35649,0.387729 1.53283,0.392171 0.10662,0.0027 0.43211,-0.110332 0.7233,-0.251149 z m 6.51234,-1.116493 c 1.20004,-0.06824 1.24164,-0.07241 1.778,-0.178231 0.2794,-0.05512 0.59808,-0.100227 0.70817,-0.100233 0.16741,-9e-6 0.21157,-0.03273 0.26987,-0.199986 0.10036,-0.287883 0.0858,-0.809716 -0.0323,-1.156217 -0.20152,-0.591423 -0.97206,-1.239632 -1.59412,-1.341036 -0.22767,-0.03711 -0.29887,-0.01954 -0.47967,0.118358 -0.11677,0.08907 -0.32426,0.208716 -0.46109,0.265885 l -0.24877,0.103945 0.17122,0.08971 c 0.19295,0.101097 0.3282,0.31011 0.2659,0.410916 -0.0262,0.04239 -0.0913,0.02017 -0.17756,-0.06058 -0.22815,-0.213691 -0.4275,-0.250482 -1.16721,-0.215421 -0.67546,0.03201 -0.74118,0.02356 -1.34577,-0.173138 -0.68081,-0.221497 -1.0308,-0.225989 -1.13671,-0.01459 -0.1117,0.222965 0.13631,0.687486 0.49311,0.923606 0.22214,0.147005 0.33509,0.296037 0.22436,0.296037 -0.10531,0 -0.52885,-0.218171 -0.66471,-0.342401 -0.14555,-0.133095 -0.25377,-0.151181 -1.30175,-0.217537 -0.63281,-0.04007 -1.49729,-0.14065 -1.93675,-0.225337 -1.57267,-0.303069 -2.29053,-0.3468 -2.52412,-0.153767 -0.134,0.110733 -0.0862,0.198532 0.257,0.47233 0.53075,0.423376 1.04499,0.700096 1.8046,0.971061 0.80566,0.287396 1.23725,0.394801 2.14527,0.533866 0.86482,0.132449 3.29656,0.290229 3.90525,0.253387 0.15717,-0.0095 0.62865,-0.03679 1.04775,-0.06063 z m 3.9815,0.03272 c 0.66818,-0.138606 1.25275,-0.64433 1.72375,-1.491258 l 0.24425,-0.439188 -0.0296,-0.635 c -0.0397,-0.852615 -0.19584,-1.259691 -0.63422,-1.653838 -0.40003,-0.359659 -0.76002,-0.546497 -1.53166,-0.794947 l -0.59255,-0.190787 -0.60354,0.156811 c -1.20355,0.312709 -1.77351,0.626442 -1.88818,1.039346 -0.10572,0.380671 -0.0935,0.41199 0.13987,0.358076 0.44503,-0.102818 0.92189,-0.04112 1.36384,0.176447 0.51199,0.252056 1.10424,0.784788 1.28302,1.154081 0.24253,0.500995 0.14154,1.612238 -0.18865,2.075951 -0.11714,0.164504 -0.12682,0.210229 -0.0542,0.256203 0.11941,0.07561 0.3643,0.07182 0.76787,-0.0119 z m 3.29884,-2.073321 c 0.11816,-0.130969 0.28122,-0.345674 0.36235,-0.477122 0.28561,-0.462771 1.08334,-0.928043 1.98743,-1.159147 0.34028,-0.08698 0.46046,-0.159034 0.77341,-0.463672 0.46625,-0.45387 0.74543,-0.850954 0.72488,-1.031031 -0.014,-0.122716 0.0486,-0.159776 0.52384,-0.309993 0.29687,-0.09384 0.80353,-0.282436 1.12592,-0.419107 0.64611,-0.273907 0.6683,-0.301518 0.78086,-0.971747 0.0398,-0.236804 0.15677,-0.494792 0.38762,-0.854662 0.36969,-0.576313 0.62324,-1.221754 0.62526,-1.591636 0.001,-0.181652 -0.0562,-0.323814 -0.21974,-0.546666 -0.12159,-0.165644 -0.44558,-0.726685 -0.71997,-1.246757 -0.69244,-1.312428 -1.08373,-2.002942 -1.21953,-2.152085 -0.32787,-0.360094 -0.83126,-1.291786 -1.04577,-1.935552 -0.17033,-0.511176 -0.31702,-0.812821 -0.56218,-1.156047 -0.48618,-0.680649 -0.61402,-0.905576 -0.79801,-1.403997 l -0.16562,-0.448698 -0.51395,-0.200721 c -0.28268,-0.110396 -0.75385,-0.355712 -1.04705,-0.545145 -0.62267,-0.402303 -0.70824,-0.442961 -1.54909,-0.73598 -0.34925,-0.121708 -0.99218,-0.372867 -1.42875,-0.558132 -0.76605,-0.325094 -0.81854,-0.33791 -1.50453,-0.367357 l -0.71078,-0.03051 -0.0425,0.340294 c -0.0234,0.187161 -0.0239,0.414328 -0.001,0.504816 0.0357,0.142167 0.0143,0.17468 -0.15757,0.239276 l -0.19887,0.07475 0.0311,0.762 c 0.0987,2.413971 0.29317,3.437995 1.02531,5.3975 0.0913,0.244475 0.1793,0.482137 0.19546,0.528138 0.0401,0.114117 0.45689,-0.122146 0.75612,-0.428577 l 0.22455,-0.229962 -0.13193,-0.266655 c -0.1437,-0.290434 -0.22603,-0.91775 -0.1567,-1.193964 0.0552,-0.220092 0.11723,-0.149536 0.25417,0.28927 0.1445,0.463035 0.34322,0.756847 0.66073,0.976879 l 0.26115,0.180975 0.49819,-0.134427 c 0.59123,-0.159534 0.71178,-0.16617 0.71178,-0.03918 0,0.05239 -0.0216,0.09525 -0.048,0.09525 -0.0264,0 -0.16885,0.113858 -0.31659,0.253018 -0.25078,0.236218 -0.26368,0.264678 -0.19432,0.428625 0.14718,0.347816 0.19177,0.365729 0.63496,0.255082 0.22009,-0.05495 0.56185,-0.134963 0.75947,-0.177811 l 0.3593,-0.07791 0.45844,0.304769 c 0.25813,0.171604 0.89189,0.479979 1.45045,0.705762 1.17892,0.476547 1.40475,0.588186 1.40475,0.694418 0,0.128199 -0.1439,0.144232 -0.34925,0.03891 -0.10477,-0.05374 -0.42044,-0.110246 -0.70147,-0.125574 -0.46137,-0.02516 -0.56,-0.0083 -1.016,0.173557 -0.76524,0.305209 -0.77719,0.338427 -0.21475,0.596973 0.25945,0.119266 0.6862,0.292087 0.94834,0.384047 0.26214,0.09196 0.57104,0.224622 0.68645,0.294803 0.32288,0.196354 0.51433,0.794589 0.27909,0.872088 -0.045,0.01483 -0.22454,-0.118008 -0.39895,-0.295195 -0.17442,-0.177186 -0.43763,-0.391808 -0.58491,-0.476937 -0.33089,-0.191246 -0.88408,-0.357441 -1.04751,-0.314702 -0.0671,0.01755 -0.34774,-0.0559 -0.62364,-0.163222 -0.65085,-0.253159 -0.70275,-0.25035 -0.78406,0.04242 -0.10011,0.360489 -0.0908,0.378695 0.25057,0.492093 0.56765,0.188543 1.04194,0.599622 1.73047,1.499824 0.1202,0.157164 0.1507,0.436958 0.0476,0.436958 -0.0349,0 -0.0635,-0.02666 -0.0635,-0.05925 0,-0.141282 -0.60478,-0.540625 -1.03397,-0.682749 -0.53762,-0.178025 -1.25203,-0.267248 -1.25203,-0.156368 0,0.133061 -0.46282,0.586933 -0.93388,0.915832 -0.51126,0.356964 -0.51002,0.381437 0.0249,0.491897 0.42706,0.08819 0.86254,0.212322 0.95658,0.272683 0.27385,0.175778 -0.16226,0.214279 -1.24299,0.109734 l -0.59212,-0.05728 -0.45563,0.305433 c -0.2506,0.167987 -0.69138,0.39818 -0.97951,0.51154 -0.28926,0.113802 -0.52388,0.243828 -0.52388,0.290332 0,0.07973 0.36157,0.216074 0.57504,0.21684 0.0543,1.9e-4 0.19562,-0.07108 0.31396,-0.158396 0.12225,-0.09019 0.29897,-0.157764 0.40922,-0.156467 l 0.19403,0.0023 -0.18145,0.148424 c -0.25044,0.204849 -0.18435,0.360683 0.27003,0.636706 0.76251,0.4632 1.23622,1.163867 1.31289,1.941879 0.0379,0.384864 0.0587,0.430752 0.25652,0.566297 0.27252,0.186731 0.27105,0.271501 -0.007,0.404089 -0.33499,0.159747 -0.29772,0.362038 0.0667,0.362038 0.15552,0 0.25555,-0.05683 0.41914,-0.238125 z M 115.8395,68.514857 c 0.0959,-0.179223 0.26988,-0.309936 0.68952,-0.518087 0.58622,-0.290787 1.19638,-0.413476 1.65077,-0.331939 0.40014,0.0718 0.8766,0.251795 0.819,0.309395 -0.02,0.02 -0.30169,2.54e-4 -0.62599,-0.04392 -0.72134,-0.09821 -1.10618,-0.01914 -2.00354,0.411666 -0.41932,0.201305 -0.57156,0.250986 -0.52976,0.172881 z m 1.39202,9.358872 c 0.23159,-0.251246 0.2659,-0.326029 0.2659,-0.579607 0,-0.160129 0.0602,-0.482236 0.13377,-0.715794 0.22176,-0.703966 0.24616,-0.796143 0.21813,-0.824168 -0.0148,-0.01479 -0.14779,0.04048 -0.29556,0.122813 -0.29975,0.167025 -0.42443,0.415226 -0.4325,0.860981 -0.005,0.278548 -0.11431,0.7448 -0.28533,1.217582 -0.0553,0.152822 -0.10051,0.289559 -0.10051,0.303859 0,0.07245 0.26048,-0.130043 0.4961,-0.385666 z M 99.062544,67.077142 c 0.979356,-0.143785 3.138016,-0.717831 3.224286,-0.857426 0.019,-0.03071 0.0171,-0.101165 -0.004,-0.156575 -0.0429,-0.111726 -0.23138,-0.103013 -1.35875,0.0628 -2.615294,0.384648 -3.936745,0.494171 -6.97151,0.577801 l -1.632747,0.045 0.98425,0.145717 c 1.83262,0.271317 2.631581,0.3337 3.90525,0.304922 0.663575,-0.01499 1.497592,-0.07 1.853371,-0.122231 z m 14.029426,-1.06759 c 0.003,-0.253207 0.0139,-0.7747 0.0243,-1.158875 0.0113,-0.418138 -0.01,-0.768787 -0.0529,-0.873614 -0.0418,-0.102187 -0.23373,-0.279834 -0.46075,-0.426567 -0.377,-0.243663 -0.39351,-0.248084 -0.53318,-0.142729 -0.16597,0.125189 -0.14917,0.204619 0.11296,0.534023 0.18973,0.238425 0.35917,0.794276 0.361,1.184243 8.3e-4,0.173781 0.0881,0.552196 0.29181,1.264519 0.0125,0.04366 0.0741,0.07937 0.13699,0.07937 0.0991,0 0.11502,-0.06141 0.11974,-0.460375 z m -9.10425,-0.556808 c 0.85291,-0.21225 1.51932,-0.451787 1.37683,-0.494891 -0.05,-0.01512 -0.35848,-0.126425 -0.68555,-0.247345 l -0.59466,-0.219855 -0.77059,0.140427 c -0.42382,0.07724 -0.8063,0.168884 -0.84995,0.203663 -0.10768,0.08579 -0.10031,0.573153 0.0128,0.843774 l 0.0921,0.220512 0.32054,-0.126344 c 0.17629,-0.06949 0.67062,-0.213462 1.09849,-0.319941 z m -0.33713,-1.180691 c 0.0154,-0.01515 -0.0418,-0.07633 -0.127,-0.135961 -0.0852,-0.05963 -0.26207,-0.20517 -0.39304,-0.323428 -0.25681,-0.231885 -0.28592,-0.207913 -0.15225,0.125383 0.0472,0.117771 0.10468,0.267259 0.12767,0.332196 0.0348,0.0984 0.0814,0.110677 0.27925,0.07371 0.1306,-0.02439 0.25002,-0.05675 0.26537,-0.0719 z m 3.88996,-1.198585 c 0.74782,-0.09843 2.00872,-0.38358 2.71787,-0.614632 0.52997,-0.172672 1.73853,-0.774604 2.05218,-1.022097 0.22071,-0.174161 0.88055,-1.003093 1.33917,-1.682346 l 0.18249,-0.270284 -0.0729,-0.64066 c -0.0698,-0.613641 -0.2542,-1.432496 -0.50624,-2.247773 l -0.11779,-0.381 -0.78348,-0.393585 c -0.94616,-0.475309 -1.23017,-0.738646 -1.6769,-1.554798 l -0.32382,-0.591617 -0.31623,-0.02 c -0.83915,-0.05308 -4.22575,0.532779 -5.81426,1.005819 -0.62563,0.186307 -1.59329,0.907594 -1.90635,1.420988 -0.1014,0.166292 -0.11998,0.325008 -0.12018,1.026833 l -2.5e-4,0.830138 -0.29019,0.453562 -0.29018,0.453563 0.23161,0.589549 c 0.47878,1.218656 1.01864,2.070222 1.71719,2.70866 0.55493,0.507176 0.87033,0.697512 1.33401,0.805047 1.00672,0.233473 1.60357,0.261606 2.64418,0.124634 z m 0.17787,-1.794833 c 0,-0.100132 0.12921,-0.182815 0.60781,-0.388937 0.65384,-0.281594 0.85269,-0.319473 0.85269,-0.162419 0,0.103754 -0.93493,0.573408 -1.27809,0.642041 -0.15229,0.03046 -0.18241,0.01549 -0.18241,-0.09069 z m -2.413,-0.455548 c 0,-0.03236 0.15382,-0.146843 0.34181,-0.254403 0.45794,-0.262008 0.58208,-0.405334 0.24776,-0.286065 -0.61383,0.218986 -1.20494,0.03068 -1.62148,-0.516556 -0.31189,-0.409747 -0.6253,-1.169331 -0.66553,-1.613011 -0.0394,-0.434971 0.0773,-1.031872 0.22852,-1.168756 0.20206,-0.182862 0.82963,-0.35687 1.28708,-0.35687 0.57937,0 0.91482,0.137545 1.06491,0.43664 0.32893,0.655477 0.5477,1.608036 0.4972,2.164934 l -0.034,0.375192 0.14772,-0.170758 c 0.1284,-0.148416 0.1532,-0.156675 0.18958,-0.06312 0.088,0.226201 -0.69734,1.108257 -1.2275,1.378725 -0.27723,0.141436 -0.45605,0.170471 -0.45605,0.07405 z m 0.44811,-0.830113 c 0.12423,-0.03451 0.30908,-0.149607 0.4108,-0.255774 0.15938,-0.166355 0.18818,-0.251969 0.20845,-0.619527 0.0273,-0.494786 -0.10586,-1.138065 -0.34652,-1.67434 -0.15222,-0.33918 -0.18784,-0.37399 -0.48313,-0.472067 -0.37402,-0.124232 -0.93527,-0.09576 -1.24234,0.06303 -0.67086,0.346918 -0.54846,1.728237 0.22951,2.590112 0.36541,0.404823 0.71431,0.509946 1.22323,0.368566 z m 4.02864,-0.979643 c -0.57394,-0.131658 -1.00958,-0.321927 -1.04678,-0.45719 -0.018,-0.06543 -0.11044,-0.233379 -0.20544,-0.37322 -0.36699,-0.540217 -0.68674,-1.599892 -0.59484,-1.971397 0.0645,-0.260846 0.71022,-0.873071 1.06284,-1.007734 0.77375,-0.2955 1.4715,0.385597 1.82706,1.783466 0.15805,0.621342 0.16603,0.949341 0.0313,1.28611 -0.11708,0.292607 -0.30935,0.436608 -0.68105,0.510065 -0.22818,0.04509 -0.18696,0.05357 0.28956,0.05954 0.30559,0.0038 0.55562,0.03248 0.55562,0.06366 0,0.158941 -0.73456,0.222238 -1.23825,0.106698 z m 0.50174,-0.569447 c 0.29941,-0.125099 0.41901,-0.326263 0.41901,-0.704738 0,-0.564645 -0.3759,-1.667271 -0.68971,-2.023096 -0.33106,-0.375379 -0.77643,-0.399816 -1.25682,-0.06896 -0.60161,0.414348 -0.66546,0.726227 -0.33542,1.63835 0.22233,0.614445 0.58358,1.08396 0.90575,1.177217 0.30497,0.08828 0.72049,0.08013 0.95719,-0.01878 z m -8.43846,-1.489188 c -0.0593,-0.748633 0.066,-1.054233 0.66298,-1.617381 0.56628,-0.534196 1.17989,-0.907441 2.32505,-1.414269 1.27935,-0.566214 1.58118,-0.679303 2.95923,-1.108764 1.48169,-0.461757 1.81475,-0.527225 2.51243,-0.493869 0.99621,0.04763 1.379,0.40655 1.59804,1.498377 0.11588,0.577648 0.11732,0.580355 0.62589,1.169937 0.28036,0.325022 0.5809,0.657085 0.66787,0.737918 l 0.15813,0.146968 0.0293,-0.242218 c 0.10523,-0.868661 -0.2893,-2.733341 -0.80689,-3.813669 -0.61354,-1.280588 -1.27745,-1.634417 -3.30335,-1.76051 -0.80959,-0.05039 -1.83647,0.03875 -2.667,0.231521 -1.29733,0.301118 -2.9203,0.976162 -3.91619,1.62888 -0.8268,0.541888 -1.7208,1.463919 -2.1654,2.233309 l -0.16513,0.28575 0.21329,0.837452 c 0.21159,0.830784 0.62294,1.81273 0.87948,2.099423 0.0703,0.07858 0.19733,0.142875 0.28226,0.142875 h 0.15443 z"
       id="path727"
       sodipodi:nodetypes="csscccsssccccssscscsscscscscsssscsssscssscscsscscsssccccsssccscsssscccssscccsscscscccscsccscssccccsssscscscssssssccssccsssssscssssssssssssscssscccssssssssscssssssssccccsssscccccscssccssssscsssscsssscssscsscscscscscsssscccsssccsssscsscccsccscssscccscscssscscsssccsssscssscssscsccscccccscsccsssssccccscscsccccccssssscccccccccsssscccccsssccssccscsscsssssscssssssscssscssccsscsscsssssccsssscscscscsscssccssscscscssscsscssccccssssssssscsssscsccssccssssccscscsscsccssssssccssssssscsscssscscsscssscssscsscsscssccssccssccccscscccscscccssccscccscssscsccccscsscscccccsscssccscssccsssssscssscsscssssssssscsssssssccsscssssssssscsssssscsscssssscssssscccscccsscscsscsssscsscssssscssssssssscssssssssscsssssccsscsssccsssscssssssssccsscccsscsscccccsssssscccsscssccscccssccscssssccscsscsssccccssssssssssscsssccssccscsccsscsssssssscsscscssssssssssscsssssssccssssscssscc" /><path
       d="m 66.633923,75.455177 v -5.36575 h 1.61925 1.61925 v 4.064 4.064 h 2.12725 2.12725 v 1.30175 1.30175 h -3.7465 -3.7465 z m 8.6995,0 v -5.36575 h 1.651 1.651 v 5.36575 5.36575 h -1.651 -1.651 z m 5.207,0 v -5.36575 l 1.571625,0.0028 1.571625,0.0028 1.329919,2.101534 c 0.731454,1.155842 1.488692,2.318961 1.68275,2.584706 l 0.352831,0.483172 0.01659,-2.587549 0.01659,-2.587549 h 1.332788 1.332788 v 5.367013 5.367013 l -1.346632,-0.01714 -1.346633,-0.01714 -1.479664,-2.38125 c -0.813816,-1.309688 -1.6723,-2.707692 -1.907743,-3.106675 l -0.428078,-0.725425 -0.01647,3.12255 -0.01647,3.12255 h -1.332901 -1.332902 z m 11.1125,0 v -5.36575 h 1.55575 1.55575 l 0.002,2.111375 c 0.0018,1.899745 0.01166,2.098645 0.09821,1.984375 0.0529,-0.06985 0.644925,-1.019846 1.315605,-2.111102 l 1.219419,-1.984101 1.603375,-2.54e-4 c 1.240808,-1.9e-4 1.603248,0.01767 1.602808,0.0791 -3.2e-4,0.04366 -0.62896,1.235141 -1.396999,2.647743 -0.768038,1.412583 -1.396434,2.591672 -1.396434,2.620179 0,0.02851 0.62865,1.220092 1.397,2.647967 0.76835,1.427876 1.396993,2.627655 1.396993,2.666177 0,0.04953 -0.56238,0.06972 -1.920868,0.06894 l -1.920875,-0.0011 -0.98425,-2.137328 -0.98425,-2.137329 -0.01672,2.138432 -0.01672,2.13843 h -1.554905 -1.554906 z m 9.651997,3.84175 v -1.524 h 1.4605 1.4605 v 0.41275 0.41275 h 1.55575 1.55575 v -0.98425 -0.98425 h -3.01625 -3.01625 v -3.27025 -3.27025 h 4.572 4.572 v 1.3335 1.3335 h -1.397 -1.397 v -0.381 -0.381 h -1.68275 -1.68275 v 1.0795 1.0795 h 2.59392 c 1.42666,0 2.81254,0.01848 3.07975,0.04107 l 0.48583,0.04107 v 3.292683 3.292682 h -4.572 -4.572 z"
       style="fill:#ff0000;stroke-width:0.0635"
       id="path737" /></g></svg>
