<?xml version="1.0" encoding="UTF-8" standalone="no"?>
<!-- Created with Inkscape (http://www.inkscape.org/) -->

<svg
   version="1.1"
   id="svg4077"
   width="165.59999"
   height="40.56966"
   viewBox="0 0 165.59999 40.56966"
   sodipodi:docname="linkstitle.svg"
   inkscape:version="1.1 (c68e22c387, 2021-05-23)"
   xmlns:inkscape="http://www.inkscape.org/namespaces/inkscape"
   xmlns:sodipodi="http://sodipodi.sourceforge.net/DTD/sodipodi-0.dtd"
   xmlns="http://www.w3.org/2000/svg"
   xmlns:svg="http://www.w3.org/2000/svg">
  <defs
     id="defs4081" />
  <sodipodi:namedview
     id="namedview4079"
     pagecolor="#ffffff"
     bordercolor="#666666"
     borderopacity="1.0"
     inkscape:pageshadow="2"
     inkscape:pageopacity="0.0"
     inkscape:pagecheckerboard="0"
     showgrid="false"
     fit-margin-top="0"
     fit-margin-left="0"
     fit-margin-right="0"
     fit-margin-bottom="0"
     inkscape:zoom="2.4166667"
     inkscape:cx="-26.275862"
     inkscape:cy="10.137931"
     inkscape:window-width="1920"
     inkscape:window-height="1001"
     inkscape:window-x="-9"
     inkscape:window-y="-9"
     inkscape:window-maximized="1"
     inkscape:current-layer="g4083" />
  <g
     inkscape:groupmode="layer"
     inkscape:label="Image"
     id="g4083"
     transform="translate(-28.030345,-113.78483)">
    <path
       style="fill:#000000;stroke-width:0.24"
       d="m 28.030345,134.06483 v -20.28 h 6.12 6.12 v 15.36 15.36 h 8.04 8.04 v 4.92 4.92 h -14.16 -14.16 z m 32.88,0 v -20.28 h 6.24 6.24 v 20.28 20.28 h -6.24 -6.24 z m 19.68,0 v -20.28 l 5.94,0.0108 5.94,0.0108 5.02646,7.94281 c 2.764555,4.36854 5.626555,8.76457 6.359995,9.76896 l 1.33354,1.82617 0.0627,-9.77972 0.0627,-9.77971 h 5.03731 5.03731 v 20.28478 20.28477 l -5.08963,-0.0648 -5.08964,-0.0648 -5.592425,-9 c -3.07584,-4.95 -6.3205,-10.23379 -7.21037,-11.74176 l -1.61795,-2.74183 -0.06226,11.80177 -0.06226,11.80176 h -5.03774 -5.03774 z m 41.999995,0 v -20.28 h 5.88 5.88 l 0.008,7.98 c 0.007,7.18014 0.0441,7.93189 0.37118,7.5 0.19994,-0.264 2.43751,-3.85453 4.97236,-7.97897 l 4.60846,-7.49896 6.06,-9.6e-4 c 4.68969,-7.2e-4 6.05952,0.0668 6.05786,0.29896 -0.001,0.165 -2.37717,4.66825 -5.28,10.00722 -2.90282,5.3389 -5.27786,9.7953 -5.27786,9.90304 0,0.10774 2.376,4.61137 5.28,10.00806 2.904,5.3967 5.28,9.9313 5.28,10.07689 0,0.18722 -2.12555,0.2635 -7.26,0.26055 l -7.26,-0.004 -3.72,-8.07809 -3.72,-8.07809 -0.0632,8.08226 -0.0632,8.08209 h -5.87681 -5.87681 z m 36.48,14.52 v -5.76 h 5.52 5.52 v 1.56 1.56 h 5.88 5.88 v -3.72 -3.72 h -11.4 -11.4 v -12.36 -12.36 h 17.28 17.28 v 5.04 5.04 h -5.28 -5.28 v -1.44 -1.44 h -6.36 -6.36 v 4.08 4.08 h 9.80379 c 5.39207,0 10.63007,0.0699 11.63999,0.15522 l 1.83622,0.15521 v 12.44479 12.44478 h -17.28 -17.28 z"
       id="path4162"
       sodipodi:nodetypes="ccccccccccccccccccccccccccsscccccccccsscccccccccccsccscsssscccccccccccccccccccccccccccccccccccsccccccc" />
  </g>
</svg>
