<?xml version="1.0" encoding="UTF-8" standalone="no"?>
<!-- Created with Inkscape (http://www.inkscape.org/) -->

<svg
   version="1.1"
   id="svg3651"
   width="300.71683"
   height="41.761768"
   viewBox="0 0 300.71683 41.761768"
   sodipodi:docname="portfoliotile.svg"
   inkscape:version="1.3.2 (091e20e, 2023-11-25, custom)"
   xmlns:inkscape="http://www.inkscape.org/namespaces/inkscape"
   xmlns:sodipodi="http://sodipodi.sourceforge.net/DTD/sodipodi-0.dtd"
   xmlns="http://www.w3.org/2000/svg"
   xmlns:svg="http://www.w3.org/2000/svg">
  <defs
     id="defs3655">
    <pattern
       patternUnits="userSpaceOnUse"
       width="147.36862"
       height="44.88001"
       patternTransform="translate(22.335199,54.778582)"
       id="pattern1389">
      <path
         style="fill:#e6e6e6;stroke-width:0.24"
         d="m 133.68,43.44001 v -1.44 H 120.96 108.24 V 21 0 h 18.48 18.48 v 6.96 6.96 h -6 -6 V 11.4 8.88 h -5.88 -5.88 v 10.56 10.56001 h 6.12 6.12 v -1.92 V 26.16 h -3.36 -3.36 v -4.2 -4.2 h 9.12 9.12 v 13.56001 13.56 h -5.76 -5.76 z M 68.160002,20.88 V 0 H 86.040001 103.92 V 20.88 41.76001 H 86.040001 68.160002 Z m 25.199999,0.24 V 8.88 h -7.2 -7.2 v 12.24 12.24001 h 7.2 7.2 z M 0,20.88 V 0.48 h 15.6 15.6 l -0.004,8.1 -0.004,8.1 -2.51576,1.65217 c -1.38366,0.90869 -2.51189,1.71869 -2.50716,1.8 0.005,0.0813 1.13874,1.0512 2.52,2.15532 l 2.51142,2.0075 v 8.49251 8.49251 h -15.6 -15.6 z M 19.04549,31.54902 20.16,30.69802 V 28.56772 26.4374 L 19.1568,25.5787 18.1536,24.72 H 13.7568 9.36 v 3.68001 c 0,2.024 0.072,3.752 0.16,3.84 0.088,0.088 2.01647,0.16 4.28549,0.16 h 4.12549 z m 0,-16.08001 1.11451,-0.851 V 12.72507 10.83214 L 19.11528,9.97607 18.07056,9.12 H 13.71528 9.36 v 3.44 c 0,1.892 0.072,3.512 0.16,3.6 0.088,0.088 2.01647,0.16 4.28549,0.16 h 4.12549 z M 36.24,20.87595 V 0.4719 l 6.180002,0.0641 6.18,0.064 0.0618,15.42 0.0618,15.42001 h 8.03823 8.03824 v 4.92 4.92 H 50.520002 36.24 Z M 147.36862,18.06 c 2e-5,-2.6e-4 -7.7e-4,2.6e-4 -7.7e-4,0 z"
         id="path1333"
         sodipodi:nodetypes="cccccccccccccccccccccccccccccccccccccccccccccccccccccccccscsccccccccccccccsssccccccccccssscccccccccccccccccc" />
    </pattern>
    <pattern
       patternUnits="userSpaceOnUse"
       width="151.10311"
       height="48.62001"
       patternTransform="translate(-191.39687,-54.263832)"
       id="pattern2968">
      <path
         style="mix-blend-mode:lighten;fill:#ececec;stroke:#ffffff;stroke-width:3.74;stroke-miterlimit:4;stroke-dasharray:none;paint-order:stroke fill markers"
         d="m 135.55,45.31001 v -1.44 H 122.83 110.11 V 22.87 1.87 h 18.48 18.48 v 6.96 6.96 h -6 -6 v -2.52 -2.52 h -5.88 -5.88 v 10.56 10.56001 h 6.12 6.12 v -1.92 V 28.03 h -3.36 -3.36 v -4.2 -4.2 h 9.12 9.12 v 13.56001 13.56 h -5.76 -5.76 z M 70.03,22.75 V 1.87 h 17.88 17.88 V 22.75 43.63001 H 87.91 70.03 Z m 25.2,0.24 V 10.75 h -7.2 -7.2 v 12.24 12.24001 h 7.2 7.2 z M 1.87,22.75 V 2.35 h 15.6 15.6 l -0.004,8.1 -0.004,8.1 -2.51576,1.65217 c -1.38366,0.90869 -2.51189,1.71869 -2.50716,1.8 0.005,0.0813 1.13874,1.0512 2.52,2.15532 l 2.51142,2.0075 v 8.49251 8.49251 h -15.6 -15.6 z M 20.91549,33.41902 22.03,32.56802 V 30.43772 28.3074 L 21.0268,27.4487 20.0236,26.59 H 15.6268 11.23 v 3.68001 c 0,2.024 0.072,3.752 0.16,3.84 0.088,0.088 2.01647,0.16 4.28549,0.16 h 4.12549 z m 0,-16.08001 1.11451,-0.851 V 14.59507 12.70214 L 20.98528,11.84607 19.94056,10.99 H 15.58528 11.23 v 3.44 c 0,1.892 0.072,3.512 0.16,3.6 0.088,0.088 2.01647,0.16 4.28549,0.16 h 4.12549 z M 38.11,22.74595 V 2.3419 l 6.18,0.0641 6.18,0.064 0.0618,15.42 0.0618,15.42001 h 8.03823 8.03824 v 4.92 4.92 H 52.39 38.11 Z M 149.23862,19.93 c 2e-5,-2.6e-4 -7.7e-4,2.6e-4 -7.7e-4,0 z"
         id="path2814"
         sodipodi:nodetypes="cccccccccccccccccccccccccccccccccccccccccccccccccccccccccscsccccccccccccccsssccccccccccssscccccccccccccccccc" />
    </pattern>
  </defs>
  <sodipodi:namedview
     id="namedview3653"
     pagecolor="#ffffff"
     bordercolor="#666666"
     borderopacity="1.0"
     inkscape:pageshadow="2"
     inkscape:pageopacity="0.0"
     inkscape:pagecheckerboard="0"
     showgrid="false"
     fit-margin-top="0"
     fit-margin-left="0"
     fit-margin-right="0"
     fit-margin-bottom="0"
     inkscape:zoom="1.7088415"
     inkscape:cx="205.10972"
     inkscape:cy="-67.589651"
     inkscape:window-width="1920"
     inkscape:window-height="1017"
     inkscape:window-x="1912"
     inkscape:window-y="-8"
     inkscape:window-maximized="1"
     inkscape:current-layer="g3657"
     inkscape:showpageshadow="2"
     inkscape:deskcolor="#d1d1d1" />
  <g
     inkscape:groupmode="layer"
     inkscape:label="Image"
     id="g3657"
     transform="translate(-21.36707,-88.46811)">
    <path
       id="path5257"
       style="fill:#000000;stroke-width:0.24"
       d="m 97.502313,88.46811 v 21.24023 l 0.002,20.51953 6.357417,0.002 h 6.36133 v -7.81054 -7.81055 l 1.9375,0.0703 1.93945,0.0703 2.92383,7.67968 2.92383,7.67969 7.01758,0.0644 c 3.85969,0.035 7.01758,0.0242 7.01758,-0.0234 0,-0.0476 -1.61962,-4.00108 -3.59961,-8.78516 -1.98,-4.78407 -3.60157,-8.74257 -3.60157,-8.79687 0,-0.0543 0.70255,-0.0996 1.56055,-0.0996 h 1.56055 V 100.82943 88.46811 h -16.20122 z m 12.720697,9.361328 h 4.08008 4.08008 v 3.958982 3.96094 h -4.08008 -4.08008 v -3.96094 z" />
    <path
       style="fill:#000000;stroke-width:0.24"
       d="M 58.509648,109.34987 V 88.469789 l 17.88,7e-5 h 17.88 v 20.880011 20.88001 h -17.88 -17.88 z m 25.2,0.24 V 97.349859 h -7.2 -7.2 v 12.240011 12.24001 h 7.2 7.2 z"
       id="path5434"
       sodipodi:nodetypes="cccccccccccccccccc" />
    <path
       d="m 33.779976,115.13067 v 15.09912 H 21.36707 V 88.470437 l 33.909911,-0.0013 v 26.661533 z m -0.175241,-8.55891 h 9.490829 v -7.710604 h -9.490829 z"
       id="path5636"
       sodipodi:nodetypes="cccccccccccc"
       style="font-size:59.8156px;line-height:1.25;font-family:'Franklin Gothic Heavy';-inkscape-font-specification:'Franklin Gothic Heavy, ';stroke-width:1.49539" />
    <path
       id="path5648"
       style="font-size:59.8156px;line-height:1.25;font-family:'Franklin Gothic Heavy';-inkscape-font-specification:'Franklin Gothic Heavy, ';stroke-width:1.49539"
       d="m 133.98283,88.46811 v 10.830078 h 8.26562 V 130.22983 H 153.8422 V 99.298188 h 8.26563 V 88.46811 Z" />
    <text
       id="text1303"
       y="-92.768272"
       x="-85.437492"
       style="font-style:normal;font-variant:normal;font-weight:normal;font-stretch:normal;font-size:10.1727px;line-height:1.25;font-family:'Franklin Gothic Heavy';-inkscape-font-specification:'Franklin Gothic Heavy, ';letter-spacing:0px;word-spacing:0px;fill:#000000;fill-opacity:1;stroke:none;stroke-width:0.224119"
       xml:space="preserve"
       transform="skewX(18.414568)" />
    <text
       id="text1307"
       y="-90.625862"
       x="-77.224915"
       style="font-style:normal;font-variant:normal;font-weight:normal;font-stretch:normal;font-size:10.1727px;line-height:1.25;font-family:'Franklin Gothic Heavy';-inkscape-font-specification:'Franklin Gothic Heavy, ';letter-spacing:0px;word-spacing:0px;fill:#000000;fill-opacity:1;stroke:none;stroke-width:0.224119"
       xml:space="preserve"
       transform="skewX(18.414568)" />
    <g
       style="font-style:normal;font-variant:normal;font-weight:normal;font-stretch:normal;font-size:35.2502px;line-height:1.25;font-family:'Franklin Gothic Heavy';-inkscape-font-specification:'Franklin Gothic Heavy, ';letter-spacing:0px;word-spacing:0px;fill:#000000;fill-opacity:1;stroke:none;stroke-width:0.881255"
       id="g1309"
       transform="matrix(0.96120209,0,0.32002084,0.96120209,-464.47856,-169.77893)" />
    <path
       style="fill:#000000;stroke-width:0.24"
       d="M 198.76935,109.34922 V 88.469136 l 17.88,7e-5 h 17.88 v 20.880014 20.88001 h -17.88 -17.88 z m 25.2,0.24 V 97.349206 h -7.2 -7.2 v 12.240014 12.24001 h 7.2 7.2 z"
       id="path17"
       sodipodi:nodetypes="cccccccccccccccccc" />
    <path
       d="M 195.53668,114.59632 H 177.82281 V 130.2298 H 165.3405 V 88.469136 h 30.19618 v 9.94301 h -17.71387 v 6.792014 l 17.71387,-1.7e-4 z"
       id="text17"
       style="font-size:62.6563px;font-family:'Franklin Gothic Heavy';-inkscape-font-specification:'Franklin Gothic Heavy, ';fill:#000000;fill-opacity:1;stroke-width:9.59085;stroke-linecap:round;stroke-linejoin:bevel"
       aria-label="F"
       sodipodi:nodetypes="ccccccccccc" />
    <path
       d="m 267.03993,119.98044 v 10.2488 H 237.76201 V 88.469136 h 12.81864 v 31.511304 z"
       id="text18"
       style="font-size:24px;font-family:'Franklin Gothic Heavy';-inkscape-font-specification:'Franklin Gothic Heavy, ';stroke-width:9.59071;stroke-linecap:round;stroke-linejoin:bevel"
       aria-label="L" />
    <path
       d="M 283.09126,88.469774 V 130.22988 H 270.27258 V 88.469774 Z"
       id="text19"
       style="font-size:24px;font-family:'Franklin Gothic Heavy';-inkscape-font-specification:'Franklin Gothic Heavy, ';stroke-width:9.59072;stroke-linecap:round;stroke-linejoin:bevel"
       aria-label="I" />
    <path
       style="fill:#000000;stroke-width:0.24"
       d="M 286.32391,109.34987 V 88.469788 l 17.88,7e-5 h 17.88 v 20.880012 20.88001 h -17.88 -17.88 z m 25.2,0.24 V 97.349858 h -7.2 -7.2 v 12.240012 12.24001 h 7.2 7.2 z"
       id="path19"
       sodipodi:nodetypes="cccccccccccccccccc" />
  </g>
</svg>
