<?xml version="1.0" encoding="UTF-8" standalone="no"?>
<!-- Created with Inkscape (http://www.inkscape.org/) -->

<svg
   width="88.900002mm"
   height="88.900002mm"
   viewBox="0 0 88.900002 88.900002"
   version="1.1"
   id="svg5"
   xml:space="preserve"
   sodipodi:docname="projectstile.svg"
   inkscape:version="1.2.2 (732a01da63, 2022-12-09)"
   xmlns:inkscape="http://www.inkscape.org/namespaces/inkscape"
   xmlns:sodipodi="http://sodipodi.sourceforge.net/DTD/sodipodi-0.dtd"
   xmlns="http://www.w3.org/2000/svg"
   xmlns:svg="http://www.w3.org/2000/svg"><sodipodi:namedview
     id="namedview7"
     pagecolor="#ffffff"
     bordercolor="#000000"
     borderopacity="0.25"
     inkscape:showpageshadow="2"
     inkscape:pageopacity="0.0"
     inkscape:pagecheckerboard="0"
     inkscape:deskcolor="#d1d1d1"
     inkscape:document-units="mm"
     showgrid="false"
     inkscape:zoom="1.0544998"
     inkscape:cx="172.11953"
     inkscape:cy="150.78239"
     inkscape:window-width="1920"
     inkscape:window-height="1017"
     inkscape:window-x="1912"
     inkscape:window-y="-8"
     inkscape:window-maximized="1"
     inkscape:current-layer="layer1" /><defs
     id="defs2" /><g
     inkscape:label="Layer 1"
     inkscape:groupmode="layer"
     id="layer1"
     transform="translate(-44.218422,-36.370926)"><path
       style="fill:#000000;stroke-width:0.0635"
       d="m 89.303423,122.94592 c -0.907386,-0.10479 -1.360289,-0.17339 -2.2225,-0.33667 -0.541338,-0.10252 -1.398588,-0.23233 -1.905,-0.28847 -1.011293,-0.11213 -1.94406,-0.26771 -2.101104,-0.35046 -0.06991,-0.0368 -0.235537,0.0251 -0.53975,0.20179 -1.270065,0.73772 -1.674514,0.82177 -2.534396,0.52667 -0.695264,-0.2386 -1.302703,-0.51811 -1.472387,-0.67752 -0.1856,-0.17436 -0.494692,-0.13493 -1.513529,0.19306 -0.739187,0.23797 -0.794526,0.24603 -1.967084,0.28629 -0.663575,0.0228 -1.471728,0.0733 -1.795895,0.11222 -0.508353,0.0611 -0.652418,0.0555 -1.04775,-0.0401 -0.78075,-0.18892 -1.329396,-0.54272 -1.107896,-0.71445 0.04292,-0.0333 0.334758,-0.1393 0.648523,-0.2356 0.597638,-0.18344 1.287982,-0.50276 1.555759,-0.71962 l 0.157743,-0.12776 -0.378254,-0.0473 c -0.20804,-0.026 -0.736224,-0.0223 -1.173742,0.008 -1.341915,0.0935 -2.012413,0.0676 -2.427558,-0.0938 -0.390614,-0.1519 -0.784614,-0.46976 -0.717302,-0.57867 0.02285,-0.037 0.389356,-0.23545 0.814458,-0.44107 0.425102,-0.20562 0.844351,-0.43269 0.931664,-0.50462 l 0.15875,-0.13078 -0.22225,-0.002 c -0.356047,-0.004 -1.023575,-0.18335 -1.313838,-0.35345 -0.309537,-0.1814 -0.464162,-0.37577 -0.464162,-0.58348 0,-0.17962 0.127193,-0.23278 0.79749,-0.33327 0.46924,-0.0703 1.607998,-0.32113 2.455441,-0.54075 0.200025,-0.0518 0.614363,-0.21127 0.92075,-0.35428 0.495916,-0.23148 0.543438,-0.26809 0.432906,-0.33351 -0.229993,-0.13612 -0.792358,-0.69037 -0.834183,-0.82215 -0.0538,-0.16952 0.119043,-0.29908 0.398982,-0.29908 0.381316,0 0.218477,-0.11194 -0.218511,-0.15021 -0.889964,-0.0779 -1.214244,-0.14025 -1.34481,-0.25841 -0.07236,-0.0655 -0.131565,-0.15546 -0.131565,-0.19994 0,-0.15599 -0.187388,-0.26464 -0.805384,-0.467 -0.441454,-0.14454 -0.669693,-0.2562 -0.782116,-0.38261 -0.184934,-0.20795 -0.497301,-0.32265 -1.5875,-0.58291 -1.368767,-0.32677 -2.20047,-0.58786 -2.627181,-0.82473 -0.07021,-0.039 -0.426751,-0.0573 -0.870382,-0.0447 -0.69088,0.0196 -0.759186,0.011 -0.847424,-0.10571 -0.05279,-0.0699 -0.09688,-0.16575 -0.09799,-0.21311 -0.0011,-0.0474 -0.07403,-0.14276 -0.162038,-0.21199 -0.385621,-0.30332 -0.456881,-0.77373 -0.155612,-1.02723 0.213658,-0.17978 0.344056,-0.20876 1.17288,-0.26069 0.574323,-0.036 0.838796,-0.0123 2.476501,0.22155 0.48895,0.0698 1.352967,0.16069 1.920038,0.20194 1.009306,0.0734 1.034067,0.0722 1.17475,-0.0573 0.161578,-0.14873 0.590021,-0.20792 1.699557,-0.23481 0.490172,-0.0119 0.723859,-0.046 0.882743,-0.12879 0.118847,-0.0619 0.347273,-0.13141 0.507612,-0.15434 0.285705,-0.0409 0.06274,-0.14232 -11.169839,-5.08229 -6.303749,-2.77233 -11.482916,-5.05262 -11.509259,-5.06732 -0.03726,-0.0208 0.696279,-0.90729 1.322505,-1.598286 0.06579,-0.07259 1.62487,0.638289 9.330844,4.254496 l 9.251858,4.34166 -1.250632,0.0318 -1.250631,0.0318 3.672727,1.6445 c 2.019999,0.90447 3.815602,1.70936 3.990227,1.78864 0.269859,0.12251 0.493633,0.15376 1.491357,0.20826 1.146081,0.0626 1.265383,0.0511 1.269921,-0.12262 5.08e-4,-0.0205 -5.878335,-2.81586 -13.064154,-6.21198 -7.185818,-3.39611 -13.089546,-6.198417 -13.119394,-6.227345 -0.04682,-0.04538 1.613529,-2.031185 1.82607,-2.184001 0.06863,-0.04935 2.516933,1.197005 18.64345,9.490776 0.327816,0.1686 0.38335,0.21692 0.269875,0.23481 -0.07858,0.0124 -0.142864,0.042 -0.14285,0.0657 1.5e-5,0.0238 0.307196,0.18596 0.682625,0.36044 0.37543,0.17447 1.854175,0.87784 3.2861,1.56304 l 2.6035,1.24581 0.172044,-0.19779 c 0.09462,-0.10878 0.172349,-0.21208 0.172721,-0.22954 3.81e-4,-0.0175 -5.601679,-2.97498 -12.449003,-6.57225 -6.847323,-3.597278 -12.492736,-6.570674 -12.545362,-6.60755 -0.0788,-0.05522 0.197227,-0.404786 1.564694,-1.981543 l 1.660378,-1.914495 1.028513,0.623408 c 6.519668,3.951732 23.546478,14.20104 23.6737,14.25041 0.124702,0.0484 0.267359,0.036 0.5715,-0.0496 0.222923,-0.0628 0.726344,-0.14619 1.118714,-0.18536 l 0.713398,-0.0712 -1.792898,-1.15287 C 82.077477,104.52924 76.336807,100.8404 70.306525,96.9659 l -10.964147,-7.044546 0.822081,-0.946588 c 0.452144,-0.520624 0.853905,-0.938053 0.892802,-0.927621 0.0389,0.01043 6.159594,4.19667 13.60155,9.30275 7.441956,5.106075 13.702849,9.365985 13.913096,9.466465 0.625039,0.29871 1.846546,1.14666 2.160266,1.49962 0.06985,0.0786 0.288549,0.2529 0.485998,0.38737 l 0.358998,0.24449 0.110238,-0.16825 c 0.106617,-0.16271 0.105676,-0.17194 -0.02862,-0.28068 -0.07637,-0.0618 -6.883071,-4.83124 -15.125996,-10.598651 -13.879976,-9.711546 -14.98097,-10.494961 -14.903629,-10.604718 0.04593,-0.06518 1.22651,-1.433941 2.62351,-3.04169 l 2.540001,-2.92318 0.66675,-8.32e-4 0.66675,-8.32e-4 4.8895,4.261601 c 6.101286,5.317771 5.413156,4.69045 5.264959,4.799703 -0.0668,0.04925 -1.021572,0.54982 -2.121709,1.112384 -1.100138,0.562564 -2.063217,1.071282 -2.140177,1.130483 l -0.139926,0.10764 0.171676,0.160039 c 0.145666,0.135791 6.943176,5.301994 7.119843,5.41118 0.03371,0.02083 1.175448,-0.245774 2.537191,-0.592465 l 2.475897,-0.630348 0.274123,0.230419 c 0.375458,0.315598 3.662242,3.169227 3.873014,3.362607 l 0.169892,0.15587 0.290483,-0.20861 c 0.159766,-0.11474 0.290484,-0.22686 0.290484,-0.24915 0,-0.0223 -3.820418,-3.46789 -8.489817,-7.656864 -4.6694,-4.188976 -9.428955,-8.459281 -10.576789,-9.489569 l -2.086972,-1.87325 9.732776,-0.01608 c 8.605705,-0.01422 9.738962,-0.005 9.786195,0.07937 0.06827,0.122002 0.199949,0.122091 0.301107,1.9e-4 0.06923,-0.08342 0.814529,-0.09525 6.001149,-0.09525 h 5.922098 l 2.68324,5.084309 2.68323,5.084309 0.44278,-0.845684 c 0.56142,-1.072282 1.27974,-2.408297 1.65865,-3.084928 0.16162,-0.288611 0.29385,-0.547893 0.29385,-0.576184 0,-0.02829 -0.45359,-1.106838 -1.00798,-2.396772 -0.55439,-1.289934 -1.09604,-2.55227 -1.20367,-2.805192 l -0.19569,-0.459845 h 2.17787 2.17786 l 0.11536,0.381 c 0.0635,0.20955 0.13227,0.380893 0.15293,0.380762 0.0207,-1.27e-4 0.0908,-0.129647 0.15584,-0.287813 0.20283,-0.493178 0.12446,-0.481715 3.14932,-0.460691 2.58426,0.01796 2.66566,0.0223 2.83972,0.151203 0.31107,0.230381 0.36999,0.428449 0.36681,1.233271 -0.002,0.627037 -0.0234,0.773428 -0.14738,1.029481 -0.0829,0.171244 -0.23292,0.353147 -0.35191,0.426688 -0.2534,0.156606 -0.88478,0.253626 -1.68858,0.259468 l -0.60325,0.0044 -0.4394,0.711249 c -1.6704,2.703804 -2.35633,3.88379 -3.64046,6.262646 -0.94971,1.759342 -3.09266,5.970397 -3.33989,6.563156 l -0.10013,0.240053 0.2509,0.331447 c 0.35108,0.463801 0.66692,1.122937 0.8544,1.78308 0.12883,0.45366 0.16548,0.75024 0.18922,1.53112 l 0.0294,0.96849 -0.18914,0.29825 c -0.10404,0.16403 -0.2713,0.46097 -0.37169,0.65986 -0.21089,0.41777 -0.46424,0.69436 -0.66176,0.72249 -0.10414,0.0148 -0.20811,0.16365 -0.42375,0.60652 -0.1746,0.3586 -0.40001,0.70439 -0.57952,0.889 -0.24089,0.24775 -0.3007,0.35662 -0.33231,0.60485 -0.0481,0.37782 -0.14496,0.56643 -0.49466,0.96328 -0.24684,0.28012 -0.27672,0.34812 -0.2806,0.63876 -0.006,0.45469 -0.19207,0.79829 -0.81853,1.51207 -0.29393,0.33491 -0.56383,0.66386 -0.59977,0.73101 -0.0359,0.0671 -0.0669,0.37579 -0.0687,0.68587 -0.002,0.31009 -0.008,0.64952 -0.0144,0.75429 -0.0158,0.2741 0.0526,0.79772 0.12977,0.99372 0.0364,0.0925 0.12839,0.21177 0.20439,0.26501 0.13051,0.0914 0.15154,0.0828 0.37873,-0.15608 0.22433,-0.23582 0.2613,-0.25154 0.54845,-0.23325 l 0.3079,0.0196 0.11051,0.4445 c 0.19719,0.79316 0.19766,0.79375 0.63162,0.79375 0.44426,0 0.62312,0.0783 0.62312,0.27269 0,0.12488 0.0598,0.15466 0.51693,0.25741 0.2843,0.0639 0.77722,0.14218 1.09537,0.17396 0.76411,0.0763 1.05937,0.15145 1.17855,0.29981 0.0696,0.0867 0.24706,0.14531 0.6064,0.20042 0.2794,0.0429 0.8402,0.14508 1.24621,0.22718 0.40601,0.0821 1.17056,0.20899 1.69899,0.28199 0.52843,0.073 1.51335,0.24476 2.1887,0.38169 1.12507,0.2281 2.64668,0.43728 4.1598,0.57186 0.32681,0.0291 0.94118,0.0289 1.36525,0 0.42408,-0.0292 1.514,-0.0727 2.42205,-0.0966 1.41563,-0.0373 1.71426,-0.0286 2.09472,0.061 0.55308,0.13021 0.68095,0.21346 0.89874,0.5851 0.23185,0.39563 0.27977,1.13626 0.11723,1.8123 -0.0964,0.40101 -0.15145,0.50302 -0.40464,0.7499 -0.45478,0.44345 -1.24581,0.6818 -2.7378,0.82492 -0.99072,0.095 -1.45727,0.19271 -1.69672,0.35521 -0.30777,0.20886 -0.82345,0.29983 -1.73663,0.30639 -0.77815,0.006 -0.80505,10e-4 -1.07579,-0.17785 l -0.27768,-0.18357 -0.73396,0.0875 c -1.40917,0.16793 -2.54157,0.0924 -5.43297,-0.36212 -0.5588,-0.0879 -1.44462,-0.21496 -1.9685,-0.28247 -1.73431,-0.22348 -1.61925,-0.21646 -1.61925,-0.0989 0,0.0581 -0.0643,0.12793 -0.14287,0.15527 -0.2367,0.0824 -1.15134,0.0194 -1.55845,-0.10736 l -0.38164,-0.11877 -0.0676,0.14838 c -0.0789,0.17319 -0.30662,0.24545 -0.61552,0.19532 -0.19793,-0.0321 -0.2291,-0.0159 -0.32117,0.16687 -0.13,0.25814 -0.451,0.60012 -0.67196,0.71587 -0.19231,0.10076 -0.46986,0.11884 -0.52228,0.034 -0.019,-0.0307 -0.16014,-0.0416 -0.31371,-0.0243 -0.3269,0.0369 -0.67198,-0.0631 -0.91502,-0.26497 -0.2831,-0.23517 -1.01755,-0.38098 -1.59341,-0.31635 -0.26653,0.0299 -0.71321,0.0565 -0.99261,0.059 -0.46007,0.004 -0.53763,0.0239 -0.82205,0.2083 -0.374736,0.24298 -0.622565,0.25843 -1.114697,0.0695 l -0.34925,-0.13408 -0.746125,0.17804 c -0.697994,0.16656 -0.940966,0.2807 -0.597532,0.2807 0.221467,0 1.066528,0.22686 1.434133,0.385 0.22634,0.0974 0.322274,0.1747 0.322274,0.25981 0,0.0666 -0.03572,0.13338 -0.07937,0.1483 -0.04366,0.0149 -0.560676,0.0574 -1.148935,0.0944 -0.588257,0.037 -1.37407,0.10697 -1.74625,0.15551 -0.372179,0.0485 -1.062452,0.1205 -1.53394,0.15993 -0.471487,0.0394 -1.143,0.0984 -1.49225,0.13106 -0.693274,0.0648 -3.547786,0.12876 -3.90525,0.0875 z M 73.006937,121.5522 c 0.248121,-0.0895 0.551616,-0.22524 0.674433,-0.30163 0.214892,-0.13366 0.277116,-0.13823 1.652053,-0.12136 1.638057,0.0201 1.712783,0.003 2.609485,-0.59301 0.917864,-0.61019 1.366677,-1.19983 2.037734,-2.67709 0.273308,-0.60167 0.528797,-1.24255 0.567752,-1.42419 0.08206,-0.38263 0.02827,-0.45494 -0.418759,-0.56292 -0.14078,-0.034 -0.338943,-0.0897 -0.440364,-0.12388 -0.145331,-0.0489 -0.213847,-0.0389 -0.323377,0.0473 -0.569454,0.44785 -1.14125,0.85359 -1.485961,1.05439 -0.511417,0.29791 -1.063966,0.72156 -1.380848,1.05871 -0.330882,0.35205 -1.213494,0.7691 -2.054662,0.97087 -0.380621,0.0913 -1.258363,0.21818 -2.045346,0.29567 -0.758228,0.0747 -1.485891,0.16538 -1.61703,0.20158 -0.291145,0.0804 -1.030953,0.50437 -1.033114,0.59208 -0.0063,0.2574 0.08637,0.25748 3.45724,0.003 0.20955,-0.0158 0.681037,-0.0988 1.04775,-0.18445 0.47467,-0.11086 0.924233,-0.16445 1.560529,-0.18602 0.848131,-0.0288 0.923803,-0.0423 1.481647,-0.2655 0.323328,-0.12936 0.601538,-0.22153 0.618244,-0.20483 0.01671,0.0167 0.04623,0.18397 0.0656,0.37171 0.03262,0.31604 0.01921,0.3624 -0.181026,0.62581 -0.508247,0.6686 -1.441134,0.87606 -3.42016,0.76059 l -0.541911,-0.0316 -0.410589,0.26615 c -0.225824,0.14639 -0.567751,0.33899 -0.759838,0.428 -0.452194,0.20956 -0.240051,0.20979 0.340514,6.4e-4 z m 32.433593,-0.50964 c 0.21049,-0.14587 0.49989,-0.60321 0.49989,-0.78997 0,-0.0367 -0.0641,-0.18702 -0.14242,-0.33406 -0.12663,-0.23768 -0.14248,-0.35963 -0.14288,-1.09887 -5.1e-4,-0.99973 0.0244,-1.05161 0.47949,-0.99771 0.47421,0.0562 0.5043,0.007 0.5044,-0.82967 6e-5,-0.68899 0.0799,-1.29713 0.28035,-2.13535 0.14255,-0.59622 0.15586,-0.5715 -0.30765,-0.5715 -0.27656,0 -0.43866,-0.0305 -0.50262,-0.0944 -0.10312,-0.10313 -0.2652,-0.56165 -0.33137,-0.93748 -0.0612,-0.34759 -0.38231,-0.29096 -0.64751,0.11421 -0.18544,0.28332 -0.35326,0.28264 -0.76863,-0.003 -0.37768,-0.2598 -0.43536,-0.26631 -0.78388,-0.0885 -0.3992,0.20366 -0.83303,0.68897 -1.03945,1.16279 -0.12629,0.2899 -0.21667,0.41797 -0.29496,0.41797 -0.0621,0 -0.11287,-0.0458 -0.11287,-0.10185 0,-0.17543 0.44393,-0.9559 0.70387,-1.23747 0.13675,-0.14813 0.24863,-0.27485 0.24863,-0.28162 0,-0.007 -0.15002,-0.0293 -0.33337,-0.0501 -0.54237,-0.0615 -0.75895,-0.15146 -1.11521,-0.4634 -0.37877,-0.33165 -0.41031,-0.33049 -0.86202,0.0316 l -0.24686,0.19786 h 0.2506 c 0.28596,0 0.50296,0.12792 0.4502,0.26541 -0.03,0.0782 -0.20915,0.0897 -1.10569,0.0713 -1.342133,-0.0275 -1.81414,-0.096 -2.847897,-0.41276 -0.909825,-0.27882 -2.50825,-0.98897 -2.50825,-1.11436 0,-0.12151 0.05062,-0.10588 0.887212,0.27394 1.4614,0.6635 2.622067,0.97882 3.605413,0.97949 0.357981,0 0.650875,-0.0254 0.650875,-0.0571 0,-0.0316 0.135727,-0.1601 0.301627,-0.28545 0.16589,-0.12535 0.41413,-0.31457 0.55163,-0.42048 0.40944,-0.31536 0.47896,-0.30875 0.96453,0.0918 0.23704,0.19551 0.53223,0.38561 0.65597,0.42243 0.39092,0.11631 0.99877,0.14437 1.30002,0.06 l 0.28372,-0.0794 -10e-4,-0.45303 c -0.003,-0.90312 0.0614,-1.87133 0.13318,-2.00545 0.0404,-0.0754 0.31848,-0.41295 0.61804,-0.75004 0.55766,-0.62755 0.77689,-0.99337 0.77935,-1.30048 l 0.001,-0.17393 -0.55563,0.0381 c -0.49448,0.0339 -0.60191,0.0205 -0.97621,-0.12182 -0.46339,-0.17615 -0.76869,-0.35379 -1.38916,-0.80831 -0.47199,-0.34574 -2.16137,-1.34614 -2.635167,-1.56045 -1.011994,-0.45777 -4.02558,-0.61605 -5.330936,-0.27999 -0.5389,0.13873 -1.137173,0.38859 -1.314286,0.54887 -0.09962,0.0902 -0.100362,0.11849 -0.0094,0.36216 0.155418,0.41643 0.18606,1.64913 0.05242,2.10884 -0.114953,0.39542 -0.371033,0.94686 -0.516834,1.11296 -0.07872,0.0897 -0.008,0.11172 0.687326,0.21435 0.682114,0.10067 0.836299,0.14768 1.285607,0.39189 1.146872,0.62336 1.661965,0.85282 2.066287,0.92049 0.868541,0.14537 1.0795,0.19387 1.0795,0.24819 0,0.0924 -0.432215,0.14483 -0.882401,0.10708 -0.537915,-0.0451 -1.071931,-0.24736 -2.016091,-0.76362 -0.414017,-0.22639 -0.895633,-0.45619 -1.070258,-0.51068 -0.393361,-0.12275 -1.283916,-0.21553 -1.736078,-0.18087 -0.312998,0.024 -0.3358,0.0365 -0.296462,0.16236 0.251711,0.8054 0.295338,1.94303 0.119869,3.12568 -0.12772,0.86083 -0.12343,1.07475 0.03521,1.7551 0.163252,0.70014 0.378474,1.26651 0.746564,1.96463 0.236571,0.44869 0.324487,0.5617 0.436965,0.5617 0.07745,0 0.322413,0.0551 0.544373,0.12252 0.221961,0.0674 0.646452,0.16949 0.943314,0.22691 0.898659,0.17381 1.024799,0.22055 1.651,0.61182 0.886413,0.55384 1.079999,0.59302 2.828494,0.57247 l 0.828244,-0.01 0.0608,-0.20638 c 0.0423,-0.14379 0.0993,-0.20637 0.18776,-0.20637 0.13542,0 0.1435,0.0623 0.0625,0.48168 -0.0406,0.21006 -0.0293,0.23374 0.14512,0.306 0.22275,0.0923 0.57459,0.0426 0.91698,-0.12952 0.29911,-0.15034 0.40419,-0.14884 0.60433,0.009 0.0888,0.0699 0.21663,0.127 0.28406,0.127 0.14937,0 0.35475,0.10172 0.53365,0.26432 l 0.13364,0.12146 0.0344,-0.50228 c 0.0378,-0.55111 0.19488,-0.98025 0.4358,-1.19041 0.17733,-0.1547 0.60848,-0.40759 0.69488,-0.40759 0.0329,0 0.0599,0.19699 0.0599,0.43777 0,0.69223 0.12487,1.72847 0.22562,1.87232 0.0505,0.0721 0.0919,0.18095 0.0919,0.2418 0,0.0609 0.0562,0.1407 0.12484,0.17745 0.0687,0.0367 0.15732,0.18778 0.19701,0.33561 0.14656,0.54585 0.20835,0.58094 0.57526,0.32668 z m -1.24812,-6.4208 c 0.0522,-0.27846 0.26549,-0.71733 0.34856,-0.71733 0.13083,0 0.11936,0.13281 -0.046,0.53191 -0.19417,0.46871 -0.37673,0.58058 -0.30259,0.18542 z m -6.279443,6.40323 c -0.01867,-0.0302 -0.211894,-0.0899 -0.429379,-0.13272 -0.50091,-0.0986 -0.863878,-0.26907 -1.208903,-0.56794 -0.371796,-0.32205 -0.615375,-0.48223 -0.858643,-0.56462 -0.301454,-0.10211 -0.748627,-0.42563 -1.27457,-0.9221 -0.25531,-0.24101 -0.480081,-0.42231 -0.49949,-0.40291 -0.0554,0.0554 0.794394,0.97124 1.150608,1.24002 0.176596,0.13326 0.578258,0.39661 0.892583,0.58523 0.314325,0.18862 0.600075,0.37919 0.635,0.4235 0.136939,0.17372 0.819014,0.39344 1.226123,0.39497 0.220342,8.3e-4 0.385345,-0.0232 0.366671,-0.0534 z m -5.469871,-0.12977 c 0.01962,-0.0317 -0.05728,-0.12972 -0.170878,-0.21773 -0.914012,-0.70809 -1.655942,-1.5558 -2.459006,-2.8096 -0.0799,-0.12473 -0.174574,-0.19248 -0.463851,-0.3319 -0.08607,-0.0415 0.03031,0.51749 0.162745,0.78169 0.251415,0.50154 0.917046,1.46491 1.167413,1.68959 0.7015,0.62954 1.63332,1.09871 1.763577,0.88795 z m 28.982104,-0.13094 c 0.39878,-0.0742 0.46742,-0.17206 0.50235,-0.7163 l 0.0301,-0.46915 -0.30814,-0.26338 c -0.22827,-0.19513 -0.28961,-0.2819 -0.23668,-0.33484 0.0902,-0.0902 0.25716,-0.006 0.59505,0.2989 0.19297,0.17434 0.25986,0.294 0.3163,0.56583 0.0394,0.18961 0.0522,0.40584 0.0285,0.48053 -0.0396,0.12477 -0.0258,0.13265 0.17021,0.0971 0.11733,-0.0213 0.55621,-0.0692 0.97531,-0.10647 0.89369,-0.0795 1.89646,-0.27441 2.2733,-0.44181 0.4689,-0.2083 0.61303,-0.37375 0.74725,-0.85779 0.21712,-0.78299 0.14318,-1.46275 -0.19598,-1.80192 -0.32245,-0.32244 -0.73684,-0.35752 -3.22008,-0.27258 -1.41308,0.0483 -2.40438,0.0531 -2.90649,0.0139 -1.55135,-0.12097 -3.15012,-0.33464 -4.54025,-0.60679 -0.78581,-0.15384 -1.7674,-0.32541 -2.1813,-0.38127 -0.41391,-0.0559 -1.08542,-0.16859 -1.49225,-0.25053 -0.40684,-0.0819 -1.03973,-0.19761 -1.40645,-0.25706 -0.36671,-0.0595 -0.72697,-0.14619 -0.80057,-0.19273 -0.11913,-0.0753 -0.15879,-0.064 -0.36109,0.1027 -0.12499,0.10303 -0.29902,0.33676 -0.38673,0.51941 -0.43127,0.8981 -0.53398,2.95156 -0.18733,3.7452 0.0964,0.22063 0.12353,0.23813 0.36955,0.23813 0.34189,0 2.25404,0.24212 4.50942,0.571 2.08378,0.30384 3.14365,0.36928 4.16507,0.25714 0.39844,-0.0438 0.74188,-0.09 0.7632,-0.10286 0.0213,-0.0128 -0.0358,-0.17406 -0.127,-0.35829 -0.26923,-0.54401 -0.17706,-1.25599 0.16259,-1.25599 0.22887,0 0.5007,0.16201 0.69146,0.41211 0.15992,0.20966 0.16787,0.25358 0.14616,0.80658 -0.0227,0.57716 -0.0209,0.58548 0.13577,0.63313 0.17846,0.0543 1.3454,0.007 1.76878,-0.072 z m -13.06835,-2.33548 c 0.007,-1.47557 0.24397,-2.50457 0.69311,-3.01482 0.24563,-0.27905 0.24938,-0.28999 0.11217,-0.32677 -0.0781,-0.0209 -0.27054,-0.0389 -0.42771,-0.04 -0.15716,-0.001 -0.48577,-0.0454 -0.73025,-0.0985 -0.24447,-0.0531 -0.51768,-0.11224 -0.60712,-0.13144 -0.15775,-0.0339 -0.16597,-0.0193 -0.2747,0.4867 -0.21973,1.0225 -0.25148,1.60022 -0.14447,2.62828 0.10368,0.99605 0.11067,1.01335 0.45479,1.12524 0.0699,0.0227 0.3056,0.0442 0.52388,0.0476 l 0.39687,0.006 0.003,-0.68263 z m -16.449927,0.0933 c 0,-0.0406 0.05981,-0.26336 0.132918,-0.49499 l 0.132917,-0.42115 -0.144501,-0.50139 c -0.07948,-0.27576 -0.16072,-0.74428 -0.180543,-1.04114 -0.02714,-0.40638 -0.05827,-0.53975 -0.125999,-0.53975 -0.09251,0 -0.16947,0.20238 -0.350119,0.92075 -0.257662,1.02461 -0.260886,0.87609 0.03326,1.53206 0.146787,0.32736 0.297006,0.61473 0.33382,0.63862 0.08244,0.0535 0.168249,0.006 0.168249,-0.093 z M 71.713946,117.754 c 1.049494,-0.22231 1.05377,-0.22396 2.740879,-1.06296 1.460944,-0.72653 2.385618,-1.3006 3.003734,-1.86483 l 0.378887,-0.34586 -0.07726,-0.28887 c -0.04249,-0.15888 -0.07726,-0.38847 -0.07726,-0.51022 0,-0.12173 -0.0079,-0.22133 -0.01757,-0.22133 -0.0097,0 -0.247065,0.22552 -0.527557,0.50116 -0.551492,0.54195 -1.004955,0.80739 -2.167578,1.26881 -0.605594,0.24034 -1.594437,0.51603 -1.850922,0.51603 -0.24146,0 -0.205145,0.12582 0.09041,0.31326 0.45675,0.28966 0.609187,0.30085 1.010735,0.0742 0.22235,-0.12548 0.359832,-0.17054 0.386871,-0.12679 0.06104,0.0988 0.01434,0.13085 -0.89314,0.61376 -1.029014,0.54759 -1.819542,0.88951 -2.4765,1.07114 -0.491589,0.13591 -0.498768,0.1406 -0.222227,0.14517 0.157176,0.003 0.471501,-0.0346 0.6985,-0.0827 z m 4.095727,-0.2551 c 0.244475,-0.11522 0.586935,-0.30031 0.761023,-0.4113 0.174089,-0.11099 0.422821,-0.23042 0.552738,-0.2654 0.129918,-0.035 0.316095,-0.12929 0.413726,-0.20957 0.236749,-0.19466 1.196792,-0.76532 1.495138,-0.88872 0.281067,-0.11627 0.293979,-0.20953 0.07666,-0.55377 -0.203684,-0.32267 -0.291317,-0.35487 -0.567661,-0.20864 -0.277276,0.14672 -1.4944,1.11952 -2.092538,1.67248 -0.246724,0.22809 -0.670046,0.54102 -0.940714,0.6954 -0.270669,0.15438 -0.492125,0.32156 -0.492125,0.3715 0,0.12265 0.228193,0.0646 0.79375,-0.20198 z m 12.251172,-0.62585 c 0.439431,-0.26482 0.457705,-0.26964 0.977077,-0.25735 l 0.52927,0.0125 0.201491,-0.22719 c 1.091567,-1.23082 1.882898,-2.97948 1.977515,-4.36985 0.07452,-1.09505 -0.09641,-1.79276 -0.640642,-2.61498 -0.485768,-0.73389 -1.681181,-1.73609 -2.521691,-2.1141 -1.115081,-0.50149 -3.072976,-0.69898 -4.691634,-0.47324 -1.503158,0.20964 -2.534088,0.73374 -3.678422,1.87003 -0.790097,0.78455 -1.391278,2.6455 -1.302145,4.03079 0.04544,0.70629 0.07475,0.80943 0.262743,0.92448 0.08224,0.0503 0.352406,0.32623 0.600375,0.61311 0.424424,0.49101 0.475899,0.5291 0.878122,0.64985 0.270515,0.0812 0.636938,0.26973 0.998769,0.51386 0.719455,0.48543 0.890625,0.57339 2.267397,1.16516 0.671281,0.28853 1.211875,0.48329 1.341474,0.48329 0.119392,0 0.378609,-0.0714 0.576038,-0.15875 0.458642,-0.20283 0.583182,-0.19956 0.998965,0.0262 0.482113,0.26181 0.689024,0.24934 1.225298,-0.0738 z m -2.218172,-1.91742 c -0.03493,-0.0132 -0.139879,-0.0409 -0.233231,-0.0614 -0.473198,-0.10395 -0.878019,-0.74443 -0.878019,-1.38915 0,-0.58001 0.13604,-0.91657 0.525833,-1.30091 0.634615,-0.62574 1.435321,-0.69489 2.004288,-0.1731 0.227812,0.20893 0.232129,0.22179 0.232129,0.69151 0,0.45645 -0.01631,0.51017 -0.351888,1.15874 -0.383577,0.74135 -0.65313,1.02485 -1.018246,1.07095 -0.119551,0.0151 -0.245941,0.0166 -0.280866,0.003 z m 0.439129,-0.44161 c 0.366452,-0.15312 0.897531,-1.07024 0.966073,-1.66832 0.0539,-0.47032 -0.03461,-0.62089 -0.458118,-0.77934 -0.323049,-0.12088 -0.400758,-0.12762 -0.71605,-0.0622 -0.4434,0.0921 -0.699076,0.33371 -0.887637,0.83898 -0.285757,0.76574 -0.132307,1.33529 0.434917,1.61426 0.340715,0.16756 0.385919,0.17143 0.660815,0.0566 z m -4.950224,-1.01389 c -0.988987,-0.46053 -1.039026,-1.5653 -0.119681,-2.64234 0.741205,-0.86835 1.300373,-0.97587 1.923045,-0.36976 0.338628,0.32961 0.389981,0.45685 0.389981,0.96631 0,0.4877 -0.06546,0.68908 -0.432568,1.33072 -0.476964,0.83366 -1.026683,1.05691 -1.760777,0.71507 z m 1.082095,-0.31279 c 0.296324,-0.1674 0.53705,-0.56155 0.737764,-1.20795 0.223068,-0.7184 0.08666,-1.13574 -0.462083,-1.41382 -0.406769,-0.20612 -0.550325,-0.16176 -0.942893,0.29139 -0.517986,0.59792 -0.761538,1.05042 -0.761538,1.41488 0,0.8411 0.731151,1.30961 1.42875,0.9155 z m 2.69875,-1.34141 c 0,-0.11745 0.703536,-0.58589 1.024239,-0.68197 0.186385,-0.0558 0.268144,-0.0566 0.321917,-0.003 0.05377,0.0538 0.04116,0.0829 -0.04966,0.11448 -0.365439,0.12724 -0.69875,0.2981 -0.913805,0.46843 -0.264635,0.2096 -0.382688,0.24101 -0.382688,0.10184 z m -1.36655,-0.68472 c -0.02521,-0.18509 -0.09911,-0.47226 -0.164217,-0.63816 -0.06511,-0.16589 -0.0898,-0.30162 -0.05487,-0.30162 0.121897,0 0.312867,0.41223 0.352257,0.76039 0.05045,0.44589 0.04918,0.47042 -0.02546,0.49531 -0.03403,0.0113 -0.0825,-0.13083 -0.107706,-0.31592 z m 2.477846,-2.43727 c -0.29453,-0.10939 -1.195401,-0.21433 -1.853673,-0.21591 -0.251145,-6.4e-4 -0.474658,-0.0303 -0.496695,-0.0659 -0.02204,-0.0356 0.06915,-0.11051 0.202627,-0.16636 0.389246,-0.16285 1.294499,-0.0855 2.084195,0.17803 0.610384,0.2037 0.769315,0.3246 0.462349,0.35171 -0.07967,0.007 -0.259128,-0.0297 -0.398803,-0.0815 z m -9.442951,4.96413 c 0.395371,-0.37017 0.872606,-1.17185 1.025109,-1.72201 0.06752,-0.24358 0.141799,-0.49243 0.165059,-0.55298 0.0393,-0.10232 -0.04767,-0.10974 -1.230204,-0.10487 -1.204412,0.005 -1.285998,-0.002 -1.524882,-0.13661 l -0.252387,-0.14186 -0.216336,0.13371 c -0.197005,0.12176 -0.22861,0.12511 -0.353692,0.0375 -0.07555,-0.0529 -0.161485,-0.1878 -0.190975,-0.29974 -0.04328,-0.16429 -0.08328,-0.20101 -0.207454,-0.19043 -1.166948,0.0994 -1.442693,0.20078 -1.912825,0.70339 -0.237967,0.25441 -0.749258,1.10769 -0.749258,1.25042 0,0.0183 0.07286,0.0333 0.161903,0.0333 0.214385,0 0.462655,0.13478 0.691352,0.37533 0.263902,0.27757 0.53364,0.24443 0.717738,-0.0882 0.06569,-0.11869 0.07399,-0.11519 0.150495,0.0635 0.116419,0.27192 0.309603,0.41632 0.453742,0.33918 0.166757,-0.0892 0.316954,-0.0199 0.444731,0.20519 0.110749,0.19513 0.114987,0.19645 0.492315,0.15266 0.389649,-0.0452 1.667786,0.0698 1.840724,0.16568 0.151997,0.0842 0.17992,0.0717 0.494845,-0.2232 z m -7.555504,-0.62502 c -0.08952,-0.38869 -0.01248,-0.89859 0.204454,-1.35314 0.103788,-0.21746 0.188705,-0.41274 0.188705,-0.43394 0,-0.0212 -0.248927,-0.0385 -0.55317,-0.0385 -0.304243,0 -1.011474,-0.0561 -1.571625,-0.12461 -1.938201,-0.23715 -2.617582,-0.27812 -3.272706,-0.19739 -0.808351,0.0996 -1.020839,0.24443 -0.800621,0.54559 0.06671,0.0912 0.109527,0.10387 0.174625,0.0515 0.113999,-0.0916 0.760443,-0.27514 0.969145,-0.27514 0.223472,0 0.215905,0.17645 -0.0098,0.22787 -0.09604,0.0219 -0.303212,0.0754 -0.460375,0.11898 -0.283311,0.0785 -0.28575,0.0816 -0.28575,0.3583 0,0.31522 -0.05717,0.29962 0.773527,0.21106 0.329802,-0.0352 0.461714,-0.0162 0.8255,0.11843 0.663215,0.24552 3.442824,1.01432 3.807599,1.05313 0.053,0.006 0.05582,-0.0652 0.01047,-0.26215 z m 1.621346,-0.0143 c 0.04675,-0.34109 0.511513,-1.28703 0.827546,-1.68433 l 0.227301,-0.28575 -0.834418,-0.0178 -0.834418,-0.0178 -0.184372,0.17653 c -0.365444,0.34993 -0.741784,1.46854 -0.574794,1.70849 0.07199,0.10345 0.90397,0.39726 1.136462,0.40134 0.186765,0.003 0.199905,-0.0123 0.236693,-0.2807 z m 7.788813,-3.05364 c 0,-0.0413 -1.335882,-0.69656 -2.968625,-1.45621 -2.238217,-1.04136 -3.046744,-1.38908 -3.286125,-1.41325 -0.174625,-0.0176 -0.300245,-0.0135 -0.279154,0.009 0.02109,0.0227 1.464128,0.73758 3.20675,1.5887 2.796786,1.36599 3.177714,1.53572 3.247779,1.44706 0.04366,-0.0552 0.07937,-0.1342 0.07937,-0.17547 z m 1.931547,-2.18255 c 0.216593,-0.17235 0.470676,-0.34839 0.564629,-0.39119 0.09395,-0.0428 0.170515,-0.0947 0.170137,-0.11527 -8.73e-4,-0.0475 -18.439051,-10.673683 -18.520634,-10.673683 -0.10837,0 -1.721173,0.982396 -1.720096,1.04775 9.72e-4,0.05878 18.936264,10.433773 19.057663,10.442043 0.02997,0.002 0.231708,-0.13731 0.448301,-0.30965 z m 25.61131,-0.90245 c 0.0442,-0.0924 0.0974,-0.29341 0.11846,-0.44664 l 0.0382,-0.2786 -0.34012,-0.10766 c -0.81249,-0.25717 -2.02288,-1.16664 -2.02288,-1.51997 0,-0.0903 0.0429,-0.18068 0.0953,-0.20078 0.0524,-0.0201 0.0952,-0.10979 0.0952,-0.19929 0,-0.26677 0.15115,-0.2469 0.57919,0.0761 0.59971,0.45257 1.91481,1.09862 2.23636,1.09862 0.0452,0 0.18799,-0.22613 0.31736,-0.5025 0.17724,-0.37865 0.28883,-0.53414 0.45274,-0.63084 0.11962,-0.0706 0.29517,-0.25165 0.39009,-0.40238 0.0949,-0.15072 0.20863,-0.30261 0.25268,-0.33753 0.044,-0.0349 0.18224,-0.18765 0.30709,-0.33938 0.1924,-0.23384 0.22699,-0.32365 0.22699,-0.58928 v -0.3134 l -0.18674,0.13807 c -0.16072,0.11882 -0.24184,0.13306 -0.58226,0.10219 -0.51594,-0.0468 -0.85668,-0.22743 -2.12025,-1.12405 -1.21682,-0.86345 -2.19657,-1.801647 -2.47257,-2.367703 -0.23968,-0.491549 -0.26553,-0.810174 -0.10663,-1.313974 0.0711,-0.225513 0.11851,-0.420836 0.10529,-0.434051 -0.0566,-0.05662 -0.49329,0.208773 -0.66466,0.403948 -0.2573,0.29305 -0.30066,0.653778 -0.17183,1.429489 0.11537,0.694723 0.13421,1.436851 0.0402,1.582391 -0.0513,0.0794 -0.0617,0.0746 -0.0625,-0.0286 -0.003,-0.40222 -0.37194,0.61862 -0.45087,1.24806 -0.0558,0.44479 -0.38636,1.73344 -0.46483,1.81191 -0.16611,0.16611 -0.48228,-0.63307 -0.48228,-1.21908 v -0.33331 l -0.46037,-0.13643 c -0.56714,-0.16808 -1.841682,-0.26241 -2.586749,-0.19144 -0.297345,0.0283 -0.854953,0.12354 -1.239128,0.2116 -0.762913,0.17488 -0.92075,0.1922 -0.92075,0.10105 0,-0.0331 0.172226,-0.10853 0.382723,-0.1676 0.210497,-0.0591 0.395918,-0.12874 0.412046,-0.15483 0.01613,-0.0261 0.06027,-0.60358 0.09808,-1.28331 0.06885,-1.237398 0.02003,-2.223451 -0.129568,-2.616914 l -0.06273,-0.164994 -0.366152,0.187538 c -0.201383,0.103146 -0.455425,0.253809 -0.564536,0.334808 -0.733826,0.544753 -1.009479,0.772245 -1.520236,1.254628 -0.31659,0.299003 -0.886025,0.815104 -1.265411,1.146894 -0.379386,0.33178 -0.906169,0.79732 -1.17063,1.03453 -0.556008,0.49869 -1.395945,0.95249 -1.973206,1.06605 -0.209486,0.0412 -0.380883,0.0954 -0.380883,0.12034 0,0.025 0.05843,0.0983 0.129839,0.1629 0.115909,0.10489 0.160988,0.10917 0.420173,0.0399 0.86143,-0.2304 2.466058,-0.92851 3.16143,-1.37541 0.207732,-0.13351 0.624986,-0.48114 0.927234,-0.7725 0.302248,-0.29137 0.580417,-0.52976 0.618154,-0.52976 0.125536,0 0.153354,0.25953 0.0718,0.66984 -0.06109,0.30737 -0.06339,0.46194 -0.0095,0.63762 0.06587,0.21462 0.05842,0.24387 -0.09987,0.39236 -0.189543,0.1778 -1.890506,1.1165 -2.224701,1.22773 -0.201328,0.067 -0.209966,0.0823 -0.169181,0.29971 0.122492,0.65294 0.425823,0.83211 1.520968,0.8984 0.582809,0.0353 0.845478,0.081 1.101204,0.19171 0.304453,0.1318 0.402347,0.14219 1.04775,0.11123 1.314868,-0.0631 3.027849,0.10406 3.855169,0.37613 0.261941,0.0861 0.986761,0.2849 1.610711,0.44169 0.99644,0.25041 1.24093,0.33918 2.00966,0.7297 1.08263,0.54998 1.67574,0.74885 2.1893,0.73407 0.34384,-0.01 0.38814,-0.0271 0.46069,-0.179 z m -13.852588,-0.80665 c -0.08779,-0.13908 -0.182212,-0.26563 -0.209821,-0.28123 -0.02761,-0.0156 -0.255594,-0.0109 -0.506635,0.0105 l -0.456436,0.0389 0.646936,0.49008 0.646937,0.49009 0.01932,-0.24776 c 0.01396,-0.17907 -0.02494,-0.31788 -0.140302,-0.50062 z M 61.85109,104.26254 c 0.04438,-0.0248 -1.172523,-0.61586 -2.803822,-1.36176 l -2.882233,-1.31789 -0.290056,0.14092 c -0.159531,0.0775 -0.289813,0.15666 -0.289516,0.1759 3.18e-4,0.0192 1.221879,0.58527 2.714625,1.25786 l 2.714084,1.22289 0.379255,-0.037 c 0.208589,-0.0204 0.414538,-0.0568 0.457663,-0.0809 z m 2.832337,-1.06629 0.455825,-0.10368 -3.412861,-1.70666 -3.412862,-1.706663 -0.312059,0.158133 c -0.171633,0.08697 -0.327272,0.18275 -0.345865,0.21283 -0.02824,0.0457 6.366839,3.22714 6.521032,3.24411 0.02803,0.003 0.256087,-0.041 0.50679,-0.0981 z m 37.035653,-2.1982 c 0.18873,-0.3929 0.4417,-0.97987 0.56216,-1.304371 0.20928,-0.563789 0.21618,-0.609075 0.15528,-1.01937 -0.10754,-0.724566 0.0999,-1.207017 0.65965,-1.53422 0.28182,-0.164738 0.38801,-0.192648 0.65852,-0.173086 l 0.32251,0.02332 0.34424,-0.669903 c 0.18933,-0.368447 0.35195,-0.686434 0.36138,-0.706638 0.0215,-0.04595 -7.958562,-12.559194 -8.211335,-12.875985 l -0.184793,-0.231594 -0.107286,0.792486 c -0.13889,1.025938 -0.283359,1.704696 -0.785654,3.691237 -0.226506,0.895813 -0.411829,1.689281 -0.411829,1.763262 0,0.07817 0.844416,1.251865 2.016125,2.802301 1.108869,1.467285 2.016125,2.70151 2.016125,2.742723 0,0.0719 -3.452816,0.931879 -3.756271,0.935556 -0.09647,0.0012 -0.311662,-0.202816 -0.73025,-0.692209 -0.326413,-0.381627 -0.615894,-0.695952 -0.643291,-0.6985 -0.202077,-0.0188 0.393066,1.937425 1.039128,3.415586 l 0.387867,0.887426 0.454963,-0.296448 c 0.250229,-0.163046 0.577386,-0.351348 0.727015,-0.418448 0.234639,-0.105224 0.283883,-0.10959 0.358087,-0.03175 0.161254,0.169155 0.2925,1.015541 0.352689,2.27444 0.03304,0.691025 0.07379,1.296675 0.09056,1.345865 0.01677,0.0492 0.06026,0.20602 0.09665,0.3485 l 0.06617,0.25904 0.365593,-0.0482 c 1.058882,-0.13972 1.479079,-0.1841 1.743023,-0.1841 0.280968,0 1.502684,0.2237 1.565664,0.28668 0.0887,0.0887 0.17361,-0.0305 0.48731,-0.68356 z m 4.96318,-1.047748 c 0.32021,-0.619918 0.94114,-1.878935 1.37983,-2.797813 0.77277,-1.618643 1.87123,-3.763644 2.90219,-5.667209 0.27535,-0.508419 0.50064,-0.940084 0.50064,-0.959257 0,-0.01917 -0.19883,-0.05334 -0.44184,-0.07592 -0.72801,-0.06766 -1.76652,-0.442646 -2.38031,-0.859485 l -0.18689,-0.126927 -0.12378,0.202995 c -0.0681,0.111647 -0.39487,0.731633 -0.72621,1.377745 -0.75129,1.465022 -1.45477,2.773042 -1.61041,2.994303 -0.0652,0.0927 -0.11856,0.183432 -0.11856,0.201618 0,0.01819 -0.16893,0.330639 -0.37541,0.69434 -0.20648,0.363701 -0.56744,1.044498 -0.80212,1.512882 -0.23469,0.468384 -0.56581,1.09841 -0.73584,1.400057 -0.17002,0.301647 -0.30913,0.618685 -0.30913,0.70453 0,0.22953 0.43124,0.846254 0.92908,1.328708 0.38415,0.372261 1.39715,1.187131 1.48436,1.194021 0.0177,0.001 0.29418,-0.50467 0.6144,-1.124584 z m -12.715668,-0.53167 c 0.38642,-0.371001 0.79545,-0.752159 0.908956,-0.84702 0.113506,-0.09486 0.206375,-0.200156 0.206375,-0.23399 0,-0.03383 -0.156013,-0.41407 -0.346696,-0.844971 -0.657309,-1.48537 -1.065545,-2.73236 -1.144338,-3.495474 -0.04896,-0.474146 0.116118,-1.464568 0.47097,-2.82575 0.141124,-0.541337 0.25692,-1.000558 0.257326,-1.020491 3.81e-4,-0.01993 -0.238248,-0.0237 -0.530342,-0.0084 -0.695234,0.03649 -1.443118,-0.115634 -2.11595,-0.4304 l -0.519779,-0.243164 -0.161248,0.676586 c -0.354079,1.485706 -0.779789,3.874502 -0.896782,5.032146 -0.03724,0.368486 -0.01841,0.488131 0.157385,1.000132 0.349374,1.017538 1.526147,3.593725 1.974186,4.321884 l 0.199631,0.32444 0.418863,-0.36551 c 0.230374,-0.20102 0.735024,-0.66905 1.121443,-1.04005 z m -4.070125,-5.324418 c 0.0444,-0.424756 0.33166,-1.988691 0.577682,-3.145037 0.08917,-0.4191 0.162268,-0.812826 0.162448,-0.874947 3.17e-4,-0.101325 -3.352749,-4.024939 -4.153104,-4.85982 -0.261315,-0.272588 -0.353787,-0.33134 -0.482186,-0.306364 -0.08738,0.017 -0.930339,0.445564 -1.87325,0.952371 -1.161791,0.624454 -1.714384,0.954719 -1.714384,1.024624 0,0.09297 7.312557,7.586492 7.404579,7.587827 0.02122,3.17e-4 0.05642,-0.170087 0.07822,-0.378654 z m 3.213847,-5.240537 c 0.07409,-0.454025 0.219537,-1.182687 0.323204,-1.61925 0.320097,-1.34798 0.346654,-1.900465 0.103061,-2.144058 -0.05537,-0.05537 -0.289113,-0.113274 -0.567161,-0.140498 -0.260134,-0.02547 -0.505857,-0.06663 -0.546051,-0.09148 -0.251608,-0.155502 -0.347233,0.09613 -0.637501,1.677531 -0.03526,0.192088 -0.165318,0.816665 -0.289024,1.387951 -0.123706,0.571286 -0.224919,1.073986 -0.224919,1.117111 0,0.157193 1.543127,0.786029 1.661461,0.677059 0.02322,-0.02138 0.102834,-0.410346 0.17693,-0.864371 z m 16.997896,0.172308 c 0.58028,-0.877726 0.91059,-1.478815 1.82349,-3.318303 0.75595,-1.523236 1.00896,-1.920305 1.30397,-2.046416 0.0976,-0.04171 0.7858,-0.08552 1.66962,-0.106276 1.69332,-0.03977 1.67288,-0.03408 2.05238,-0.570587 0.16909,-0.239028 0.19306,-0.330465 0.21329,-0.813294 l 0.0228,-0.543989 -1.16589,0.03446 c -0.64123,0.01895 -1.56589,0.01366 -2.05478,-0.01177 -1.10509,-0.05747 -1.66498,-0.0098 -1.78316,0.151809 -0.0472,0.06455 -0.14784,0.30607 -0.22364,0.53671 -0.47011,1.430376 -1.37939,3.357037 -2.34066,4.959595 -0.19902,0.331788 -0.51248,0.883697 -0.69657,1.226464 -0.31969,0.595231 -0.32943,0.627388 -0.21705,0.716177 0.22143,0.174936 0.75258,0.469167 0.84803,0.469764 0.0524,3.17e-4 0.29912,-0.307629 0.54818,-0.684347 z M 90.879275,83.916552 c 0.131219,-0.215418 0.294696,-0.902431 0.361583,-1.519556 0.0215,-0.198375 0.08033,-0.3949 0.130718,-0.436723 0.108048,-0.08967 1.644994,-0.0427 3.355998,0.102555 0.59092,0.05017 1.085344,0.08027 1.098719,0.0669 0.05139,-0.05139 -0.327275,-0.29516 -0.546285,-0.351672 -0.126409,-0.03262 -1.348847,-0.07508 -2.716529,-0.09437 -2.901736,-0.04092 -2.706869,-0.08378 -2.815955,0.619422 -0.07873,0.50753 -0.0015,1.064097 0.182003,1.311822 0.09097,0.122805 0.701159,0.508 0.804718,0.508 0.01063,0 0.07589,-0.09287 0.14503,-0.206375 z m -12.875692,-15.494 c 0.646192,-0.752299 0.818977,-0.936625 0.877981,-0.936625 0.03078,0 0.221626,0.221456 0.424094,0.492125 0.202468,0.270668 0.437922,0.584993 0.523231,0.6985 l 0.155107,0.206375 h -1.187928 -1.187927 z m 3.177615,-0.970082 c -0.567172,-0.786751 -1.021952,-1.457622 -1.010623,-1.490824 0.04068,-0.119212 11.960134,-13.833436 12.027058,-13.838025 0.05405,-0.0037 2.782197,5.9267 7.483346,16.267181 l 0.223738,0.492125 h -8.84615 -8.846149 z m 20.411492,1.224082 c -0.0477,-0.113507 -1.822799,-4.249738 -3.944633,-9.191625 -2.121836,-4.941888 -3.86007,-9.042401 -3.862744,-9.112251 -0.0058,-0.150858 10.754067,-12.573524 10.823457,-12.496117 0.0247,0.02757 1.86644,6.993842 4.09273,15.480617 2.2263,8.486776 4.06054,15.451932 4.07611,15.478126 0.0156,0.02619 -0.31186,0.04762 -0.72762,0.04762 h -0.75593 l -0.34057,-1.180728 c -0.1873,-0.649399 -0.37339,-1.225633 -0.41353,-1.280518 -0.0866,-0.118408 -0.16458,-0.07708 -2.21829,1.175289 l -1.3335,0.81318 0.007,0.236388 0.007,0.236389 h -2.66161 -2.66161 z"
       id="path770"
       sodipodi:nodetypes="cscccsssscccssccccsssccssccsssscssssscccscscccscccsssscccssscsssssssscssssscssccccscsssssscscssscccsssscssscsscsssscscsscccsssssccccscsscssscssscsscccscsssscssccsccscsssscccsssccccssscscccccsscccsscsccssccscsscscscccccssscsssccsssccccscssssccscsscscccccscsscsssssscsscssccsscssscsccccsccscscsccsssssssssscsssscsscccscsccssccssssscscccscccscssssssssssccssssccscssccsscsssccscccccscsscccsscscccsccscsscccccsscsssssssscsscsssssssccsscccsscssssssssssccssssssscsssssccssccsssssscccsscssccssssssssssssccccsccsssscssccscsccccsscccssscsssssscccccccssscsccsccsccccccscccssccccsccscccssssscscccsssscsscsssscssssccsssccsscscsscscscsssscssccsssscssscsccssccccsscccscccscscsccccccccsscccssssscscscssssscssscssssssccssssssssssccsssssssscsscsssssccscsssscsccsscssssssssssscsssssssssssscsssssssssssssssssssssssssscccssssscccscscsscsccsscccccc" /><path
       d="m 52.219422,75.137677 v -5.49275 h 4.445538 4.445537 l -0.01641,3.508375 -0.01641,3.508375 -2.809875,0.01654 -2.809875,0.01654 v 1.967839 1.96784 h -1.61925 -1.61925 z m 5.715,-1.7145 v -0.98425 h -1.27 -1.27 v 0.98425 0.98425 h 1.27 1.27 z m 4.0005,1.7145 v -5.49275 h 4.255094 4.255093 l -0.01647,3.159125 -0.01647,3.159125 -0.402451,0.01905 c -0.283102,0.0134 -0.392884,0.04165 -0.370191,0.09525 0.01774,0.04191 0.288321,0.70485 0.601287,1.4732 0.312965,0.76835 0.715295,1.750785 0.894066,2.183188 0.178771,0.432403 0.325039,0.811022 0.325039,0.841375 0,0.06329 -2.47569,0.07519 -3.181295,0.0153 L 67.808669,80.55065 67.052648,78.558541 66.296626,76.566433 H 65.89897 c -0.218713,0 -0.44286,-0.01734 -0.498104,-0.03854 -0.09033,-0.03466 -0.100444,0.170023 -0.100444,2.032 v 2.070544 h -1.68275 -1.68275 z m 5.461002,-1.9685 v -1.04775 h -1.047752 -1.04775 v 1.04775 1.04775 h 1.04775 1.047752 z m 4.953,1.9685 v -5.49275 h 4.66725 4.66725 v 5.49275 5.49275 h -4.66725 -4.66725 z m 6.588712,0.07937 -0.01646,-3.190875 h -1.87325 -1.87325 l -0.01646,3.190875 -0.01646,3.190875 h 1.906175 1.906175 z m 3.634788,4.049467 v -1.363907 l 1.254125,-0.01722 1.254125,-0.01722 0.01634,-4.111625 0.01634,-4.111625 h 1.52354 1.52353 v 5.49275 5.49275 h -2.794 -2.793996 z m 6.4135,-4.128842 v -5.49275 h 3.937 3.937 v 1.397 1.397 h -2.3495 -2.3495 v 0.762 0.762 h 2.3495 2.3495 v 1.143 1.143 h -2.3495 -2.3495 v 0.85725 0.85725 h 2.3495 2.3495 v 1.3335 1.3335 h -3.937 -3.937 z m 8.6995,0 v -5.49275 h 4.571996 4.572 v 2.19075 2.19075 h -1.4605 -1.4605 v -0.889 -0.889 h -1.4605 -1.46049 v 2.9845 2.9845 h 1.45854 1.45854 l 0.0178,-0.777875 0.0178,-0.777875 1.44463,-0.01707 1.44462,-0.01707 v 2.001443 2.001442 h -4.572 -4.571996 z m 12.176596,1.444625 -0.0164,-4.048125 -1.06362,-0.01741 -1.06363,-0.01741 v -1.427215 -1.427214 h 3.65125 3.65125 v 1.427214 1.427215 l -1.06362,0.01741 -1.06363,0.01741 -0.0163,4.048125 -0.0164,4.048125 h -1.49131 -1.49131 z m 6.06263,2.54 0.017,-1.508125 1.41288,-0.01709 1.41287,-0.01709 v 0.413965 0.413965 h 1.55575 1.55575 V 77.45605 76.504178 l -2.96862,-0.0165 -2.96863,-0.0165 -0.0164,-3.413125 -0.0164,-3.413125 h 4.5408 4.5408 v 1.49225 1.49225 h -1.39383 -1.39383 l -0.019,-0.365125 -0.019,-0.365125 h -1.651 -1.651 l -0.0174,1.063625 -0.0174,1.063625 2.46216,3.17e-4 c 1.35419,1.91e-4 2.74077,0.01878 3.08129,0.04133 l 0.61912,0.041 v 3.260672 3.260673 h -4.5414 -4.5414 l 0.017,-1.508125 z"
       style="fill:#ff0000;stroke-width:0.0635"
       id="path780" /></g></svg>
